<svg width="546" height="351" viewBox="0 0 1276 881" fill="none" xmlns="http://www.w3.org/2000/svg">
<path d="M97.6548 274.462C114.075 262.463 136.307 260.725 156.602 264.035C178.281 267.511 198.023 276.861 218.041 284.723C238.705 292.915 259.738 298.79 282.431 299.783C305.033 300.859 327.634 297.963 349.589 292.998C395.438 282.654 437.504 262.794 481.507 247.816C503.555 240.286 526.34 233.749 549.772 230.77C562.502 229.115 575.325 228.701 588.148 229.942C600.325 231.101 612.225 233.666 624.125 236.314C650.417 242.189 676.616 247.32 703.553 250.216C731.32 253.195 759.364 254.188 787.316 253.36C789.068 253.278 789.068 250.795 787.316 250.878C736.578 252.533 685.841 247.651 636.579 236.645C613.055 231.349 589.716 225.887 565.27 226.963C541.562 228.039 518.13 233.666 495.806 240.534C451.064 254.353 408.998 274.627 363.611 286.957C340.549 293.163 316.656 297.466 292.487 297.549C267.948 297.632 244.886 292.501 222.469 283.73C200.329 275.124 178.65 264.449 154.573 261.139C134.093 258.325 112.23 260.56 95.7175 272.641C94.3337 273.717 96.271 275.537 97.6548 274.462Z" fill="#E8E8E8"/>
<path d="M594.513 198.828C658.443 223.57 731.043 219.433 796.449 201.476C831.873 191.711 867.112 178.637 904.842 178.72C942.849 178.802 978.919 190.718 1016.1 196.014C1049.86 200.814 1087.04 200.235 1116 182.03C1117.48 181.119 1116.09 178.968 1114.62 179.878C1087.87 196.676 1053.92 198.166 1022.55 194.359C987.037 190.056 952.905 178.968 917.019 176.651C881.134 174.334 847.278 184.016 813.607 193.946C780.028 203.793 746.08 211.489 710.748 213.309C671.634 215.378 632.059 210.661 595.989 196.677C594.329 196.015 592.945 198.166 594.513 198.828Z" fill="#E8E8E8"/>
<path d="M62.4153 405.124C82.618 392.215 106.511 384.271 131.234 382.119C143.595 381.044 156.049 381.457 168.226 383.361C180.864 385.347 193.041 389.153 205.126 392.96C227.543 399.911 249.775 405.207 273.391 400.324C293.778 396.104 312.228 386.588 330.309 377.568C351.619 366.893 373.759 355.97 398.482 353.984C400.235 353.819 400.235 351.336 398.482 351.502C354.386 355.06 321.269 384.767 280.125 396.104C269.701 399 258.815 400.49 247.93 399.911C234.554 399.166 221.546 395.442 209 391.553C196.362 387.664 183.724 383.443 170.44 381.209C159.001 379.306 147.285 378.727 135.754 379.389C109.001 380.878 82.8947 389.07 61.0315 403.055C59.5555 403.883 60.9393 406.034 62.4153 405.124Z" fill="#E8E8E8"/>
<path d="M306.97 436.9C342.855 402.89 395.622 388.988 446.637 388.574C476.249 388.326 505.769 392.132 534.643 397.676C562.134 402.89 588.794 409.675 617.207 406.282C646.911 402.724 674.679 391.305 701.247 379.306C702.815 378.561 701.431 376.41 699.863 377.154C674.586 388.574 648.295 399.414 620.159 403.386C605.768 405.372 591.285 405.207 576.894 403.138C562.318 401.069 548.112 397.594 533.628 394.863C480.861 384.933 424.681 380.713 372.837 396.849C347.283 404.793 323.667 417.454 305.033 435.079C303.834 436.321 305.771 438.058 306.97 436.9Z" fill="#E8E8E8"/>
<path d="M734.549 461.642C749.586 466.359 764.991 461.973 778.737 456.098C794.142 449.478 808.626 441.286 824.4 435.41C840.175 429.535 857.149 425.563 874.308 427.466C889.99 429.204 904.473 435.493 918.219 442.196C931.226 448.568 944.049 455.519 957.886 460.401C973.292 465.78 989.897 468.345 1006.41 468.014C1040.27 467.352 1069.05 452.209 1099.95 441.948C1128.83 432.349 1167.29 428.046 1190.45 450.554C1191.65 451.712 1193.58 449.974 1192.39 448.816C1174.21 431.19 1145.25 429.204 1120.34 433.921C1087.87 440.044 1059.82 457.836 1027.17 463.545C1009.73 466.607 991.465 466.193 974.214 462.47C958.163 458.994 943.772 452.209 929.381 445.009C916.373 438.472 903.182 431.687 888.883 427.797C874.031 423.743 858.533 423.66 843.496 426.97C825.138 431.025 808.257 439.051 791.744 447.161C774.678 455.436 754.936 465.531 735.102 459.325C733.626 458.746 732.888 461.146 734.549 461.642Z" fill="#E8E8E8"/>
<path d="M977.443 501.528C1015.63 503.596 1047.09 480.344 1083.16 473.31C1092.76 471.407 1102.9 470.579 1112.68 472.069C1121.45 473.393 1129.38 476.62 1136.94 480.757C1149.95 487.874 1162.59 497.059 1178.46 498.052C1197.74 499.211 1214.8 488.453 1229.19 478.358C1230.58 477.365 1228.64 475.627 1227.26 476.62C1213.23 486.384 1196.44 497.059 1177.63 495.487C1161.3 494.163 1148.38 483.571 1134.64 476.703C1103 460.815 1069.14 473.31 1038.79 485.309C1019.32 492.922 999.122 500.286 977.535 499.128C975.69 498.962 975.69 501.445 977.443 501.528Z" fill="#E8E8E8"/>
<path d="M106.695 659.745C120.071 648.326 139.905 643.857 157.71 648.243C176.344 652.794 188.337 667.193 203.281 677.123C233.078 696.9 273.668 693.756 306.417 682.088C345.069 668.351 377.264 643.526 415.825 629.542C434.644 622.673 455.031 618.288 475.511 619.529C495.437 620.77 512.411 628.466 528.185 638.892C543.868 649.236 558.628 661.483 576.986 668.02C596.635 674.971 618.775 673.482 637.225 664.297C638.793 663.552 637.41 661.4 635.841 662.145C617.022 671.496 594.513 672.323 574.864 664.545C558.444 658.008 544.975 647.085 530.676 637.486C516.009 627.638 500.418 619.943 481.968 617.626C462.965 615.309 443.592 618.205 425.603 623.584C386.213 635.417 353.741 659.828 316.38 675.468C281.878 689.949 237.506 696.735 204.757 674.971C188.429 664.131 175.606 648.657 154.573 645.016C136.769 641.954 117.858 646.754 104.758 658.008C103.467 659.083 105.404 660.904 106.695 659.745Z" fill="#E8E8E8"/>
<path d="M461.12 705.92C476.341 697.066 494.422 692.845 512.595 694.169C529.2 695.411 544.883 700.955 560.104 706.499C574.864 711.878 589.808 717.505 605.675 719.822C622.28 722.222 639.07 720.401 655.029 716.015C674.125 710.719 691.837 702.279 709.272 693.756C710.84 693.011 709.457 690.859 707.888 691.604C675.97 707.078 640.915 723.38 603.462 716.926C572.189 711.547 544.698 694.169 512.503 691.687C493.868 690.28 475.234 694.666 459.644 703.768C458.26 704.679 459.644 706.83 461.12 705.92Z" fill="#E8E8E8"/>
<path d="M809.364 762.024C829.474 745.143 854.197 732.979 880.857 726.773C894.418 723.629 908.348 722.056 922.37 722.139C937.96 722.304 953.458 724.539 968.956 725.863C999.03 728.428 1027.9 723.877 1056.04 714.029C1082.88 704.679 1108.16 688.46 1137.04 684.488C1170.8 679.854 1196.91 699.962 1218.4 720.567C1219.6 721.725 1221.54 719.987 1220.34 718.829C1202.63 701.865 1181.78 684.322 1154.84 681.591C1125.32 678.612 1098.48 694.17 1072.83 704.844C1043.31 717.174 1011.48 725.614 978.735 723.959C962.406 723.132 946.263 720.484 929.842 719.739C915.912 719.077 901.89 719.987 888.237 722.553C858.072 728.097 829.935 741.171 807.426 760.121C806.135 761.362 808.072 763.1 809.364 762.024Z" fill="#E8E8E8"/>
<path d="M269.24 239.127C295.07 257.084 328.741 249.14 356.877 240.865C391.748 230.521 427.08 223.984 463.98 223.322C465.732 223.322 465.732 220.839 463.98 220.839C430.032 221.419 396.545 226.632 364.257 236.066C335.014 244.589 298.668 256.588 271.177 237.389C269.793 236.396 267.856 238.134 269.24 239.127Z" fill="#161616"/>
<path d="M517.946 88.6878C549.126 86.619 579.2 78.8405 609.366 72.3033C640.731 65.435 672.188 60.8838 704.568 64.0283C737.224 67.1728 768.866 76.027 800.877 82.316C831.688 88.4395 862.961 91.253 894.51 89.8463C930.027 88.274 965.082 81.5713 998.199 70.1518C999.86 69.5725 999.122 67.1728 997.461 67.752C937.222 88.5223 871.448 92.908 808.349 81.1575C776.892 75.2823 746.08 66.6763 714.254 62.5388C683.535 58.5668 653.553 60.801 623.295 66.759C588.24 73.6273 553.831 83.7228 517.946 86.1225C516.193 86.3708 516.193 88.8533 517.946 88.6878Z" fill="#161616"/>
<path d="M1017.2 296.059C1044.14 287.122 1072.09 299.866 1099.03 302.183C1113.51 303.424 1127.9 302.183 1142.02 299.204C1155.85 296.225 1169.32 291.839 1183.44 289.936C1198.57 287.867 1214.71 288.695 1227.81 296.39C1229.29 297.301 1230.67 295.149 1229.19 294.239C1205.95 280.668 1177.53 287.95 1152.99 294.073C1137.59 297.963 1122.18 300.776 1106.13 300.197C1090.82 299.7 1076.15 295.894 1061.21 293.08C1046.35 290.35 1031.04 288.86 1016.56 293.66C1014.8 294.156 1015.54 296.556 1017.2 296.059Z" fill="#161616"/>
<path d="M76.8985 547.123C100.33 528.421 133.355 544.971 159.37 548.53C189.444 552.667 219.517 545.22 248.207 538.02C249.96 537.607 249.222 535.207 247.469 535.621C215.735 543.565 182.894 551.426 149.96 544.392C125.883 539.262 96.4555 528.339 74.869 545.385C73.5775 546.378 75.5147 548.116 76.8985 547.123Z" fill="#161616"/>
<path d="M371.914 779.485C379.386 771.541 390.917 767.238 402.541 768.562C409.183 769.307 415.272 772.037 421.36 774.437C426.434 776.423 431.6 778.078 436.858 779.402C459.459 785.029 483.721 784.202 505.769 777.251C507.429 776.754 506.691 774.354 505.031 774.851C480.308 782.546 453.002 782.546 428.371 774.271C417.67 770.713 407.707 765.004 395.807 765.831C385.751 766.493 376.434 770.796 369.885 777.664C368.778 778.988 370.807 780.726 371.914 779.485Z" fill="#161616"/>
<path d="M528.923 772.699C545.713 768.313 562.964 766.162 580.491 766.245C582.244 766.245 582.244 763.762 580.491 763.762C562.779 763.679 545.252 765.914 528.185 770.299C526.525 770.796 527.171 773.196 528.923 772.699Z" fill="#161616"/>
<path d="M550.879 129.483C567.207 140.737 582.798 152.819 597.742 165.645C599.034 166.721 600.971 164.983 599.679 163.907C584.642 150.998 568.776 138.834 552.263 127.415C550.879 126.339 549.495 128.49 550.879 129.483Z" fill="#161616"/>
<path d="M390.917 173.093C392.486 165.314 394.146 157.536 395.714 149.675C396.083 148.102 393.408 147.44 393.039 149.013C391.471 156.791 389.81 164.57 388.242 172.431C387.965 174.003 390.641 174.665 390.917 173.093Z" fill="#161616"/>
<path d="M922.831 222.412C925.786 222.412 928.182 220.263 928.182 217.612C928.182 214.962 925.786 212.813 922.831 212.813C919.876 212.813 917.481 214.962 917.481 217.612C917.481 220.263 919.876 222.412 922.831 222.412Z" fill="#EC615B"/>
<path d="M223.76 618.784C227.276 618.784 230.126 616.228 230.126 613.074C230.126 609.921 227.276 607.365 223.76 607.365C220.245 607.365 217.395 609.921 217.395 613.074C217.395 616.228 220.245 618.784 223.76 618.784Z" fill="#EC615B"/>
<path d="M192.949 101.514C200.999 101.514 207.525 95.6603 207.525 88.4395C207.525 81.2186 200.999 75.365 192.949 75.365C184.899 75.365 178.374 81.2186 178.374 88.4395C178.374 95.6603 184.899 101.514 192.949 101.514Z" fill="#FBFD94"/>
<path d="M222.192 114.175C224.893 114.175 227.081 112.211 227.081 109.789C227.081 107.367 224.893 105.403 222.192 105.403C219.492 105.403 217.303 107.367 217.303 109.789C217.303 112.211 219.492 114.175 222.192 114.175Z" fill="#EC615B"/>
<path d="M501.525 850.236C507.537 850.236 512.411 845.864 512.411 840.471C512.411 835.079 507.537 830.707 501.525 830.707C495.513 830.707 490.64 835.079 490.64 840.471C490.64 845.864 495.513 850.236 501.525 850.236Z" fill="#EC615B"/>
<path d="M1007.42 118.561C1012.72 118.561 1017.02 114.707 1017.02 109.955C1017.02 105.202 1012.72 101.349 1007.42 101.349C1002.13 101.349 997.83 105.202 997.83 109.955C997.83 114.707 1002.13 118.561 1007.42 118.561Z" fill="#EC615B"/>
<path d="M1019.69 99.6107C1022.95 99.6107 1025.6 97.2396 1025.6 94.3147C1025.6 91.3898 1022.95 89.0187 1019.69 89.0187C1016.43 89.0187 1013.79 91.3898 1013.79 94.3147C1013.79 97.2396 1016.43 99.6107 1019.69 99.6107Z" fill="#EC615B"/>
<path d="M207.617 87.7775C215.667 87.7775 222.192 81.9238 222.192 74.703C222.192 67.4821 215.667 61.6285 207.617 61.6285C199.567 61.6285 193.041 67.4821 193.041 74.703C193.041 81.9238 199.567 87.7775 207.617 87.7775Z" fill="#EC615B"/>
<path d="M200.329 626.48C204.354 626.48 207.617 623.553 207.617 619.943C207.617 616.332 204.354 613.406 200.329 613.406C196.304 613.406 193.041 616.332 193.041 619.943C193.041 623.553 196.304 626.48 200.329 626.48Z" fill="#FBFD94"/>
<path d="M456.507 831.286C460.074 831.286 462.965 828.693 462.965 825.494C462.965 822.295 460.074 819.701 456.507 819.701C452.941 819.701 450.05 822.295 450.05 825.494C450.05 828.693 452.941 831.286 456.507 831.286Z" fill="#FBFD94"/>
<path d="M972 89.0187C980.458 89.0187 987.314 82.8687 987.314 75.2822C987.314 67.6957 980.458 61.5457 972 61.5457C963.543 61.5457 956.687 67.6957 956.687 75.2822C956.687 82.8687 963.543 89.0187 972 89.0187Z" fill="#FBFD94"/>
<path d="M719.881 297.052C721.715 297.052 723.202 295.719 723.202 294.073C723.202 292.428 721.715 291.094 719.881 291.094C718.047 291.094 716.56 292.428 716.56 294.073C716.56 295.719 718.047 297.052 719.881 297.052Z" fill="#FBFD94"/>
<path d="M685.841 119.719C683.904 123.774 682.059 127.911 680.121 131.966C679.476 133.455 682.151 134.117 682.797 132.628C684.734 128.573 686.579 124.436 688.516 120.381C689.162 118.891 686.487 118.229 685.841 119.719Z" fill="#FBFD94"/>
<path d="M685.38 121.705C688.793 124.932 691.468 128.573 693.221 132.711C693.866 134.2 696.542 133.538 695.896 132.049C693.866 127.498 691.007 123.526 687.317 119.967C686.117 118.809 684.088 120.547 685.38 121.705Z" fill="#FBFD94"/>
<path d="M680.859 134.117C683.535 138.586 686.579 142.806 689.992 146.778C691.099 148.019 693.497 146.778 692.39 145.537C688.977 141.482 685.933 137.262 683.258 132.876C682.335 131.469 680.029 132.711 680.859 134.117Z" fill="#FBFD94"/>
<path d="M693.405 132.876C692.298 137.51 691.284 142.144 690.177 146.778C689.808 148.35 692.483 149.012 692.852 147.44C693.959 142.806 694.974 138.172 696.081 133.538C696.45 132.049 693.774 131.387 693.405 132.876Z" fill="#FBFD94"/>
<path d="M945.709 473.972C943.495 477.613 942.019 481.502 941.373 485.64C941.096 487.212 943.772 487.874 944.048 486.301C944.694 482.412 945.986 478.771 948.108 475.296C948.938 473.806 946.539 472.565 945.709 473.972Z" fill="#FBFD94"/>
<path d="M945.524 474.716C947.369 479.102 949.491 483.323 951.89 487.377C952.72 488.784 955.119 487.543 954.288 486.136C951.982 482.247 949.952 478.192 948.2 474.054C947.554 472.565 944.879 473.227 945.524 474.716Z" fill="#FBFD94"/>
<path d="M940.82 487.377C943.218 490.439 945.525 493.501 947.923 496.562C948.938 497.886 951.336 496.645 950.322 495.321C947.923 492.259 945.617 489.198 943.218 486.136C942.203 484.812 939.805 486.053 940.82 487.377Z" fill="#FBFD94"/>
<path d="M950.875 486.963C948.938 489.363 948.015 492.094 948.015 494.99C948.015 496.562 950.783 496.562 950.783 494.99C950.783 492.508 951.613 490.191 953.273 488.205C954.288 486.881 951.89 485.64 950.875 486.963Z" fill="#FBFD94"/>
<path d="M174.038 708.237C171.547 713.119 169.056 717.919 166.565 722.801C165.827 724.208 168.226 725.532 168.964 724.042C171.455 719.16 173.946 714.36 176.436 709.478C177.174 708.071 174.868 706.83 174.038 708.237Z" fill="#FBFD94"/>
<path d="M174.499 708.899C176.898 714.029 179.296 719.16 181.695 724.29C182.34 725.78 185.016 725.118 184.37 723.628C181.971 718.498 179.573 713.367 177.174 708.237C176.529 706.747 173.853 707.409 174.499 708.899Z" fill="#FBFD94"/>
<path d="M165.92 725.035C168.411 729.421 170.809 733.89 173.3 738.275C173.761 739.02 174.868 739.02 175.514 738.524C177.451 737.117 178.374 734.717 179.388 732.814C180.864 730.166 182.34 727.518 183.816 724.87C184.647 723.463 182.248 722.222 181.418 723.629C180.126 725.946 178.743 728.263 177.451 730.58C176.344 732.566 175.329 735.296 173.392 736.703C174.13 736.786 174.868 736.869 175.606 736.951C173.115 732.566 170.717 728.097 168.226 723.711C167.488 722.387 165.09 723.629 165.92 725.035Z" fill="#FBFD94"/>
<path d="M1102.53 323.615C1099.67 328.497 1097.92 333.628 1097.09 339.089C1096.81 340.661 1099.58 340.661 1099.86 339.089C1100.6 334.041 1102.26 329.325 1104.84 324.856C1105.76 323.449 1103.36 322.208 1102.53 323.615Z" fill="#FBFD94"/>
<path d="M1102.16 326.511C1105.02 331.476 1107.79 336.441 1110.65 341.406C1111.48 342.813 1113.88 341.572 1113.05 340.165C1110.19 335.2 1107.42 330.235 1104.56 325.27C1103.73 323.863 1101.33 325.104 1102.16 326.511Z" fill="#FBFD94"/>
<path d="M1097.28 339.42C1099.58 344.385 1102.35 349.019 1105.67 353.405C1106.69 354.729 1109.08 353.488 1108.07 352.164C1104.84 347.943 1102.07 343.475 1099.95 338.758C1099.31 337.351 1096.63 338.013 1097.28 339.42Z" fill="#FBFD94"/>
<path d="M1109.82 340.496C1108.16 345.13 1106.78 349.847 1105.86 354.729C1105.58 356.301 1108.25 356.963 1108.53 355.391C1109.45 350.591 1110.74 345.875 1112.5 341.158C1113.05 339.668 1110.38 339.006 1109.82 340.496Z" fill="#FBFD94"/>
<path d="M1091.83 725.366C1090.73 728.676 1089.71 731.904 1088.6 735.214C1088.14 736.786 1090.73 737.365 1091.28 735.876C1092.39 732.566 1093.4 729.338 1094.51 726.028C1095.06 724.456 1092.39 723.794 1091.83 725.366Z" fill="#FBFD94"/>
<path d="M1091.65 727.187C1093.31 730.497 1095.06 733.807 1096.72 737.034C1097.46 738.524 1099.86 737.2 1099.12 735.793C1097.46 732.483 1095.71 729.173 1094.05 725.946C1093.31 724.456 1090.91 725.697 1091.65 727.187Z" fill="#FBFD94"/>
<path d="M1089.34 736.786C1090.17 740.675 1092.2 744.15 1095.06 747.129C1096.26 748.371 1098.2 746.55 1097 745.392C1094.42 742.744 1092.76 739.599 1092.02 736.206C1091.65 734.551 1088.97 735.213 1089.34 736.786Z" fill="#FBFD94"/>
<path d="M1096.63 736.455C1095.43 739.93 1094.88 743.488 1094.97 747.047C1095.06 748.619 1097.83 748.619 1097.74 747.047C1097.64 743.654 1098.11 740.344 1099.31 737.117C1099.86 735.627 1097.18 734.965 1096.63 736.455Z" fill="#FBFD94"/>
<path d="M139.26 288.777C137.23 292.749 135.293 296.721 133.263 300.693C132.525 302.1 134.924 303.424 135.662 301.934C137.691 297.962 139.628 293.99 141.658 290.018C142.396 288.612 139.998 287.288 139.26 288.777Z" fill="#FBFD94"/>
<path d="M133.632 302.762C135.754 307.644 137.784 312.444 139.905 317.326C140.551 318.816 143.226 318.154 142.581 316.664C140.459 311.782 138.429 306.982 136.308 302.1C135.662 300.611 132.987 301.273 133.632 302.762Z" fill="#FBFD94"/>
<path d="M139.26 288.943C142.119 293.411 144.979 297.962 147.839 302.431C148.761 303.838 151.068 302.596 150.237 301.19C147.378 296.721 144.518 292.17 141.658 287.701C140.736 286.295 138.337 287.536 139.26 288.943Z" fill="#FBFD94"/>
<path d="M148.485 301.355C145.533 306.32 142.95 311.451 140.736 316.664C140.09 318.153 142.765 318.815 143.411 317.326C145.533 312.278 148.023 307.313 150.883 302.597C151.713 301.19 149.315 299.949 148.485 301.355Z" fill="#FBFD94"/>
<path d="M834.64 365.073C836.485 361.928 839.99 359.777 844.049 359.942C847.37 360.025 849.861 362.094 852.813 363.087C857.979 364.742 859.547 361.763 863.422 359.528C868.68 356.384 873.754 363.418 879.381 363.335C882.61 363.252 885.285 361.845 885.378 358.784C884.64 359.115 883.994 359.528 883.256 359.859C886.115 361.183 888.975 362.507 891.743 363.914C893.311 364.659 894.695 362.507 893.127 361.763C890.267 360.439 887.407 359.115 884.639 357.708C883.717 357.294 882.61 357.791 882.518 358.784C882.241 364.659 869.51 356.301 867.112 356.053C861.669 355.391 859.548 361.432 854.843 360.77C849.861 360.025 846.725 356.798 841.374 357.625C837.315 358.287 833.994 360.521 832.149 363.831C831.503 365.238 833.81 366.479 834.64 365.073Z" fill="#FBFD94"/>
<path d="M869.972 348.274C874.123 344.137 880.673 349.35 885.377 349.847C890.82 350.426 895.064 345.213 900.322 347.861C904.658 350.095 912.591 355.391 915.728 348.605C916.373 347.116 913.698 346.454 913.052 347.943C910.838 352.743 902.905 346.04 900.23 345.047C896.632 343.64 894.233 344.799 891.005 346.206C887.13 347.861 884.363 347.281 880.673 345.792C879.012 345.13 877.352 344.551 875.507 344.302C872.647 343.972 870.064 344.468 868.034 346.454C866.835 347.695 868.772 349.433 869.972 348.274Z" fill="#FBFD94"/>
<path d="M795.065 153.067C796.356 150.916 797.832 150.336 799.493 151.329C800.231 151.578 800.969 151.909 801.707 152.323C802.537 152.654 803.367 153.15 804.198 153.398C805.674 153.812 807.15 153.978 808.626 153.647C812.592 152.654 814.622 148.185 818.865 148.268C822.832 148.351 825.692 151.743 829.843 150.006C831.596 149.261 832.795 147.937 834.456 147.109C838.146 145.289 842.666 145.951 845.802 148.268C847.186 149.261 849.123 147.523 847.74 146.53C843.588 143.468 837.869 142.558 833.072 144.958C830.95 146.034 829.197 148.351 826.43 148.02C824.862 147.854 823.478 146.861 822.002 146.365C819.788 145.62 817.758 145.372 815.544 146.282C812.777 147.44 810.932 150.668 807.888 151.247C804.013 151.992 801.43 148.433 797.832 148.351C794.419 148.268 790.452 151.247 792.759 154.309C793.681 155.633 796.08 154.391 795.065 153.067Z" fill="#EC615B"/>
<path d="M825.692 138.42C826.799 133.042 837.223 138.255 840.913 137.676C843.312 137.345 845.064 135.855 847.278 135.11C850.784 133.869 854.197 134.366 857.426 136.103C858.994 136.931 860.378 134.779 858.81 133.952C856.042 132.462 853.09 131.718 849.954 131.966C848.57 132.049 847.278 132.38 846.079 132.793C842.389 134.2 840.913 135.772 836.301 134.779C831.873 133.786 824.308 131.8 823.109 137.758C822.647 139.331 825.323 139.993 825.692 138.42Z" fill="#EC615B"/>
<path d="M127.267 437.479C128.466 432.266 136.492 439.382 138.06 440.293C139.813 441.368 141.75 442.113 143.872 441.699C146.64 441.286 148.761 439.217 151.621 438.638C156.234 437.727 160.846 439.051 164.167 442.03C165.459 443.189 167.396 441.368 166.104 440.293C163.245 437.727 159.739 436.155 155.68 435.907C153.651 435.741 151.621 435.99 149.684 436.569C146.64 437.479 144.241 440.127 140.551 438.803C136.677 437.396 135.201 433.838 130.773 433.424C127.913 433.176 125.238 434.169 124.684 436.817C124.223 438.389 126.898 439.051 127.267 437.479Z" fill="#EC615B"/>
<path d="M157.986 431.521C160.016 429.039 169.333 434.003 172.008 434.583C176.344 435.493 180.772 435.493 185.2 434.997C186.953 434.748 186.215 432.349 184.462 432.597C176.805 433.507 170.901 431.686 163.983 429.204C160.846 428.128 157.71 427.715 155.588 430.28C154.573 431.521 156.972 432.762 157.986 431.521Z" fill="#EC615B"/>
<path d="M382.892 604.965C384.368 602.896 386.674 601.572 389.534 601.572C391.932 601.572 393.408 602.896 395.53 603.476C397.652 604.138 399.405 603.724 401.25 602.648C404.847 600.497 406.6 597.849 411.489 598.014C415.917 598.097 420.161 600 424.035 601.738C425.604 602.483 426.987 600.331 425.419 599.586C418.131 596.276 409.275 593.132 402.264 598.511C400.696 599.669 400.512 600 398.113 600.414C395.438 600.91 395.715 600.579 393.685 599.835C391.932 599.173 390.272 598.924 388.335 599.09C384.921 599.421 382.246 601.159 380.493 603.641C379.571 605.048 381.969 606.289 382.892 604.965Z" fill="#EC615B"/>
<path d="M413.611 609.764C417.947 606.372 426.157 613.488 431.508 612.826C434.736 612.412 436.212 610.261 438.334 608.275C442.393 604.386 448.482 603.806 453.463 606.703C454.939 607.53 456.323 605.461 454.847 604.551C451.249 602.482 447.006 601.82 442.854 602.896C441.009 603.393 439.349 604.137 437.873 605.213C435.659 606.868 434.275 609.847 431.139 610.344C424.404 611.419 418.039 602.979 411.674 608.027C410.382 609.102 412.32 610.84 413.611 609.764Z" fill="#EC615B"/>
<path d="M287.782 79.006C288.52 76.2752 290.273 74.1237 293.225 72.9652C295.808 71.9722 297.93 72.6342 300.605 72.5515C303.557 72.386 305.771 71.062 307.524 69.076C310.199 66.097 311.952 63.0352 315.734 61.0492C320.07 58.815 325.051 58.4013 329.848 59.7253C331.601 60.2218 332.247 57.822 330.586 57.3255C321.73 54.9257 312.966 57.9875 307.616 64.6902C305.494 67.3382 303.926 69.9862 299.867 70.069C297.376 70.1517 295.254 69.6552 292.856 70.4C288.797 71.6412 286.029 74.703 285.107 78.344C284.646 79.9162 287.321 80.5782 287.782 79.006Z" fill="#EC615B"/>
<path d="M300.789 88.5222C296.823 79.0887 315.826 79.5852 321.546 77.7647C328.649 75.5304 334.737 71.5585 340.734 67.5865C342.117 66.6762 340.734 64.5247 339.35 65.435C335.291 68.1657 331.14 70.8137 326.712 72.9652C321.177 75.6132 315.918 76.4407 309.922 77.2682C303.557 78.1785 295.254 82.1505 298.206 89.1015C298.76 90.591 301.435 90.0117 300.789 88.5222Z" fill="#EC615B"/>
<path d="M668.682 562.928C675.693 546.461 687.594 535.703 699.863 524.532C716.007 509.885 745.988 482.661 776.523 486.964C802.537 490.605 799.677 513.03 835.378 529.331C869.049 544.806 881.964 529.497 915.543 546.13C920.525 548.612 955.672 566.569 963.698 600.496C967.019 614.564 966.188 633.845 959.27 635.665C951.428 637.734 948.753 597.187 917.388 581.299C893.403 569.134 860.378 575.009 857.703 583.698C854.843 592.883 887.96 598.924 906.687 630.866C914.897 644.768 916.65 657.429 919.141 674.806C921.447 691.19 924.03 724.787 915.543 726.773C908.532 728.428 904.75 706.003 879.012 687.632C865.451 677.95 850.968 673.978 822.002 666.034C795.895 658.918 782.703 655.442 775.6 661.235C765.084 669.841 773.202 691.687 774.678 695.576C785.01 723.38 811.393 734.965 809.456 737.944C806.873 741.668 758.718 730.91 719.42 696.404C685.841 666.862 648.295 610.675 668.682 562.928Z" fill="#E8EB75"/>
<path d="M969.879 658.835C969.51 661.152 967.572 674.061 976.059 682.336C985.469 691.439 996.908 684.488 1008.44 693.507C1019.05 701.782 1017.66 714.195 1020.89 713.947C1024.58 713.698 1030.21 696.9 1022.28 686.722C1019.79 683.495 1013.7 680.598 1001.61 674.971C989.251 669.179 987.591 669.427 984.362 666.283C976.336 658.504 977.535 648.326 974.676 648.326C972.462 648.326 970.524 654.449 969.879 658.835Z" fill="#EC615B"/>
<path d="M890.544 755.984C885.378 762.935 885.931 770.382 886.392 778.244C886.946 786.27 887.315 792.808 892.573 798.683C898.569 805.386 908.532 808.199 909.824 806.71C910.839 805.551 906.318 802.407 902.259 795.538C901.798 794.711 895.802 784.533 896.079 772.617C896.355 757.722 906.134 748.867 903.643 747.295C901.798 746.054 894.695 750.357 890.544 755.984Z" fill="#EC615B"/>
<path d="M927.536 618.784C943.034 627.97 934.547 649.236 944.694 661.649C945.709 662.89 948.108 661.649 947.093 660.408C936.576 647.499 945.524 626.48 928.919 616.633C927.443 615.723 926.06 617.874 927.536 618.784Z" fill="#EC615B"/>
<path d="M922.001 558.873C938.606 570.293 950.137 586.595 954.749 604.882C955.118 606.455 957.794 605.792 957.425 604.22C952.628 585.27 940.635 568.555 923.477 556.805C921.909 555.729 920.525 557.88 922.001 558.873Z" fill="#D22020"/>
<path d="M868.496 604.717C881.78 614.481 892.204 626.977 898.662 641.292C899.307 642.782 901.983 642.12 901.337 640.63C894.603 625.901 884.178 613.074 870.433 602.979C869.142 601.986 867.112 603.724 868.496 604.717Z" fill="#D22020"/>
<path d="M905.119 654.946C907.61 660.904 909.27 666.945 909.916 673.234C910.1 674.806 912.868 674.806 912.683 673.234C911.945 666.696 910.285 660.407 907.702 654.284C907.241 652.794 904.565 653.456 905.119 654.946Z" fill="#D22020"/>
<path d="M763.146 668.682C760.84 681.178 763.515 693.673 771.08 704.43C772.002 705.754 774.401 704.513 773.478 703.189C766.375 693.094 763.608 681.178 765.822 669.344C766.098 667.772 763.423 667.11 763.146 668.682Z" fill="#D22020"/>
<path d="M774.77 711.216C778.091 716.678 782.334 721.56 787.408 725.78C788.699 726.856 790.637 725.118 789.345 724.042C784.456 719.905 780.397 715.188 777.168 709.975C776.338 708.568 773.939 709.809 774.77 711.216Z" fill="#D22020"/>
<path d="M668.867 585.105C668.129 592.966 668.959 600.745 671.45 608.358C671.911 609.93 674.586 609.268 674.125 607.696C671.727 600.248 670.896 592.801 671.634 585.105C671.819 583.533 669.051 583.533 668.867 585.105Z" fill="#D22020"/>
<path d="M674.217 616.798C675.693 623.253 678.369 629.211 682.243 634.838C683.166 636.162 685.564 634.92 684.642 633.596C680.952 628.135 678.369 622.425 676.893 616.136C676.524 614.647 673.848 615.309 674.217 616.798Z" fill="#D22020"/>
<path d="M433.353 99.528C430.77 105.817 427.633 114.423 424.589 124.85C421.452 135.69 414.072 164.239 414.81 201.807C415.548 238.052 423.482 264.697 430.77 288.446C442.116 325.518 455.954 352.164 464.164 367.638C464.164 367.638 490.271 417.205 533.536 470.331C541.193 479.681 550.971 491.515 550.971 491.515C558.075 500.038 564.163 507.154 568.407 512.285C571.82 515.76 576.156 519.65 581.783 523.374C592.299 530.407 602.724 533.966 610.011 535.786C622.004 526.601 633.996 517.333 645.989 508.147C651.432 512.781 656.967 517.333 662.409 521.967C669.974 515.016 676.708 509.472 681.966 505.417C704.844 487.626 723.756 478.523 728.184 476.371C731.966 474.551 735.195 473.144 737.409 472.234C733.995 466.11 730.582 459.987 727.169 453.781C732.704 449.478 739.069 444.927 746.172 440.458C755.766 434.417 764.991 429.535 773.386 425.729C773.294 418.778 772.279 408.268 767.205 396.683C763.423 387.994 758.903 382.119 756.966 379.637C735.656 352.081 798.478 428.046 716.376 322.953C684.549 282.24 668.682 261.801 661.395 253.36C638.609 226.632 620.712 208.344 607.982 195.353C583.628 170.445 572.65 161.177 563.794 154.391C551.709 144.958 538.333 134.78 518.13 125.346C505.4 119.471 494.883 116.244 479.57 111.527C460.658 105.734 444.699 101.928 433.353 99.528Z" fill="white"/>
<path d="M430.493 101.018C410.474 156.377 410.474 216.123 424.865 272.558C428.463 286.709 432.983 300.693 438.334 314.347C441.009 321.298 444.238 328.084 447.098 334.952C448.112 337.352 448.297 339.751 449.496 342.151C451.249 345.875 453.094 349.599 454.939 353.322C458.352 360.273 461.95 367.142 465.732 374.01C469.514 380.795 474.127 387.25 477.54 394.118C478.832 396.683 479.939 399.414 481.415 401.897C483.352 405.041 486.212 407.441 488.241 410.503C492.485 416.874 496.544 423.412 500.972 429.701C521.174 458.911 544.145 486.467 567.668 513.526C568.775 514.768 570.713 513.03 569.606 511.789C548.85 487.874 528.555 463.628 510.289 438.224C505.769 431.935 501.433 425.646 497.189 419.191C495.16 416.13 493.13 412.985 491.193 409.841C489.256 406.779 486.673 404.627 484.643 401.648C482.983 399.166 481.784 396.518 480.584 393.87C478.924 390.312 476.71 387.084 474.68 383.692C470.806 377.32 467.208 370.865 463.795 364.328C460.197 357.46 456.784 350.509 453.371 343.558C451.895 340.496 451.341 337.269 449.957 334.124C448.481 330.732 446.913 327.339 445.437 323.863C439.81 310.541 434.921 296.97 430.862 283.15C422.744 255.181 418.039 226.467 417.578 197.504C417.116 164.983 422.098 132.463 433.352 101.431C433.629 100.19 430.954 99.528 430.493 101.018Z" fill="black"/>
<path d="M431.784 101.018C447.19 102.093 462.873 106.893 477.356 111.444C491.655 115.995 505.769 120.96 518.868 127.746C544.975 141.317 568.038 159.108 589.071 178.472C610.749 198.414 630.491 220.343 649.587 242.272C668.59 264.118 686.763 286.709 704.291 309.548C723.663 334.952 742.298 360.853 760.563 387.002C761.486 388.326 763.884 387.084 762.962 385.76C729.475 338.014 694.881 290.846 656.413 246.161C619.236 202.883 579.384 158.694 527.171 129.318C512.964 121.291 497.743 115.499 482.061 110.286C466.194 105.072 448.851 99.6935 431.877 98.4523C430.032 98.4523 430.032 100.935 431.784 101.018Z" fill="black"/>
<path d="M571.635 512.782C614.624 473.475 662.963 438.968 715.269 410.171C730.029 402.062 744.973 394.449 760.287 387.333C761.855 386.588 760.471 384.436 758.903 385.181C704.568 410.668 653.646 442.03 607.797 478.523C594.698 488.95 581.967 499.79 569.698 511.044C568.407 512.202 570.344 513.94 571.635 512.782Z" fill="black"/>
<path d="M568.96 514.685C579.938 525.691 594.236 533.469 610.196 536.945C611.948 537.358 612.686 534.959 610.934 534.545C595.343 531.069 581.598 523.622 570.897 512.864C569.698 511.706 567.761 513.526 568.96 514.685Z" fill="black"/>
<path d="M759.825 387.994C767.021 399.331 771.172 411.826 772.095 424.818C772.187 426.39 774.954 426.39 774.862 424.818C773.94 411.33 769.604 398.504 762.224 386.753C761.394 385.346 758.995 386.588 759.825 387.994Z" fill="black"/>
<path d="M611.856 536.282C661.764 495.404 715.822 458.828 773.478 427.135C774.954 426.308 773.571 424.156 772.095 424.984C714.346 456.76 660.011 493.501 609.919 534.545C608.628 535.621 610.565 537.358 611.856 536.282Z" fill="black"/>
<path d="M646.635 509.637C651.708 514.105 656.782 518.574 661.856 523.125C662.409 523.622 663.332 523.622 663.793 523.125C678.738 508.892 695.527 496.314 713.885 485.805C718.313 483.24 722.833 480.84 727.446 478.523C730.398 477.034 736.025 475.627 737.778 472.813C739.623 470 736.855 466.193 735.379 463.794C732.796 459.573 729.752 455.684 726.431 452.043C725.324 450.802 723.387 452.539 724.493 453.781C727.722 457.339 730.582 461.063 732.981 465.035C733.534 465.862 734.733 467.269 734.826 468.262C734.457 469.751 734.087 471.158 733.718 472.648C733.257 472.896 732.796 473.062 732.335 473.31C730.49 474.551 728.091 475.296 726.062 476.371C718.036 480.426 710.195 484.812 702.63 489.529C687.87 498.88 674.217 509.554 661.856 521.305C662.502 521.305 663.147 521.305 663.793 521.305C658.719 516.836 653.646 512.368 648.572 507.816C647.28 506.741 645.343 508.478 646.635 509.637Z" fill="black"/>
<path d="M437.042 305.658C459.736 281.661 486.304 260.891 513.518 241.113C540.824 221.336 569.421 202.8 601.432 189.643C603.093 188.981 601.617 186.829 600.048 187.491C568.314 200.483 539.994 218.854 512.872 238.383C485.197 258.408 458.168 279.509 435.105 303.838C433.906 305.162 435.843 306.9 437.042 305.658Z" fill="black"/>
<path d="M601.986 201.228C598.941 201.393 597.65 196.842 601.063 196.594C602.262 196.511 603.646 197.008 604.107 198.083C604.753 199.656 603.092 201.311 601.34 201.311C600.048 201.311 599.956 203.214 601.34 203.214C604.199 203.214 606.69 200.814 606.229 198.249C605.86 196.097 603.369 194.773 601.063 194.856C598.572 195.022 596.635 196.842 596.912 199.076C597.189 201.311 599.403 203.379 601.986 203.214C603.369 203.048 603.369 201.145 601.986 201.228Z" fill="black"/>
<path d="M742.851 384.271C742.944 384.271 742.944 384.271 743.036 384.188C742.759 384.188 742.482 384.105 742.205 384.105C743.22 384.519 742.667 382.781 742.575 382.533C742.575 382.285 742.667 381.954 742.759 381.706C743.036 381.209 743.497 380.713 744.05 380.464C745.25 379.968 746.541 380.795 746.91 381.871C747.648 384.023 744.143 385.098 743.22 383.195C742.667 382.119 740.914 383.029 741.468 384.105C742.575 386.422 746.357 386.588 748.202 384.85C750.323 382.781 748.755 379.306 745.895 378.561C742.851 377.816 739.899 380.713 740.637 383.361C740.914 384.436 742.482 385.76 743.682 384.684C744.604 383.857 743.682 382.037 742.298 382.533C741.099 382.947 741.652 384.684 742.851 384.271Z" fill="black"/>
<path opacity="0.15" d="M433.352 100.025C447.928 108.465 467.669 120.878 489.256 137.51C502.632 147.854 537.318 175.575 580.676 229.363C627.723 287.702 651.247 316.83 655.952 349.35C658.35 366.314 661.671 414.64 614.162 474.055C633.812 460.649 653.553 447.161 673.202 433.755C681.782 446.416 690.269 459.077 698.848 471.738C689.623 477.861 680.398 483.902 671.173 490.025C675.693 494.908 680.213 499.707 684.734 504.589C690.269 499.79 696.911 494.659 704.567 489.612C716.375 481.833 727.722 476.289 737.501 472.234C733.811 465.862 730.213 459.408 726.523 453.036C742.39 443.685 758.257 434.252 774.124 424.901C773.294 417.867 771.356 407.689 766.283 396.27C760.379 382.864 752.906 373.927 750.047 370.452C729.383 345.378 739.438 351.419 696.173 296.887C665.084 257.663 647.926 235.735 620.435 207.351C602.816 189.146 591.1 177.148 572.373 162.335C552.447 146.53 528.278 127.746 491.378 114.009C467.854 105.403 447.19 101.762 433.352 100.025Z" fill="#494949"/>
<path opacity="0.11" d="M729.567 340.413C728.737 345.709 727.077 353.819 722.925 363.004C713.331 384.271 698.571 393.539 667.76 421.508C653.184 434.748 631.506 454.36 633.535 456.512C635.472 458.58 659.181 442.196 700.601 417.702C724.863 403.303 745.25 392.132 758.626 384.85C748.94 370.038 739.254 355.226 729.567 340.413Z" fill="#494949"/>
<path opacity="0.08" d="M760.563 387.333C759.272 387.581 762.408 396.601 758.626 407.855C755.858 416.13 751.154 420.102 739.622 432.597C734.641 437.976 727.353 446.085 718.682 456.512C736.763 445.423 754.844 434.335 772.925 423.246C764.714 393.953 761.67 387.167 760.563 387.333Z" fill="#494949"/>
<path d="M604.753 658.173C605.03 660.573 606.045 662.476 607.613 664.793C614.255 674.392 625.232 680.267 633.166 683.66C630.029 692.515 626.247 705.258 623.48 720.815C620.897 735.793 617.852 753.253 621.819 754.412C623.203 754.825 627.262 753.667 664.992 686.639C670.25 677.289 674.586 669.51 677.446 664.214C657.335 656.104 637.317 647.912 617.207 639.803C615.269 641.127 603.738 648.657 604.753 658.173Z" fill="#161616" stroke="#161616" stroke-width="2" stroke-miterlimit="10"/>
<path d="M562.687 475.13C545.713 485.722 534.735 495.983 524.957 505.251C520.99 508.975 501.987 527.097 481.968 555.563C473.112 568.141 466.563 579.23 462.042 587.588C462.596 590.98 463.887 595.863 467.301 600.745C471.083 606.206 475.326 608.606 481.968 613.902C490.086 620.357 493.038 624.163 497.743 628.466C506.876 636.907 519.699 643.278 544.975 655.774C576.709 671.413 593.775 677.123 599.033 678.861C605.491 680.93 610.934 682.502 614.808 683.578C616.653 675.882 618.867 667.69 621.635 659.084C624.125 651.388 626.801 644.189 629.476 637.486C609.827 624.577 589.624 610.096 569.145 593.711C562.041 588.084 555.215 582.374 548.665 576.747C555.307 569.548 564.624 560.115 576.432 549.936C579.846 546.957 587.041 540.834 595.805 534.379C606.875 526.353 623.572 515.595 646.635 505.665C650.601 481.916 645.897 459.739 631.413 452.539C613.332 443.602 585.842 460.732 562.687 475.13Z" fill="white"/>
<path d="M544.053 487.46C511.396 512.285 484.367 542.985 465.179 577.327C463.241 580.885 460.474 584.857 460.105 588.829C459.736 593.049 462.596 596.276 465.179 599.504C471.359 607.034 478.37 614.068 485.843 620.605C501.71 634.259 519.975 645.513 539.163 655.029C562.779 666.779 587.779 676.13 612.687 685.398C614.347 685.977 615.085 683.578 613.425 682.998C572.65 667.772 531.045 652.215 497.005 626.315C489.348 620.439 482.06 614.15 475.511 607.282C472.097 603.641 468.684 599.917 465.732 596.028C463.887 593.628 462.503 591.394 462.965 588.332C463.426 585.353 465.363 582.54 466.839 579.809C475.695 563.673 486.304 548.364 498.481 534.048C512.411 517.581 528.37 502.603 545.99 489.281C547.374 488.205 545.436 486.467 544.053 487.46Z" fill="black"/>
<path d="M622.281 516.009C590.639 534.379 562.964 557.632 540.547 584.774C539.532 586.098 541.931 587.339 542.946 586.015C565.086 559.204 592.484 536.2 623.664 518.077C625.14 517.333 623.757 515.181 622.281 516.009Z" fill="black"/>
<path d="M547.097 577.989C573.019 599.007 599.679 619.198 627.17 638.479C628.553 639.472 630.491 637.734 629.107 636.741C601.617 617.46 574.864 597.269 549.034 576.251C547.743 575.175 545.805 576.913 547.097 577.989Z" fill="black"/>
<path d="M627.262 638.148C621.45 652.877 616.93 667.938 613.609 683.247C613.24 684.819 615.915 685.481 616.284 683.909C619.605 668.6 624.218 653.539 629.937 638.81C630.491 637.32 627.815 636.658 627.262 638.148Z" fill="black"/>
<path opacity="0.11" d="M598.388 506.741C585.657 507.734 576.063 516.092 546.451 552.998C535.104 567.148 525.603 579.478 518.315 589.243C528.831 595.863 537.134 601.324 542.392 604.882C571.82 624.66 584.181 635.748 609.181 647.829C614.624 650.477 619.144 652.381 621.819 653.456C623.941 648.243 626.063 643.03 628.092 637.817C621.081 632.355 614.07 626.977 606.967 621.515C587.41 606.62 568.037 592.222 548.757 578.237C556.783 568.141 564.348 560.528 569.883 555.315C586.211 540.006 602.447 529.663 615.085 521.719C619.421 518.988 623.111 516.836 625.509 515.43C613.609 507.237 604.292 506.244 598.388 506.741Z" fill="#494949"/>
<path opacity="0.08" d="M602.078 528.339C594.144 529.994 583.535 533.221 572.742 539.675C546.359 555.48 537.503 579.644 534.92 587.919C549.126 597.849 563.794 607.861 579.015 617.874C593.775 627.638 608.443 636.907 622.742 645.844C624.863 643.113 626.985 640.299 629.015 637.569C609.365 624.742 588.978 609.93 568.591 592.966C562.133 587.67 555.953 582.291 550.049 576.995C553.278 573.189 556.783 569.3 560.473 565.328C574.31 550.598 588.517 538.434 602.078 528.339Z" fill="#494949"/>
<path d="M776.707 631.114C786.485 639.389 796.356 647.747 806.135 656.022C803.552 708.816 808.441 721.229 813.607 722.139C821.633 723.546 835.378 698.638 841.374 679.026C845.895 664.131 846.356 651.057 845.894 642.202C830.581 629.955 815.267 617.708 799.954 605.379C792.205 613.985 784.456 622.591 776.707 631.114Z" fill="#161616" stroke="#161616" stroke-width="2" stroke-miterlimit="10"/>
<path d="M584.735 482.247C585.565 495.983 596.266 504.341 596.266 504.341C602.908 509.554 610.38 510.961 614.07 511.375C617.022 512.451 619.974 513.609 623.018 514.685C627.631 520.643 634.457 529.083 643.498 538.682C655.49 551.591 671.634 566.983 711.117 596.111C730.582 610.426 755.674 628.052 786.024 647.416C790.36 645.512 795.526 642.699 800.692 638.561C812.039 629.542 817.297 619.032 819.696 613.074C814.345 608.44 806.412 601.49 797.187 592.884C756.228 554.901 728.921 522.38 708.073 497.39C694.328 480.923 676.708 458.994 657.243 432.514C612.687 443.437 583.628 464.621 584.735 482.247Z" fill="white"/>
<path d="M599.034 507.486C606.414 509.803 613.701 512.037 621.081 514.354C622.742 514.85 623.48 512.45 621.819 511.954C614.439 509.637 607.152 507.403 599.772 505.086C598.111 504.589 597.373 506.989 599.034 507.486Z" fill="black"/>
<path d="M618.037 511.871C652.723 554.653 697.649 589.243 744.235 621.267C757.611 630.452 771.172 639.555 784.733 648.574C786.209 649.567 787.5 647.333 786.116 646.423C739.438 615.391 692.483 583.947 652.815 545.716C641.284 534.628 630.491 522.877 620.528 510.63C619.421 509.389 617.022 510.63 618.037 511.871Z" fill="black"/>
<path d="M672.464 454.194C705.121 499.128 741.929 541.496 782.519 580.885C794.235 592.304 806.319 603.393 818.589 614.233C819.88 615.392 821.817 613.571 820.526 612.495C777.814 574.927 738.7 534.131 703.645 490.687C693.682 478.358 684.088 465.779 674.771 452.953C673.848 451.629 671.45 452.87 672.464 454.194Z" fill="black"/>
<path d="M817.02 612.661C811.67 626.894 801.338 640.134 785.748 646.423C784.087 647.085 785.563 649.236 787.131 648.574C803.367 642.037 814.068 628.135 819.603 613.323C820.249 611.833 817.574 611.171 817.02 612.661Z" fill="black"/>
<path opacity="0.09" d="M672.557 452.87C667.299 446.499 662.87 441.285 659.918 437.893C656.966 442.775 652.907 450.967 652.538 461.145C651.708 484.15 670.527 493.997 724.493 547.619C748.017 570.955 760.471 585.022 790.821 612.826C797.924 619.281 803.921 624.659 808.256 628.466C811.577 623.253 814.898 618.039 818.312 612.826C789.068 586.512 765.914 562.762 748.571 543.978C731.874 525.856 716.929 509.637 701.523 489.446C697.557 484.398 687.501 470.91 672.557 452.87Z" fill="#494949"/>
<path opacity="0.09" d="M688.885 476.123C690.177 481.833 692.852 491.515 698.11 502.769C713.331 534.876 735.84 548.447 776.338 588.58C784.087 596.276 796.08 608.44 810.102 624.163C813.33 620.025 816.559 615.971 819.788 611.833C816.836 609.351 812.131 605.461 806.412 600.496C795.895 591.394 767.39 565.99 712.962 504.01C707.058 497.39 698.756 487.791 688.885 476.123Z" fill="#494949"/>
<path d="M389.442 402.972C387.597 403.634 384.829 405.041 376.619 416.874C367.763 429.618 361.767 438.307 357.339 452.043C353.464 464.29 352.542 475.461 352.818 484.564C353.464 487.212 353.925 491.101 352.449 495.404C350.512 500.865 347.007 502.189 340.365 509.637C337.689 512.616 333.261 517.664 329.756 524.532C325.881 532.228 327.818 533.221 324.128 540.751C319.7 549.771 313.151 555.977 312.044 556.97C305.955 562.68 303.003 562.845 300.328 567.81C297.284 573.437 298.206 578.733 298.483 580.305C298.667 581.464 300.605 591.559 307.154 592.801C308.907 593.132 311.675 592.966 312.782 591.477C314.534 589.16 310.475 585.932 309.737 580.305C309.092 575.175 311.582 571.038 313.151 568.472C317.855 560.611 323.298 561.77 328.28 555.232C333.077 548.778 328.556 546.792 333.169 534.627C335.752 527.842 338.335 521.056 345.254 516.009C348.39 513.692 351.434 512.45 354.294 508.561C356.785 505.168 357.707 501.776 358.076 499.459C363.15 506.741 368.501 511.457 372.375 514.354C377.541 518.16 383.445 522.629 388.427 520.974C391.102 520.063 393.501 517.333 393.039 515.429C392.763 514.354 391.656 514.023 388.796 511.706C388.796 511.706 387.689 510.795 385.198 508.396C383.538 506.823 381.139 503.927 379.017 498.466C379.847 497.638 381.969 495.818 384.829 495.652C387.966 495.57 390.364 497.555 392.763 499.707C397.283 503.679 397.098 506.079 399.958 508.479C402.172 510.382 406.231 512.368 414.257 511.871C413.888 510.961 413.242 509.471 412.412 507.816C409.552 502.272 408.076 501.693 407.892 499.376C407.799 497.556 408.63 497.059 412.412 491.266C415.641 486.301 417.209 483.819 417.301 482.495C417.762 477.613 413.058 475.958 412.043 470.331C411.12 465.614 413.427 461.808 415.087 458.829C424.681 441.368 430.77 430.28 429.017 421.922C426.342 408.848 403.095 397.842 389.442 402.972Z" fill="#161616"/>
<path d="M385.198 405.951C371.822 418.198 363.242 433.755 357.523 449.974C351.988 465.78 347.837 483.819 356.6 499.293C357.431 500.7 359.829 499.459 358.999 498.052C350.327 482.826 355.032 464.787 360.66 449.312C366.195 433.921 374.405 419.357 387.135 407.689C388.335 406.531 386.397 404.793 385.198 405.951Z" fill="#161616"/>
<path d="M371.36 477.447C372.467 476.951 373.575 476.537 374.682 476.041C375.512 476.454 376.342 476.951 377.172 477.365C378.187 478.192 379.11 479.268 379.755 480.344C381.047 482.33 381.692 484.729 381.508 487.046C381.139 491.515 377.541 494.99 376.619 499.293C376.065 501.941 378.002 503.845 379.663 505.831C382.523 509.223 385.844 512.368 389.441 515.181C390.733 516.257 392.762 514.519 391.379 513.444C389.072 511.54 386.766 509.637 384.737 507.486C381.416 504.093 378.464 501.197 380.77 496.48C382.799 492.342 384.921 488.453 383.999 483.736C383.261 480.095 380.954 476.372 377.357 474.386C374.312 472.731 370.622 473.062 368.962 476.123C368.132 477.613 370.53 478.854 371.36 477.447Z" fill="#161616"/>
<path d="M356.785 499.624C362.135 507.32 369.515 513.692 378.464 517.912C381.139 519.153 386.213 522.049 389.442 520.808C392.486 519.65 391.932 516.34 391.102 514.105C390.549 512.616 387.873 513.278 388.427 514.767C390.549 520.808 381.6 516.588 379.848 515.76C376.988 514.436 374.313 512.864 371.73 511.044C366.656 507.485 362.504 503.182 359.091 498.3C358.261 497.059 355.862 498.3 356.785 499.624Z" fill="#161616"/>
<path d="M420.345 423.66C414.902 440.044 411.489 456.925 409.921 473.972C409.829 474.468 410.382 475.048 410.936 475.13C416.747 476.537 415.917 482.992 413.795 486.633C411.674 490.108 408.353 493.004 406.692 496.728C403.74 503.431 412.504 505.582 412.319 511.458C412.781 511.044 413.242 510.63 413.703 510.216C405.401 509.803 398.39 505.831 394.238 499.376C391.286 494.742 387.873 493.749 381.969 494.08C380.216 494.163 380.216 496.645 381.969 496.563C384.183 496.48 386.858 496.232 388.888 497.225C390.641 498.135 391.194 499.707 392.117 501.114C393.685 503.514 395.714 505.665 398.113 507.403C402.633 510.713 407.891 512.368 413.611 512.699C414.349 512.699 414.995 512.12 414.995 511.458C415.087 507.982 412.504 505.913 410.382 503.265C405.954 497.721 413.242 492.591 416.102 487.874C419.238 482.743 419.146 474.468 411.581 472.731C411.95 473.144 412.227 473.558 412.596 473.889C414.072 457.008 417.578 440.458 422.928 424.239C423.482 422.832 420.806 422.17 420.345 423.66Z" fill="#161616"/>
<path d="M351.896 485.309C352.542 490.274 351.804 495.156 349.128 499.624C346.638 503.845 342.579 506.906 338.612 510.134C331.601 516.009 328.372 522.463 326.158 530.738C323.76 539.51 320.9 546.544 313.797 553.164C308.446 558.046 302.173 562.597 298.852 568.969C295.623 575.175 296.085 582.374 300.236 588.167C302.634 591.56 310.845 598.345 313.981 591.891C315.273 589.243 313.797 585.933 312.782 583.367C311.859 581.133 310.66 578.899 310.66 576.416C310.66 572.941 312.874 569.962 315.457 567.562C321.73 561.687 329.756 558.377 332.523 550.019C334.092 545.302 332.985 540.586 333.354 535.786C333.815 529.828 336.951 524.78 341.748 520.726C349.036 514.519 358.722 509.389 358.722 499.293C358.722 497.721 355.955 497.721 355.955 499.293C355.863 508.975 345.346 513.775 338.704 519.898C333.538 524.615 330.586 530.573 330.494 537.193C330.402 541.579 331.232 545.716 329.571 549.936C327.726 554.736 323.852 557.963 319.608 561.108C314.166 564.997 307.893 569.548 307.893 576.416C307.893 579.726 309.738 582.705 310.845 585.85C311.121 586.677 312.136 588.912 311.675 589.574C310.752 589.656 309.738 589.822 308.815 589.905C307.155 590.815 305.863 590.649 304.941 589.408C302.911 588.25 301.158 584.774 300.42 582.788C297.468 575.01 301.527 568.059 307.339 562.432C312.228 557.632 317.948 553.577 322.007 548.116C326.343 542.323 327.634 535.455 329.479 528.835C330.863 524.036 332.708 519.402 336.398 515.595C339.627 512.202 343.686 509.637 347.007 506.327C352.911 500.534 355.586 493.004 354.571 485.309C354.479 483.736 351.711 483.736 351.896 485.309Z" fill="#161616"/>
<path d="M292.025 384.519C290.088 385.512 286.49 387.25 285.752 390.891C284.83 394.946 288.059 398.256 288.52 398.669C287.966 399.249 286.306 400.986 286.121 403.634C285.937 408.02 290.273 410.585 290.457 410.751C290.273 410.916 287.597 413.399 288.52 416.792C289.258 419.688 292.118 420.929 292.487 421.012C292.302 421.508 291.656 423.66 292.856 425.646C294.701 428.625 299.129 428.459 299.59 428.459C302.726 428.294 305.678 426.391 307.062 423.494C308.815 424.405 313.427 426.556 319.7 425.977C323.944 425.563 327.08 424.074 328.741 423.163C332.062 428.377 337.228 435.41 344.885 442.61C351.619 448.899 364.165 460.732 382.799 465.614C406.046 471.738 426.618 463.794 438.426 459.242C470.16 446.995 485.935 424.487 491.747 416.047C501.525 401.648 504.938 389.319 507.89 378.147C512.687 360.439 511.027 353.488 509.459 349.433C508.536 346.951 503.093 332.718 490.547 331.063C480.308 329.656 471.821 337.517 470.806 338.51C467.3 341.82 465.455 346.206 461.765 354.812C459.92 359.198 458.721 362.508 458.168 363.997C452.171 381.457 449.127 390.146 448.297 391.967C446.083 396.932 440.825 408.268 428.186 417.123C416.102 425.563 403.463 427.384 397.836 428.128C389.349 429.204 378.925 430.528 367.855 425.646C355.493 420.184 349.958 410.254 348.482 407.606C344.054 399.414 343.224 390.312 342.578 383.857C341.748 375.582 342.394 369.128 337.043 363.997C336.029 363.087 333.63 360.77 331.139 361.184C327.542 361.846 325.512 368.052 323.667 373.927C322.099 378.892 322.56 379.471 321.269 380.63C318.593 383.03 315.18 381.788 303.464 382.368C296.638 382.781 294.239 383.443 292.025 384.519Z" fill="white"/>
<path d="M311.121 380.961C301.158 379.306 283.631 381.623 285.015 393.87C286.214 404.876 300.789 406.779 309.553 401.979C311.029 401.152 309.645 399 308.169 399.828C300.881 403.8 287.69 402.724 287.69 392.794C287.69 383.195 302.727 382.119 310.383 383.361C312.136 383.692 312.874 381.292 311.121 380.961Z" fill="black"/>
<path d="M287.413 397.924C277.45 408.847 301.435 422.584 308.538 408.848C309.276 407.441 306.878 406.117 306.14 407.606C300.605 418.198 282.155 407.606 289.442 399.662C290.549 398.504 288.612 396.683 287.413 397.924Z" fill="black"/>
<path d="M287.967 409.013C285.845 413.316 287.321 418.778 292.21 421.012C297.007 423.246 303.003 421.177 305.494 417.04C306.324 415.633 303.926 414.392 303.095 415.799C301.25 418.695 297.099 420.35 293.594 418.86C290.088 417.371 288.797 413.316 290.365 410.254C291.103 408.848 288.705 407.606 287.967 409.013Z" fill="black"/>
<path d="M290.18 420.102C289.811 424.487 292.671 428.459 297.653 429.37C302.265 430.197 306.509 427.466 308.077 423.743C308.723 422.253 306.047 421.591 305.402 423.081C304.202 425.894 300.881 427.715 297.56 426.804C294.147 425.894 292.763 423.081 292.948 420.102C293.04 418.529 290.273 418.529 290.18 420.102Z" fill="black"/>
<path d="M298.944 393.042C301.343 392.794 303.833 392.877 305.863 394.118C307.8 395.277 308.907 397.594 307.8 399.497C306.97 400.904 309.368 402.145 310.199 400.738C311.675 398.173 311.029 395.194 308.815 393.125C306.324 390.725 302.358 390.229 298.852 390.56C297.192 390.808 297.191 393.291 298.944 393.042Z" fill="black"/>
<path d="M307.524 425.398C312.321 423.825 316.933 427.384 321.915 426.887C325.697 426.473 329.018 424.653 332.154 422.998C333.63 422.17 332.246 420.019 330.77 420.846C326.066 423.412 322.007 425.232 316.38 423.743C312.966 422.832 310.291 421.839 306.785 422.998C305.125 423.577 305.771 425.977 307.524 425.398Z" fill="black"/>
<path d="M310.383 383.112C315.18 384.602 321.638 384.85 324.313 380.133C325.789 377.485 324.867 374.258 325.512 371.445C326.25 367.638 328.649 364.494 331.97 362.094C333.354 361.101 331.416 359.363 330.033 360.356C326.435 363.004 323.852 366.645 322.929 370.783C322.468 373.1 323.114 375.83 322.376 378.065C320.715 382.533 315.18 381.954 311.306 380.713C309.461 380.216 308.723 382.616 310.383 383.112Z" fill="black"/>
<path d="M329.94 362.259C337.781 363.17 338.796 375.003 340.088 380.382C341.656 387.415 342.486 394.532 343.962 401.566C346.361 412.82 353.648 421.757 365.272 426.804C377.449 432.018 391.287 431.769 404.017 428.625C417.117 425.315 430.677 419.357 439.164 409.51C440.271 408.268 438.334 406.531 437.227 407.772C428.371 418.033 413.98 424.074 400.143 426.97C386.213 429.866 370.991 428.79 359.368 420.681C346.822 411.992 346.545 398.918 344.054 385.926C342.855 379.802 341.84 373.182 339.35 367.39C337.781 363.749 335.291 360.439 330.77 359.86C328.925 359.611 328.187 362.011 329.94 362.259Z" fill="black"/>
<path d="M327.911 424.653C339.073 436.9 349.866 450.885 364.626 459.904C379.109 468.676 397.006 469.586 413.795 467.104C447.928 461.973 476.895 441.203 493.5 414.392C503.001 399.166 508.628 382.285 511.119 364.99C511.304 363.418 508.536 363.418 508.352 364.99C504.108 394.532 489.717 423.494 464.072 443.023C451.433 452.622 436.397 459.822 420.253 463.297C403.556 466.938 384.275 467.435 369.054 459.408C352.818 450.885 341.471 435.659 329.848 422.832C328.741 421.674 326.804 423.412 327.911 424.653Z" fill="black"/>
<path d="M491.839 330.732C484.182 328.001 476.064 331.559 470.714 336.607C464.441 342.399 461.304 350.095 458.998 357.708C456.323 366.562 453.924 375.334 450.142 383.857C446.083 393.042 440.917 401.731 435.013 410.006C433.998 411.33 436.397 412.571 437.412 411.247C446.913 398.09 454.201 383.774 458.721 368.631C461.12 360.687 462.688 352.412 467.116 345.213C471.544 337.931 480.954 329.49 491.101 333.131C492.762 333.711 493.5 331.311 491.839 330.732Z" fill="black"/>
<path d="M303.095 418.778C305.678 418.943 305.125 422.832 304.664 424.239C304.11 425.729 306.785 426.391 307.339 424.901C308.538 421.757 307.708 416.626 303.095 416.295C301.343 416.212 301.343 418.695 303.095 418.778Z" fill="black"/>
<path d="M304.664 411.165C305.217 413.15 304.387 415.219 302.634 416.378C301.158 417.288 302.542 419.439 304.018 418.529C306.878 416.709 308.261 413.564 307.339 410.503C306.97 408.93 304.295 409.592 304.664 411.165Z" fill="black"/>
<path d="M306.232 402.558C308.723 403.634 307.062 407.192 305.863 408.599C304.756 409.84 307.154 411.082 308.261 409.84C310.383 407.358 311.49 402.062 307.616 400.407C306.047 399.745 304.664 401.897 306.232 402.558Z" fill="black"/>
<path opacity="0.11" d="M287.229 402.89C288.705 402.145 291.103 406.779 297.284 409.096C299.59 409.923 302.45 410.503 315.549 409.096C319.793 408.599 325.328 407.937 331.97 406.862C333.261 411.578 335.936 418.695 341.379 426.06C343.685 429.121 353.003 441.037 370.992 448.071C390.272 455.684 407.707 453.119 414.441 452.043C420.161 451.133 436.12 448.402 450.327 437.314C459.828 429.949 465.917 421.012 474.865 397.759C480.953 381.954 488.333 360.025 493.776 332.8C497.466 336.193 503.186 342.317 506.414 351.419C507.983 355.805 509.459 362.259 508.259 372.355C505.769 394.118 493.592 412.24 486.212 421.508C478.555 431.19 464.902 447.906 439.625 458.249C436.212 459.656 416.932 467.186 392.393 466.193C386.766 465.945 381.6 465.697 375.235 463.628C368.316 461.394 361.397 455.601 347.652 444.182C341.933 439.465 336.305 434.5 330.586 427.301C329.479 425.894 328.557 424.653 327.911 423.825C325.974 424.984 323.114 426.308 319.885 425.977C315.549 425.646 314.073 422.832 310.475 423.329C307.339 423.743 307.339 426.06 303.557 427.301C300.605 428.211 296.454 428.128 293.686 426.225C291.657 424.818 291.38 423.246 289.074 414.309C286.86 405.538 286.214 403.386 287.229 402.89Z" fill="#494949"/>
<path d="M392.67 381.374C390.917 381.705 390.272 384.849 389.165 389.731C388.519 392.71 388.242 395.276 388.15 397.096C384.46 400.985 384.091 404.544 383.999 405.95C383.906 408.847 385.013 411.081 387.135 415.218C388.611 418.197 390.179 420.514 391.286 422.087C387.32 422.914 384.552 425.231 384.368 427.714C384.183 430.113 386.582 432.017 387.504 432.679C391.655 435.906 394.7 433.506 399.958 436.071C404.201 438.14 403.832 440.457 410.013 443.519C413.888 445.422 415.087 445.008 415.548 444.76C417.116 443.85 416.563 440.871 416.286 438.885C415.917 436.485 414.81 432.844 411.766 428.624C415.364 427.465 418.961 426.307 422.467 425.231C419.884 425.479 419.33 425.562 419.33 425.562C419.33 425.479 425.696 423.162 431.138 425.231C435.659 426.969 436.028 430.61 439.81 430.858C441.932 431.024 444.33 429.948 445.345 428.376C447.467 425.148 443.5 420.432 442.577 419.356C438.795 414.887 433.26 413.563 430.769 413.15C431.6 411.495 432.522 408.847 432.707 405.537C432.891 399.91 430.308 395.772 429.109 394.034C427.448 389.152 425.88 384.27 424.22 379.305C421.637 384.684 418.777 386.339 416.563 386.752C414.072 387.249 412.688 386.173 408.629 386.752C404.755 387.332 404.57 388.407 402.356 388.325C397.19 387.828 395.438 380.877 392.67 381.374Z" fill="#161616"/>
<path d="M394.976 407.524C396.545 409.178 399.035 410.254 401.526 409.675C403.74 409.178 405.216 407.523 405.493 405.537C405.585 404.71 404.201 404.71 404.109 405.537C403.925 407.275 402.264 408.516 400.327 408.599C398.574 408.682 397.098 407.772 395.991 406.613C395.345 406.034 394.423 406.944 394.976 407.524Z" fill="white"/>
<path d="M414.718 404.793C417.024 407.772 424.497 408.02 424.22 403.303C424.128 402.476 422.744 402.476 422.836 403.303C423.113 406.696 417.485 406.199 415.917 404.131C415.364 403.469 414.164 404.131 414.718 404.793Z" fill="white"/>
<path d="M411.12 413.978C411.12 414.061 411.212 414.143 411.212 414.226C411.489 414.309 411.858 414.392 412.135 414.474C411.95 414.143 411.674 413.978 411.212 413.978C411.581 413.895 411.858 413.73 412.227 413.647C412.135 413.564 412.043 413.399 411.95 413.316C411.489 413.481 411.12 413.647 410.659 413.812C411.305 414.723 411.028 416.378 410.659 417.288C410.198 418.529 408.26 420.184 407.061 418.529C406.6 417.867 405.401 418.446 405.862 419.191C407.061 420.846 409.552 420.763 410.936 419.357C412.319 417.95 413.057 414.888 411.858 413.233C411.489 412.654 410.382 412.985 410.567 413.73C410.751 414.226 411.028 414.557 411.489 414.805C411.858 415.054 412.412 414.805 412.504 414.474C412.688 413.73 412.412 411.992 411.12 412.488C409.921 412.902 410.382 414.557 410.936 415.219C411.12 415.467 411.581 415.633 411.858 415.467C412.873 414.805 412.873 413.564 411.766 413.068C411.028 412.571 410.382 413.647 411.12 413.978Z" fill="white"/>
<path d="M411.212 414.226C411.581 416.129 412.319 418.446 414.81 418.777C417.301 419.108 418.039 416.957 418.039 415.219C418.039 414.392 416.655 414.392 416.655 415.219C416.655 416.46 416.194 418.198 414.349 417.371C412.965 416.791 412.781 415.136 412.596 413.895C412.412 413.15 411.028 413.481 411.212 414.226Z" fill="white"/>
<path d="M385.751 407.937C387.504 399.331 394.423 391.966 403.832 389.484C413.242 387.001 424.127 390.394 428.463 398.504C429.201 399.91 431.6 398.669 430.862 397.262C426.157 388.574 414.626 384.684 404.386 386.836C393.5 389.153 385.106 397.511 383.076 407.275C382.799 408.847 385.475 409.509 385.751 407.937Z" fill="#161616"/>
<path d="M390.641 395.442C390.549 391.304 391.379 387.167 393.316 383.443C393.501 383.112 393.685 382.864 393.777 382.533C394.423 381.54 394.515 381.374 393.962 382.036C393.408 382.45 393.501 382.781 394.331 383.278C394.515 383.526 394.792 383.857 394.977 384.105C396.36 386.091 397.56 388.16 398.574 390.311C399.22 391.801 401.895 391.139 401.25 389.649C400.327 387.663 396.084 377.568 392.486 379.802C390.733 380.878 389.626 384.519 389.073 386.257C388.058 389.236 387.689 392.38 387.781 395.525C387.965 397.014 390.733 397.014 390.641 395.442Z" fill="#161616"/>
<path d="M418.777 388.739C419.699 387.332 420.622 385.926 421.637 384.519C422.098 383.94 422.744 383.361 423.02 382.699C423.666 382.368 423.758 382.036 423.389 381.623C423.02 381.043 423.113 381.209 423.574 382.119C425.142 385.677 426.249 389.153 426.71 393.042C426.895 394.614 429.662 394.614 429.478 393.042C429.201 390.312 428.648 387.663 427.817 385.015C427.264 383.526 426.434 380.133 424.865 379.223C423.666 378.561 422.651 379.057 421.821 379.968C419.699 382.202 418.039 384.933 416.378 387.498C415.456 388.822 417.854 390.063 418.777 388.739Z" fill="#161616"/>
<path d="M383.261 406.613C382.615 420.515 396.637 432.431 412.227 429.535C419.423 428.211 426.065 423.991 429.478 418.115C433.076 411.909 435.105 402.062 430.4 395.939C429.386 394.615 426.987 395.856 428.002 397.18C432.153 402.724 430.124 411.826 426.803 417.371C423.759 422.418 417.762 425.977 411.489 427.135C397.559 429.618 385.475 418.86 386.028 406.613C386.028 404.958 383.261 404.958 383.261 406.613Z" fill="#161616"/>
<path d="M385.198 428.459C387.412 421.094 398.482 421.508 404.294 424.735C410.474 428.045 413.611 434.5 414.257 440.706C414.441 442.444 415.179 444.182 411.95 443.106C410.751 442.692 409.183 441.12 408.26 440.292C406.6 438.803 405.124 437.231 403.279 435.989C401.249 434.583 399.128 433.755 396.637 433.341C392.762 432.679 385.751 433.093 385.382 428.128C385.29 426.556 382.523 426.556 382.615 428.128C382.892 431.355 385.198 433.507 388.519 434.583C391.102 435.41 393.962 435.245 396.637 435.824C399.958 436.569 402.172 438.141 404.478 440.292C406.784 442.361 410.751 446.995 414.718 446.333C418.039 445.754 417.301 442.361 417.024 440.127C416.009 432.183 411.305 424.322 402.633 421.26C395.345 418.695 384.829 420.184 382.615 427.88C382.061 429.369 384.737 430.031 385.198 428.459Z" fill="#161616"/>
<path d="M422.006 417.702C425.788 413.15 434.367 414.971 438.334 418.033C440.64 419.77 442.208 422.17 442.946 424.818C443.131 425.646 443.592 427.383 443.315 428.294C442.393 430.693 440.456 429.949 438.795 428.79C436.489 427.218 434.736 424.984 431.877 423.991C430.493 423.494 429.109 423.411 427.633 423.494C426.249 423.494 424.958 423.825 423.574 423.66C420.991 423.329 417.393 421.177 421.729 418.198C423.113 417.205 421.176 415.467 419.792 416.46C417.67 417.95 416.563 420.184 417.486 422.584C418.777 425.728 422.098 426.39 425.511 426.225C428.924 426.059 431.138 426.142 433.906 428.211C435.197 429.204 436.304 430.362 437.78 431.273C439.718 432.514 442.577 433.673 444.699 431.935C449.588 427.88 443.961 418.86 440.087 416.047C434.552 411.992 424.404 410.833 419.792 416.543C418.593 417.702 420.991 418.943 422.006 417.702Z" fill="#161616"/>
<path d="M390.548 421.591C396.545 419.853 405.677 423.246 409.367 427.632C409.644 427.963 410.198 427.632 409.921 427.301C406.046 422.584 396.821 419.108 390.364 421.012C389.903 421.094 390.087 421.674 390.548 421.591Z" fill="white"/>
<path d="M422.651 418.033C425.327 415.219 429.201 413.978 433.26 414.723C433.721 414.805 433.906 414.226 433.445 414.144C429.201 413.399 424.958 414.64 422.19 417.619C421.913 417.95 422.375 418.364 422.651 418.033Z" fill="white"/>
<path d="M393.962 382.781C394.884 384.933 395.53 387.084 395.807 389.319C395.991 389.236 396.176 389.153 396.36 389.07C395.899 388.656 395.438 388.408 394.884 388.16C394.607 388.077 394.331 388.16 394.331 388.408C394.331 389.153 394.238 389.815 394.238 390.56C394.423 390.477 394.607 390.394 394.792 390.311C393.5 388.987 392.486 391.966 392.117 392.546C391.932 392.877 392.486 393.208 392.67 392.877C392.763 392.711 393.962 390.394 394.238 390.725C394.423 390.973 394.792 390.725 394.792 390.477C394.792 389.732 394.884 389.07 394.884 388.326C394.7 388.408 394.515 388.491 394.331 388.574C394.884 388.739 395.253 388.988 395.622 389.401C395.807 389.567 396.268 389.484 396.176 389.153C395.807 386.836 395.253 384.602 394.238 382.45C394.423 382.285 393.777 382.45 393.962 382.781Z" fill="white"/>
<path d="M422.467 381.706C421.452 383.443 420.899 385.181 420.714 387.167C420.714 387.333 420.991 387.498 421.175 387.498C422.467 387.167 422.651 388.077 422.744 389.07C422.744 389.318 423.113 389.484 423.297 389.319C423.758 389.981 424.127 390.56 424.589 391.222C424.496 391.636 425.234 391.801 425.234 391.387C425.419 390.229 424.589 387.25 422.836 388.905C423.02 388.988 423.205 389.07 423.389 389.153C423.297 388.408 423.113 387.746 422.928 387.001C422.928 386.836 422.744 386.753 422.559 386.753C421.913 386.753 421.452 386.836 420.899 387.001C421.083 387.084 421.175 387.167 421.36 387.333C421.452 385.512 422.006 383.857 423.02 382.202C423.297 381.623 422.651 381.292 422.467 381.706Z" fill="white"/>
<path d="M480.308 332.634C481.599 340.578 484.09 353.156 489.256 368.051C500.141 399.165 512.964 412.488 529.938 448.567C534.182 457.587 540.178 471.158 546.082 488.287C557.06 491.514 577.447 495.9 602.354 492.011C643.314 485.639 667.391 461.31 674.125 453.946C660.103 430.776 645.989 405.702 632.243 378.809C618.59 352.163 606.69 326.511 596.358 302.099C587.687 299.203 564.993 292.749 537.134 298.872C503.831 306.071 485.474 326.511 480.308 332.634Z" fill="#FBFD94"/>
<path opacity="0.13" d="M561.303 296.059C564.809 302.679 569.237 311.699 573.941 322.622C588.701 357.377 594.052 385.926 595.989 396.104C600.14 417.122 603.738 449.726 597.834 491.598C610.657 491.267 620.159 488.619 626.155 486.55C643.313 480.426 655.767 469.752 667.76 459.408C670.527 457.091 672.649 455.022 674.033 453.781C670.066 447.657 664.07 438.058 657.059 426.06C636.764 391.47 623.48 362.756 612.317 338.427C608.351 329.904 602.908 317.657 596.543 302.845C591.469 300.942 585.104 299.038 577.631 297.797C571.543 296.721 566.008 296.225 561.303 296.059Z" fill="#494949"/>
<path opacity="0.1" d="M622.373 361.68C623.941 376.492 625.232 388.905 626.155 397.842C629.66 432.845 630.306 442.527 630.583 448.733C631.321 463.38 631.321 475.379 631.229 483.24C636.948 481.419 644.328 478.44 651.985 473.641C661.579 467.6 668.036 460.98 672.188 456.098C655.583 424.57 638.978 393.125 622.373 361.68Z" fill="#494949"/>
<path d="M556.875 281.495C552.447 282.654 550.049 288.364 548.573 294.239C545.621 306.238 547.189 316.499 547.742 320.057C550.418 335.862 555.215 347.695 556.783 351.585C560.842 361.184 566.377 374.01 578.462 387.664C585.38 395.442 591.284 402.145 602.17 407.11C608.535 410.089 621.727 416.13 635.288 411.33C635.934 411.082 649.217 406.2 652.631 395.773C653.369 393.456 653.553 391.139 653.83 386.588C654.014 383.857 654.107 379.058 653.461 373.1C652.538 365.238 650.601 359.115 649.125 354.729C642.576 335.283 639.347 325.601 632.52 317.161C626.893 310.21 620.528 302.266 610.011 301.19C609.089 301.107 598.48 300.197 592.207 306.817C587.871 311.451 588.148 317.161 588.24 320.967C588.517 328.249 591.654 333.462 596.543 341.489C601.432 349.433 603.369 350.426 609.181 359.86C617.114 372.769 616.284 374.01 615.915 374.341C614.347 375.582 608.074 371.693 606.69 370.783C605.399 369.955 603.554 368.797 601.247 366.562C594.052 359.363 589.808 348.523 589.808 348.523C586.026 341.82 581.045 332.304 575.971 320.222C577.539 314.844 579.938 311.037 581.875 308.555C585.011 304.583 588.517 301.852 589.347 296.887C589.716 294.984 589.532 293.329 589.347 292.253C590.915 290.929 591.377 288.943 590.547 287.288C589.532 285.385 587.041 284.474 584.642 285.136C584.642 284.888 584.366 282.737 582.244 281.578C580.491 280.585 578.093 280.751 576.34 281.909C573.572 280.006 571.266 279.509 569.606 279.427C567.669 279.344 566.746 279.758 562.133 280.502C558.259 281.413 557.982 281.247 556.875 281.495Z" fill="white"/>
<path d="M580.03 316.416C582.521 310.872 585.657 305.824 589.071 300.693C590.823 298.045 592.853 294.735 590.454 291.839C585.012 285.55 577.632 293.577 575.325 297.714C574.495 299.121 576.894 300.362 577.724 298.956C579.108 296.473 580.676 293.411 583.905 292.584C584.827 292.17 585.75 292.17 586.764 292.418C587.041 294.322 587.318 296.225 587.687 298.128C587.41 299.204 585.75 300.942 585.104 301.935C582.152 306.32 579.753 310.954 577.539 315.671C576.709 317.243 579.384 317.823 580.03 316.416Z" fill="black"/>
<path d="M549.864 327.091C548.48 318.236 548.296 309.217 549.403 300.362C550.418 292.253 552.355 279.923 564.901 282.24C566.654 282.571 567.392 280.171 565.639 279.84C555.768 278.02 549.587 284.309 547.927 292.336C545.436 304.003 545.344 315.919 547.189 327.753C547.466 329.325 550.141 328.663 549.864 327.091Z" fill="black"/>
<path d="M561.396 288.943C562.41 286.791 563.517 284.557 565.455 282.902C568.776 280.006 573.019 281.578 576.617 283.15C578.185 283.895 579.569 281.744 578.001 280.999C574.218 279.261 569.975 277.606 565.916 279.509C562.41 281.164 560.565 284.557 559.089 287.619C558.351 289.191 560.75 290.432 561.396 288.943Z" fill="black"/>
<path d="M569.606 289.687C573.019 285.715 577.539 281.578 583.443 284.722C585.012 285.55 586.395 283.398 584.827 282.571C577.816 278.847 571.912 282.902 567.668 287.867C566.561 289.191 568.499 290.929 569.606 289.687Z" fill="black"/>
<path d="M575.786 291.508C577.539 289.853 579.384 288.115 581.783 287.288C584.642 286.212 589.901 286.874 588.794 290.763C588.425 292.335 591.008 292.998 591.469 291.425C592.391 288.033 589.901 284.888 586.118 284.309C581.045 283.481 577.078 286.791 573.849 289.77C572.65 290.929 574.587 292.667 575.786 291.508Z" fill="black"/>
<path d="M576.893 315.175C573.665 321.381 577.631 327.67 580.399 333.38C584.273 341.406 588.332 349.433 593.314 356.881C599.771 366.645 613.793 384.188 628.461 374.175C629.845 373.182 628.461 371.031 627.077 372.024C612.963 381.706 599.864 362.177 594.144 353.157C590.823 347.861 587.871 342.399 585.104 336.855C582.336 331.311 576.155 322.622 579.384 316.416C580.03 315.009 577.631 313.685 576.893 315.175Z" fill="black"/>
<path d="M588.794 308.886C580.676 333.628 605.583 352.826 614.716 374.01C615.362 375.499 618.037 374.837 617.391 373.348C608.535 352.826 583.628 333.462 591.469 309.548C591.93 307.975 589.255 307.313 588.794 308.886Z" fill="black"/>
<path d="M547.097 326.429C551.801 349.599 562.779 371.527 578.923 390.146C586.764 399.083 595.713 407.772 608.074 411.413C618.591 414.474 633.074 416.047 642.852 410.337C653.553 404.214 654.937 391.718 655.398 381.375C655.49 379.802 652.723 379.802 652.631 381.375C652.077 394.697 648.756 409.427 631.137 411.33C614.901 413.068 599.771 407.275 588.794 396.766C568.406 377.32 555.03 351.916 549.68 325.767C549.495 324.194 546.82 324.856 547.097 326.429Z" fill="black"/>
<path d="M590.639 312.196C593.591 301.604 607.797 300.859 616.653 305.493C625.694 310.21 631.875 318.733 636.395 326.925C641.1 335.531 644.513 344.799 647.834 353.902C651.616 364.328 654.476 375.251 652.539 386.257C652.262 387.829 654.937 388.491 655.214 386.919C657.428 374.341 653.922 362.177 649.402 350.261C645.251 339.42 641.192 328.249 634.273 318.485C628.461 310.21 619.79 301.604 608.351 300.197C599.495 299.121 590.085 303.424 587.871 311.534C587.502 313.106 590.178 313.768 590.639 312.196Z" fill="black"/>
<path opacity="0.1" d="M560.288 280.42C567.668 277.772 574.864 280.668 576.617 281.413C571.451 287.536 560.473 302.348 559.55 323.284C558.167 353.074 578.001 372.851 585.012 379.885C594.052 388.905 605.86 400.655 621.081 399C629.66 398.09 637.778 392.96 641.93 386.422C646.081 379.885 645.804 372.769 640.823 354.398C633.166 326.594 624.771 310.292 625.97 309.796C627.17 309.299 637.133 323.284 644.605 340.827C645.343 342.648 651.524 357.377 653.738 377.651C655.122 390.146 653.922 395.276 651.062 399.828C646.634 406.861 639.439 410.006 636.672 411.082C625.509 415.302 614.808 412.323 609.735 410.751C591.561 405.289 581.875 392.049 572.097 378.726C557.06 358.122 552.908 340.496 548.942 323.532C546.174 311.782 544.329 298.128 551.248 288.115C552.447 286.047 555.122 282.323 560.288 280.42Z" fill="#494949"/>
<path d="M427.08 240.12C426.803 244.009 428.371 248.395 431.692 257.167C435.382 267.014 439.349 277.523 449.312 287.867C455.677 294.487 463.426 302.596 476.618 304.913C487.042 306.734 495.806 304.086 500.234 302.431C501.248 304.913 502.632 307.561 504.385 310.292C508.997 317.574 514.717 322.705 519.237 326.097C522.65 325.766 529.292 324.525 535.012 319.891C539.44 316.25 541.562 311.947 542.853 309.134C544.421 305.824 545.252 302.927 545.621 300.859C542.853 299.369 539.809 297.383 536.857 294.652C527.632 286.212 525.141 276.199 524.403 271.4C525.602 261.883 526.894 252.284 528.093 242.768C529.477 242.934 532.429 243.099 535.012 241.527C537.872 239.789 538.425 236.893 539.163 233.666C539.901 230.438 540.731 226.301 538.702 221.584C537.779 219.515 534.827 212.895 528.554 212.482C524.311 212.151 519.975 214.716 517.484 218.688C512.134 214.054 500.695 205.862 484.643 204.538C456.876 202.221 428.648 221.667 427.08 240.12Z" fill="white"/>
<path d="M468.038 277.937C467.3 279.675 469.422 282.157 470.99 283.399C475.326 286.791 482.983 286.626 488.518 284.309C496.267 281.082 498.758 274.131 499.865 270.986C501.156 267.511 502.817 262.959 500.142 258.905C497.835 255.346 493.776 254.105 492.208 253.691C490.64 256.588 489.44 258.739 488.518 260.146C487.411 261.884 487.042 262.463 486.396 263.787C485.474 265.525 485.381 266.187 484.09 267.759C478.832 273.882 471.636 276.117 471.636 276.117C469.976 276.448 468.5 276.779 468.038 277.937Z" fill="black"/>
<path d="M428.556 250.05C435.843 270.49 444.976 294.322 468.5 303.921C478.094 307.81 489.533 308.555 499.311 304.748C510.289 300.528 516.747 290.763 521.175 281.33C526.986 269 529.477 255.595 528.555 242.272C528.462 240.7 525.695 240.7 525.787 242.272C526.71 256.174 523.942 270.159 517.392 282.819C511.027 295.149 500.972 304.996 484.828 304.831C452.356 304.5 439.164 272.393 431.046 249.471C430.677 247.816 428.094 248.478 428.556 250.05Z" fill="black"/>
<path d="M518.499 221.005C518.591 216.04 524.311 213.061 529.385 214.468C534.089 215.874 537.042 220.012 538.056 224.149C538.979 228.121 538.61 232.755 537.226 236.562C536.119 239.706 534.735 241.361 530.492 241.361C529.016 241.361 527.54 240.865 525.972 240.865C524.219 240.865 524.219 243.347 525.972 243.347C529.108 243.347 532.152 244.671 535.197 243.265C537.411 242.272 538.702 240.286 539.625 238.217C542.023 232.59 542.3 224.977 539.256 219.433C536.765 214.881 531.414 210.992 525.51 211.571C520.067 212.068 515.824 216.04 515.732 220.922C515.732 222.577 518.499 222.577 518.499 221.005Z" fill="black"/>
<path d="M523.942 266.352C523.665 280.006 530.399 293.08 542.392 301.603C543.776 302.596 545.713 300.859 544.329 299.866C532.89 291.756 526.433 279.509 526.709 266.352C526.709 264.78 523.942 264.78 523.942 266.352Z" fill="black"/>
<path d="M500.142 303.424C503.647 312.113 509.367 319.726 517.023 325.849C518.315 326.925 520.344 325.187 518.96 324.111C511.58 318.236 506.138 311.037 502.725 302.762C502.171 301.272 499.496 301.934 500.142 303.424Z" fill="black"/>
<path d="M517.669 326.677C525.603 329.242 533.536 323.201 538.425 318.153C543.591 312.857 548.111 305.989 545.897 298.79C545.436 297.218 542.761 297.88 543.222 299.452C545.067 305.741 540.916 311.864 536.396 316.416C532.152 320.719 525.234 326.511 518.315 324.277C516.747 323.698 516.009 326.097 517.669 326.677Z" fill="black"/>
<path d="M438.888 241.362C437.688 238.3 440.456 234.99 442.485 232.838C445.53 229.446 450.234 228.535 453.74 232.011C457.799 235.983 458.906 243.099 459.459 248.23C459.828 251.788 458.445 256.339 460.751 259.484C463.242 262.877 467.854 264.863 472.19 265.607C473.943 265.938 474.681 263.539 472.928 263.208C470.622 262.794 468.592 262.132 466.563 260.973C463.242 258.987 462.504 256.836 462.411 253.278C462.319 250.216 462.227 247.237 461.673 244.175C460.751 239.127 459.183 232.673 454.57 229.28C450.696 226.384 445.899 226.467 442.116 229.363C438.519 232.176 434.367 237.555 436.12 241.941C436.858 243.513 439.533 242.851 438.888 241.362Z" fill="black"/>
<path d="M464.441 223.487C465.087 213.475 479.016 209.834 485.474 218.026C486.489 219.35 488.887 218.109 487.872 216.785C479.847 206.524 462.504 210.909 461.673 223.487C461.581 225.06 464.349 225.06 464.441 223.487Z" fill="black"/>
<path d="M451.895 247.982C450.603 246.409 449.865 244.672 449.773 242.768C449.035 243.099 448.389 243.513 447.651 243.844C449.773 245.085 450.88 247.071 450.788 249.306C451.341 248.892 451.987 248.478 452.541 248.147C450.234 247.402 448.758 245.085 449.22 242.934C448.574 243.182 447.836 243.43 447.19 243.679C448.297 244.258 449.22 245.085 449.865 246.161C450.142 246.658 450.327 247.154 450.419 247.733C450.419 248.147 450.419 247.651 450.327 247.485C450.142 247.154 449.957 246.906 449.773 246.575C449.035 245.085 446.636 246.409 447.375 247.816C447.928 248.974 448.85 250.216 450.511 250.298C451.895 250.381 453.094 249.554 453.279 248.313C453.555 245.582 451.157 242.851 448.666 241.61C447.928 241.196 446.821 241.527 446.637 242.355C445.899 245.913 448.112 249.388 451.895 250.629C452.817 250.878 453.648 250.216 453.648 249.471C453.74 246.327 452.079 243.513 449.127 241.858C448.297 241.362 447.005 242.024 447.005 242.934C447.098 245.251 447.928 247.485 449.496 249.388C450.603 250.547 453.002 249.306 451.895 247.982Z" fill="black"/>
<path d="M477.725 232.011C477.264 231.514 476.895 230.935 476.71 230.273C476.71 230.108 476.526 229.115 476.71 229.032C476.895 228.949 477.356 230.273 477.448 230.356C477.633 231.018 477.54 231.762 477.171 232.342C477.817 232.176 478.463 232.011 479.109 231.928C476.802 230.77 475.695 228.618 476.064 226.301C475.326 226.632 474.681 227.046 473.943 227.377C476.526 228.37 478.002 230.769 477.356 233.252C477.909 233.004 478.463 232.673 479.016 232.424C477.633 232.011 476.526 230.935 476.249 229.611C476.249 229.528 476.249 228.783 476.157 228.783C475.972 228.866 475.788 228.949 475.511 229.032C475.603 229.197 475.788 229.445 475.88 229.611C476.249 230.521 476.249 231.431 476.157 232.424C476.987 232.093 477.725 231.845 478.555 231.514C477.725 230.935 477.079 230.273 476.618 229.363C475.788 227.956 473.389 229.197 474.219 230.604C474.773 231.597 475.603 232.507 476.618 233.252C477.633 233.997 478.832 233.5 479.016 232.342C479.201 230.687 479.016 228.452 477.633 227.211C476.526 226.218 474.496 226.136 473.758 227.625C472.282 230.521 475.419 233.914 478.278 234.824C479.016 235.072 479.847 234.576 479.939 233.997C480.954 230.521 479.016 226.715 475.234 225.308C474.219 224.894 473.297 225.391 473.112 226.384C472.651 229.528 474.496 232.59 477.54 234.162C478.094 234.493 479.109 234.328 479.478 233.748C480.216 232.176 480.4 230.604 479.754 229.032C479.201 227.791 478.002 226.466 476.433 226.632C472.374 227.046 474.127 232.259 475.788 233.914C476.987 234.99 478.924 233.169 477.725 232.011Z" fill="black"/>
<path d="M501.802 303.176C501.802 303.259 501.802 303.259 501.71 303.341C502.263 303.093 502.817 302.762 503.37 302.514C503.278 302.514 503.186 302.431 503.093 302.431C503.37 303.01 503.647 303.672 503.924 304.252C504.108 303.921 506.599 302.845 507.337 302.266C508.997 301.024 510.381 299.369 511.673 297.797C514.532 294.404 516.654 290.681 518.407 286.791C517.484 286.543 516.654 286.378 515.732 286.129C512.964 293.246 511.027 303.176 503.278 307.396C503.924 307.975 504.569 308.555 505.215 309.134C507.06 306.651 508.905 304.086 510.75 301.604C511.58 300.445 509.643 299.038 508.536 300.114C507.06 301.521 505.492 303.01 504.016 304.417C504.662 304.996 505.307 305.576 505.953 306.155C507.337 304.665 508.628 303.093 509.828 301.521C510.75 300.362 508.721 298.956 507.614 300.031C506.322 301.273 505.031 302.183 503.37 302.928C504.108 303.259 504.754 303.672 505.492 304.003C505.492 303.755 505.4 303.507 505.4 303.259C505.215 301.686 502.448 301.686 502.632 303.259C502.632 303.507 502.724 303.755 502.724 304.003C502.817 304.914 503.831 305.576 504.846 305.079C506.691 304.169 508.167 303.176 509.643 301.769C508.905 301.273 508.167 300.776 507.429 300.28C506.322 301.686 505.215 303.093 504.016 304.417C502.909 305.658 504.754 307.396 505.953 306.155C507.429 304.748 508.997 303.259 510.473 301.852C509.735 301.355 508.997 300.859 508.259 300.362C506.414 302.845 504.569 305.41 502.724 307.893C501.986 308.968 503.462 310.21 504.662 309.63C513.149 304.996 515.363 294.735 518.407 286.874C518.96 285.302 516.377 284.805 515.732 286.212C513.794 290.432 511.304 294.57 507.983 298.045C506.414 299.7 503.924 300.611 502.448 302.1C502.079 302.431 501.71 302.514 501.525 302.928C501.064 303.672 501.433 304.417 502.355 304.748C502.448 304.748 502.54 304.831 502.632 304.831C503.37 305.079 504.108 304.583 504.293 304.003C504.293 303.921 504.293 303.921 504.385 303.838C505.123 302.348 502.448 301.686 501.802 303.176Z" fill="black"/>
<path d="M512.042 300.693C512.872 299.866 513.425 299.038 513.702 298.045C514.163 296.556 512.042 296.059 511.212 297.052C509.274 299.369 507.337 301.686 505.4 304.003C504.293 305.245 506.691 306.486 507.798 305.245C509.736 302.928 511.673 300.611 513.61 298.294C512.78 297.963 511.95 297.632 511.119 297.301C510.935 297.88 510.658 298.376 510.197 298.873C508.905 300.197 510.935 301.935 512.042 300.693Z" fill="black"/>
<path d="M469.422 280.171C466.839 275.537 469.607 273.799 474.773 272.558C475.418 272.393 476.064 272.31 476.618 272.062C478.832 271.152 480.123 269.165 481.046 267.262C482.522 264.449 483.352 261.387 485.289 258.822C489.348 253.278 496.544 253.526 498.85 260.146C501.156 266.766 498.296 274.13 493.407 279.178C491.009 281.661 488.057 283.978 484.551 285.053C481.507 286.046 478.832 285.715 475.88 284.557C473.758 283.729 469.883 282.075 469.33 279.923C468.961 278.351 466.286 279.013 466.655 280.585C467.669 284.888 474.865 287.536 479.201 288.115C483.905 288.777 488.333 286.709 491.931 284.061C499.957 278.103 504.938 267.593 501.064 258.491C496.913 248.644 485.658 252.285 481.507 260.063C480.215 262.463 479.57 266.518 477.448 268.255C474.773 270.49 471.359 269.662 468.592 271.4C464.717 273.882 465.086 278.268 467.024 281.661C467.854 282.902 470.252 281.661 469.422 280.171Z" fill="black"/>
<path d="M467.577 277.606C481.876 277.275 488.795 265.359 491.931 254.436C492.393 252.864 489.717 252.202 489.256 253.774C486.489 263.539 480.492 274.793 467.577 275.124C465.825 275.206 465.825 277.689 467.577 277.606Z" fill="black"/>
<path d="M429.662 248.726C428.002 249.554 417.947 239.707 413.703 226.549C410.567 216.95 411.489 208.427 412.596 203.048C414.164 198.745 416.379 194.111 419.423 189.394C432.522 169.203 453.186 159.687 463.887 155.633C461.673 157.536 459.09 160.018 456.692 163.163C453.371 167.3 451.249 171.19 449.865 174.417C453.002 172.017 456.6 169.617 460.474 167.3C469.146 162.087 477.54 158.363 484.828 155.715C483.721 159.936 482.522 164.156 481.415 168.293C483.998 166.969 487.595 165.066 492.023 163.163C496.913 161.094 506.968 156.791 508.536 158.694C508.997 159.274 508.444 159.936 507.614 162.335C506.507 165.48 506.138 168.128 505.953 169.866C508.813 169.452 512.042 169.121 515.547 169.038C519.422 168.873 522.927 169.038 526.064 169.286C524.957 173.093 523.85 176.817 522.743 180.623C524.957 181.368 528.093 182.775 531.322 185.092C539.993 191.463 542.484 200.069 543.13 203.462C544.514 211.572 542.3 218.357 540.639 222.081C536.211 213.64 527.447 210.33 522.466 212.399C519.422 213.64 515.916 217.612 516.285 221.667C516.378 222.577 516.654 223.405 516.931 223.984C513.702 221.336 508.813 217.778 502.448 214.468C496.083 211.158 488.979 207.434 479.57 206.358C461.858 204.289 448.02 212.978 444.33 215.378C438.611 219.019 429.293 224.894 427.633 234.245C425.972 242.106 430.954 248.147 429.662 248.726Z" fill="#343434"/>
<path opacity="0.11" d="M499.865 212.399C502.724 218.192 506.599 227.211 508.721 238.548C510.935 249.802 513.702 264.283 506.968 280.337C504.662 285.798 499.219 296.307 486.304 306.155C489.348 306.072 494.606 305.576 500.142 302.928C509.182 298.707 513.149 291.673 514.348 289.191C518.684 292.997 524.495 298.955 528.924 307.396C531.414 312.113 532.983 316.498 533.905 320.139C536.396 318.153 541.008 313.851 543.13 307.065C543.96 304.417 544.237 302.017 544.237 300.031C538.887 297.383 535.473 294.156 533.536 292.087C532.706 291.177 524.496 281.909 524.957 269.083C525.141 264.449 526.248 264.366 527.078 257.249C527.817 250.878 527.448 245.499 527.078 241.941C531.783 243.678 534.182 242.851 535.289 242.272C537.411 241.113 537.964 239.045 539.901 228.535C540.916 222.908 541.47 220.095 541.654 218.605C542.761 210.579 543.315 206.524 542.761 203.297C541.193 194.111 534.643 187.988 532.429 186.084C528.739 182.857 524.957 181.037 522.466 180.044C523.573 176.568 524.588 173.01 525.695 169.534C520.436 175.079 515.547 178.885 512.226 181.368C503.924 187.326 499.127 188.732 493.407 194.442C488.887 198.911 486.304 203.462 484.828 206.524C489.902 208.592 494.883 210.496 499.865 212.399Z" fill="#494949"/>
<path opacity="0.17" d="M461.858 156.543C458.721 157.784 451.341 161.259 446.175 168.624C444.884 170.445 442.024 174.996 441.194 181.368C440.271 188.401 442.208 193.946 443.315 196.676C443.684 189.808 445.529 178.72 452.91 167.3C455.769 162.997 458.906 159.439 461.858 156.543Z" fill="#494949"/>
<path opacity="0.08" d="M527.078 242.355C526.802 242.272 526.248 243.182 524.219 249.471C521.451 257.994 519.975 264.283 519.145 267.428C517.946 271.979 515.916 278.434 512.134 286.212C518.684 287.371 525.234 288.529 531.783 289.605C529.385 284.888 526.525 278.103 525.418 269.662C523.665 255.181 528.001 242.52 527.078 242.355Z" fill="#494949"/>
</svg>
