<?xml version="1.0" encoding="utf-8"?>
<svg xmlns="http://www.w3.org/2000/svg" xmlns:xlink="http://www.w3.org/1999/xlink" style="margin: auto; background: rgb(245, 243, 243); display: block; z-index: -1; position: relative; shape-rendering: auto; animation-play-state: running; animation-delay: 0s;" width="1536" height="754" preserveAspectRatio="xMidYMid" viewBox="0 0 1536 754">
<g transform="translate(768,377) scale(1,1) translate(-968,-577)" style="animation-play-state: running; animation-delay: 0s;"><g transform="translate(1192.787334653171,47.501167956159975) scale(100)" opacity="0.4" style="animation-play-state: running; animation-delay: 0s;">
  <path d="M5.214719999999999 0 C5.214719999999999 1.2364799999999998 5.413665147867497 1.697816908728617 4.795425147867497 2.7686399999999995 S3.678183091271382 3.897839993622787 2.60736 4.516079993622787 S1.2364800000000002 5.53728 3.390606113991328e-16 5.53728 S-1.5365369087286156 5.134319993622787 -2.607359999999998 4.516079993622787 S-4.177185147867496 3.839463091271384 -4.795425147867496 2.7686400000000018 S-5.214719999999999 1.2364800000000005 -5.214719999999999 6.386190156449684e-16 S-5.413665147867497 -1.697816908728616 -4.795425147867498 -2.7686399999999987 S-3.678183091271384 -3.8978399936227857 -2.6073600000000017 -4.516079993622786 S-1.236480000000001 -5.53728 -1.0171818341973983e-15 -5.53728 S1.536536908728613 -5.134319993622788 2.607359999999996 -4.516079993622789 S4.177185147867495 -3.8394630912713845 4.795425147867495 -2.7686400000000027 S5.214719999999999 -1.2364800000000011 5.214719999999999 -1.2772380312899369e-15" fill="#030303" stroke-width="0" style="animation-play-state: running; animation-delay: 0s;">
    <animateTransform attributeName="transform" type="rotate" dur="10s" repeatCount="indefinite" values="0;60" style="animation-play-state: running; animation-delay: 0s;"></animateTransform>
  </path>
</g><g transform="translate(1277.7448015838054,-18.39859845260804) scale(100)" opacity="0.4" style="animation-play-state: running; animation-delay: 0s;">
  <path d="M6.257663999999999 0 C6.257663999999999 1.4837759999999998 6.4963981774409945 2.03738029047434 5.754510177440995 3.322367999999999 S4.41381970952566 4.677407992347344 3.1288320000000005 5.419295992347345 S1.4837760000000002 6.644735999999999 4.068727336789593e-16 6.644735999999999 S-1.843844290474339 6.161183992347345 -3.1288319999999983 5.419295992347346 S-5.012622177440994 4.6073557095256605 -5.754510177440994 3.3223680000000018 S-6.257663999999999 1.4837760000000004 -6.257663999999999 7.663428187739622e-16 S-6.496398177440995 -2.0373802904743386 -5.754510177440996 -3.3223679999999978 S-4.4138197095256615 -4.6774079923473435 -3.1288320000000023 -5.419295992347344 S-1.4837760000000009 -6.644735999999999 -1.2206182010368778e-15 -6.644735999999999 S1.843844290474336 -6.161183992347346 3.1288319999999956 -5.419295992347347 S5.012622177440993 -4.607355709525661 5.754510177440993 -3.3223680000000027 S6.257663999999999 -1.4837760000000013 6.257663999999999 -1.5326856375479243e-15" fill="#030303" stroke-width="0" style="animation-play-state: running; animation-delay: 0s;">
    <animateTransform attributeName="transform" type="rotate" dur="5s" repeatCount="indefinite" values="0;60" style="animation-play-state: running; animation-delay: 0s;"></animateTransform>
  </path>
</g></g>
</svg>