<svg width="348" height="241" viewBox="0 0 308 201" fill="none" xmlns="http://www.w3.org/2000/svg">
<path d="M198.518 47.4942C205.115 43.1703 214.758 31.8328 219.904 29.1025C239.879 18.4754 264.148 18.8103 281.819 33.8628C292.619 43.0587 295.714 60.4659 295.075 74.0365C294.964 74.8382 295.04 75.6546 295.298 76.4217C295.691 77.1391 296.243 77.757 296.912 78.2285C305.864 85.6786 308.585 97.8789 306.646 109.206C305.357 116.738 302.139 123.822 298.424 130.521C293.502 139.392 286.062 149.725 275.678 152.425C275.089 152.536 274.523 152.746 274.003 153.044C273.131 153.795 272.513 154.799 272.237 155.917C265.823 172.157 247.482 169.66 234.733 163.265C233.464 183.453 212.576 190.173 196.305 193.878C186.723 196.05 176.827 196.476 167.093 195.136C164.505 194.791 140.176 186.823 140.44 186.559C135.745 191.128 130.135 194.649 123.98 196.89C117.825 199.132 111.265 200.042 104.732 199.562C98.658 199.159 92.7563 197.375 87.4769 194.344C86.2792 193.654 73.2669 183.179 74.6879 182.408C53.7992 194.152 24.0597 185.595 12.5902 164.554C6.68289 153.704 6.50019 138.022 16.6502 130.998C3.22174 123.893 -2.05626 106.07 2.11539 91.4641C7.19039 73.6609 24.7296 58.2431 42.2282 52.894C59.7268 47.545 80.7271 40.7141 99.0682 45.9312C105.94 40.1152 113.035 34.0252 121.52 30.9802C130.005 27.9352 140.45 28.3514 147.159 34.4312C153.371 29.5288 162.323 29.3562 169.763 32.1069C176.756 34.6342 188.185 49.301 194.407 49.1589C195.901 48.9777 197.319 48.4033 198.518 47.4942V47.4942Z" fill="#F5F3F3"/>
<path d="M108.051 200.171C106.934 200.171 105.818 200.171 104.712 200.059C98.5526 199.649 92.568 197.841 87.213 194.771C86.604 194.426 75.8856 186.143 74.2717 183.2C64.2943 188.549 51.8402 189.675 39.9546 186.245C27.7746 182.753 17.6246 174.927 12.1334 164.777C4.60215 150.943 8.07345 136.987 15.7367 131.039C2.02405 123.244 -2.21865 104.862 1.65865 91.3016C6.49005 74.4323 23.5014 58.0807 42.1064 52.4271L44.3698 51.7369C61.706 46.4589 81.3361 40.4704 98.9261 45.3932C105.412 39.8513 112.761 33.6192 121.388 30.5031C130.888 27.0826 140.967 28.3716 147.22 33.7816C154.091 28.6051 163.46 29.2547 169.976 31.6298C173.184 32.7869 177.081 36.2683 181.283 39.9629C186.115 44.2361 191.108 48.6513 194.356 48.6513H194.438C195.822 48.4568 197.133 47.9078 198.244 47.0578C201.431 44.9669 205.349 41.2114 209.155 37.5675C213.215 33.7105 216.981 30.0768 219.66 28.6457C241.229 17.166 265.173 19.0133 282.154 33.4568C295.856 45.1293 295.897 67.4796 295.592 74.0568C295.492 74.7787 295.554 75.514 295.775 76.2086C296.123 76.834 296.609 77.372 297.196 77.7818C305.631 84.8056 309.376 96.5593 307.153 109.247C306.037 115.743 303.408 122.564 298.881 130.714C291.776 143.422 284.275 150.669 275.82 152.872H275.658C275.177 152.963 274.715 153.131 274.288 153.369C273.574 153.993 273.065 154.817 272.826 155.734L272.714 156.008C270.552 161.509 266.919 165.265 261.915 167.173C254.861 169.873 244.914 168.675 235.19 163.955C233.474 183.372 213.621 190.345 196.427 194.284C186.773 196.482 176.8 196.912 166.992 195.552C165.601 195.359 158.679 193.208 152.66 191.259C144.388 188.579 141.495 187.544 140.48 187.077C131.775 195.478 120.149 200.172 108.051 200.171V200.171ZM75.104 182.672C75.7232 184.367 86.269 193.045 87.7205 193.898C92.9428 196.888 98.778 198.648 104.783 199.044C111.243 199.524 117.731 198.627 123.819 196.412C129.906 194.197 135.454 190.714 140.095 186.194V186.194C140.189 186.101 140.317 186.049 140.45 186.049C140.583 186.049 140.71 186.101 140.805 186.194C142.388 186.996 164.678 194.314 167.195 194.639C176.868 195.974 186.702 195.551 196.224 193.39C228.704 185.981 233.617 173.385 234.256 163.235C234.26 163.151 234.285 163.069 234.33 162.998C234.374 162.927 234.436 162.869 234.51 162.829C234.583 162.789 234.665 162.768 234.748 162.768C234.832 162.768 234.914 162.789 234.987 162.829C244.67 167.691 254.617 169 261.58 166.341C266.3 164.534 269.7 160.971 271.791 155.744L271.892 155.48C272.199 154.362 272.849 153.368 273.75 152.638C274.268 152.333 274.834 152.117 275.424 151.999H275.587C283.758 149.867 291.096 142.782 298.018 130.339C302.484 122.29 305.123 115.57 306.138 109.186C308.25 96.8334 304.677 85.4349 296.577 78.7359C295.837 78.2103 295.235 77.514 294.821 76.7059C294.536 75.9028 294.443 75.0445 294.547 74.1989C295.511 53.8177 288.457 40.2573 281.474 34.3398C264.828 20.1298 241.31 18.3637 220.117 29.6404C217.559 31.0005 213.804 34.5936 209.835 38.3998C205.866 42.2061 202.04 45.8702 198.782 48.0017C197.519 48.9708 196.018 49.5809 194.438 49.7678H194.336C190.702 49.7678 185.79 45.4236 180.593 40.8257C176.685 37.3544 172.635 33.7816 169.611 32.7057C163.226 30.4016 154.071 29.7723 147.494 34.9691C147.404 35.047 147.288 35.0898 147.169 35.0898C147.05 35.0898 146.935 35.047 146.844 34.9691C140.886 29.5795 131.031 28.2701 121.713 31.6298C113.167 34.6748 105.838 40.9678 99.3828 46.4995C99.3203 46.5551 99.2445 46.5937 99.1627 46.6114C99.0809 46.6292 98.9959 46.6256 98.9159 46.601C81.5391 41.6275 61.9496 47.616 44.6743 52.8737L42.4007 53.5639C24.1307 59.116 7.3731 75.1733 2.6432 91.7482C-1.1935 105.146 3.09995 123.376 16.9141 130.694C16.993 130.732 17.0601 130.791 17.1083 130.864C17.1566 130.937 17.1842 131.022 17.1881 131.11C17.1926 131.197 17.1743 131.284 17.1352 131.363C17.0961 131.441 17.0374 131.508 16.9648 131.557C9.15949 136.956 5.55625 150.73 13.0266 164.453C18.4264 174.369 28.343 182.012 40.2388 185.433C52.1346 188.853 64.5988 187.635 74.424 182.104C74.5427 182.037 74.6826 182.02 74.8137 182.056C74.9447 182.093 75.0563 182.179 75.1243 182.296C75.1649 182.42 75.1576 182.554 75.104 182.672V182.672Z" fill="#F5F3F3"/>
<path d="M90.3595 122.503C90.2028 122.503 90.0509 122.448 89.9304 122.348C89.8099 122.248 89.7282 122.109 89.6997 121.954C88.6847 116.189 85.1018 110.485 78.5956 104.517C70.4798 97.1084 60.9945 91.3572 50.673 87.5866C42.4819 84.6126 35.7728 83.9529 30.1598 85.5566C30.0752 85.5812 29.9865 85.589 29.8989 85.5794C29.8113 85.5698 29.7264 85.543 29.6491 85.5006C29.5718 85.4581 29.5036 85.4009 29.4485 85.3322C29.3933 85.2634 29.3522 85.1845 29.3275 85.0998C29.3029 85.0152 29.2951 84.9265 29.3047 84.8389C29.3144 84.7512 29.3411 84.6664 29.3836 84.5891C29.426 84.5118 29.4832 84.4436 29.5519 84.3884C29.6207 84.3333 29.6997 84.2922 29.7843 84.2675C35.6916 82.5826 42.6647 83.2525 51.0993 86.2975C61.5921 90.1408 71.23 96.0029 79.4685 103.553C86.198 109.724 89.9636 115.672 90.9888 121.741C91.0182 121.916 90.977 122.096 90.8743 122.24C90.7715 122.385 90.6156 122.483 90.4407 122.513L90.3595 122.503Z" fill="#D1D3D4"/>
<path d="M115.43 61.1662L112.283 49.6257C112.283 49.6257 74.7285 55.7157 69.0648 59.8569C63.4011 63.9981 62.1628 67.1953 56.4077 65.9469H56.3164C53.5657 65.0334 51.3023 61.9985 49.4854 59.8569C46.1965 55.9857 43.1459 51.9182 40.3504 47.6769C37.8733 43.9802 35.6911 40.0943 33.824 36.0551C33.2759 34.8676 29.1245 25.4281 33.824 27.0724C32.474 25.0424 35.5596 25.1134 36.5645 26.1487C36.4097 25.9702 36.2954 25.7602 36.2296 25.5332C36.1638 25.3063 36.148 25.0677 36.1833 24.8341C36.2186 24.6004 36.3041 24.3772 36.434 24.1798C36.5639 23.9824 36.7351 23.8155 36.9358 23.6906C37.1364 23.5658 37.3617 23.4859 37.5962 23.4566C37.8307 23.4273 38.0688 23.4491 38.294 23.5207C38.5192 23.5923 38.7262 23.7119 38.9008 23.8712C39.0753 24.0305 39.2132 24.2258 39.305 24.4435C39.2211 24.2984 39.1689 24.1371 39.1518 23.9703C39.1347 23.8035 39.1531 23.6349 39.2059 23.4758C39.2586 23.3166 39.3444 23.1704 39.4578 23.0468C39.5711 22.9232 39.7093 22.825 39.8632 22.7586C40.1862 22.6451 40.5332 22.6181 40.8698 22.6805C41.2064 22.7428 41.5207 22.8922 41.7816 23.1139C42.2891 23.5706 42.7207 24.1051 43.0605 24.6973C45.1824 27.9697 47.6162 31.029 50.3279 33.8323C52.3579 35.8623 54.804 39.3539 57.6562 40.1354C60.9245 41.0388 66.6795 38.6028 69.9072 37.943C75.104 36.928 80.2907 35.7709 85.4976 34.695C94.0947 32.9188 102.702 31.1324 111.35 29.62C114.516 29.0719 117.693 28.5238 120.891 28.1787C122.2 28.0366 124.372 27.519 125.621 28.1787C129.681 30.2087 139.201 54.5687 139.201 54.5687" fill="#F5F3F3"/>
<path d="M58.661 66.7182C57.8517 66.7129 57.0453 66.621 56.2555 66.4441H56.1134C53.5962 65.6118 51.485 63.1149 49.7899 61.1154L49.0591 60.2526C45.767 56.384 42.7162 52.3163 39.9241 48.0726C37.4463 44.3269 35.2707 40.3898 33.418 36.2986C32.606 34.5325 30.0786 28.6557 31.6722 26.9099C31.8445 26.7262 32.0569 26.5849 32.2928 26.4968C32.5287 26.4088 32.7818 26.3765 33.0323 26.4024C33.012 26.2129 33.0384 26.0214 33.1091 25.8444C33.1799 25.6675 33.2929 25.5106 33.4383 25.3874C33.7725 25.1871 34.1465 25.0625 34.534 25.0221C34.9215 24.9818 35.3132 25.0268 35.6814 25.1539C35.6814 25.0524 35.6814 24.9408 35.6814 24.8291C35.7171 24.5148 35.8209 24.2121 35.9857 23.9421C36.1505 23.6721 36.3723 23.4414 36.6355 23.266C36.9085 23.104 37.2144 23.0053 37.5306 22.9772C37.8468 22.9491 38.1653 22.9923 38.4625 23.1036L38.7873 23.2457C38.9651 22.8625 39.275 22.5562 39.6602 22.383C40.0657 22.2299 40.5048 22.1888 40.9316 22.2638C41.3584 22.3388 41.7571 22.5272 42.0861 22.8093C42.5946 23.2534 43.0267 23.778 43.365 24.3622C45.4827 27.635 47.9132 30.6944 50.6222 33.4972C51.0384 33.9438 51.485 34.4412 51.9519 34.969C53.6672 36.9076 55.6059 39.0899 57.7069 39.6684C59.808 40.247 63.5229 39.2117 66.4359 38.3489C67.6438 37.9937 68.7806 37.6587 69.7245 37.476C72.7898 36.8467 75.8348 36.2073 78.8595 35.5577L85.254 34.2179C93.6684 32.4822 102.377 30.6755 111.126 29.1429C114.07 28.6252 117.409 28.0467 120.708 27.6914C120.962 27.6914 121.256 27.6204 121.561 27.5798C122.9 27.3869 124.606 27.1433 125.722 27.7117C129.782 29.7417 138.562 51.818 139.546 54.325C139.576 54.3881 139.593 54.4567 139.595 54.5265C139.597 54.5962 139.585 54.6657 139.56 54.7306C139.534 54.7955 139.495 54.8543 139.445 54.9034C139.396 54.9526 139.336 54.9909 139.271 55.0161C139.206 55.0413 139.136 55.0528 139.067 55.0499C138.997 55.047 138.929 55.0297 138.866 54.9991C138.803 54.9685 138.747 54.9254 138.702 54.8722C138.657 54.8191 138.623 54.7572 138.602 54.6904C135.963 47.9813 128.452 30.2188 125.265 28.6252C124.403 28.1888 122.911 28.4121 121.713 28.6252L120.809 28.747C117.551 29.0921 114.232 29.6707 111.299 30.1883C102.56 31.7108 93.8714 33.5175 85.4672 35.2633L79.0727 36.6031L69.8768 38.5215C68.9836 38.694 67.8468 39.029 66.6694 39.3741C63.4823 40.318 59.8689 41.4041 57.3821 40.6936C54.8954 39.9831 52.9466 37.7298 51.1399 35.6998C50.6831 35.1821 50.2467 34.6848 49.8305 34.2585C47.0958 31.4157 44.6417 28.3158 42.5022 25.0017C42.1967 24.4562 41.8022 23.9657 41.335 23.5502C41.1463 23.3852 40.9189 23.2706 40.6739 23.2174C40.4289 23.1641 40.1745 23.1739 39.9343 23.2457C39.8322 23.2962 39.7427 23.3689 39.6725 23.4584C39.6022 23.548 39.5529 23.6522 39.5283 23.7634C39.511 23.8368 39.511 23.9133 39.5283 23.9867C39.59 24.0845 39.6378 24.1904 39.6704 24.3013C39.705 24.4132 39.6999 24.5336 39.6559 24.6421C39.6119 24.7506 39.5317 24.8405 39.4289 24.8967C39.3262 24.9528 39.2072 24.9717 39.0921 24.9502C38.977 24.9286 38.8729 24.8679 38.7975 24.7784C38.7104 24.6684 38.6418 24.545 38.5945 24.413C38.4466 24.2206 38.2454 24.0759 38.0159 23.9968C37.8613 23.9386 37.6958 23.9148 37.5311 23.9271C37.3663 23.9394 37.2062 23.9874 37.0618 24.0679C36.9303 24.1664 36.8201 24.2904 36.7377 24.4326C36.6554 24.5748 36.6027 24.7322 36.5828 24.8953C36.5629 25.0584 36.5762 25.2239 36.6219 25.3817C36.6676 25.5395 36.7447 25.6865 36.8487 25.8137C36.9302 25.9125 36.9714 26.0385 36.9639 26.1663C36.9564 26.2942 36.9009 26.4145 36.8084 26.5031C36.7159 26.5917 36.5934 26.6421 36.4653 26.6441C36.3372 26.6462 36.2131 26.5997 36.1179 26.514C35.8263 26.2636 35.4735 26.095 35.0955 26.0254C34.7174 25.9559 34.3277 25.9879 33.9661 26.1182C33.8037 26.2501 34.098 26.7069 34.1589 26.7982C34.2232 26.8829 34.2579 26.9863 34.2579 27.0926C34.2579 27.1989 34.2232 27.3022 34.1589 27.3869C34.0943 27.4718 34.0047 27.5341 33.9026 27.5651C33.8006 27.596 33.6914 27.5941 33.5905 27.5595C33.1541 27.4072 32.5755 27.2854 32.3116 27.5595C31.4895 28.4628 32.6872 32.5025 34.2198 35.8419C36.0549 39.8828 38.2066 43.7722 40.6549 47.4738C43.4491 51.6869 46.4999 55.7241 49.7899 59.5624L50.5309 60.4353C52.1346 62.3435 54.1443 64.7085 56.3976 65.5103C60.4576 66.4035 62.1222 64.9927 65.086 62.4653C66.101 61.5823 67.2479 60.5977 68.6892 59.5421C74.3631 55.3603 110.578 49.4632 112.121 49.2196C112.245 49.1952 112.373 49.2196 112.479 49.2877C112.585 49.3559 112.66 49.4624 112.689 49.585L115.836 61.1255C115.853 61.1922 115.857 61.2616 115.848 61.3298C115.838 61.398 115.816 61.4637 115.781 61.523C115.746 61.5824 115.7 61.6344 115.645 61.6759C115.59 61.7174 115.527 61.7477 115.46 61.765C115.394 61.7823 115.324 61.7864 115.256 61.7769C115.188 61.7674 115.122 61.7445 115.063 61.7096C115.004 61.6748 114.952 61.6286 114.91 61.5736C114.869 61.5187 114.838 61.4561 114.821 61.3894L111.776 50.2853C107.503 50.9958 74.3732 56.5682 69.2272 60.3541C67.8265 61.3691 66.6897 62.3841 65.6848 63.2266C63.3808 65.216 61.635 66.7182 58.661 66.7182Z" fill="#231F20"/>
<path d="M212.941 50.5798L223.933 54.1627L243.411 44.1041L236.124 39.1001L241.909 29.8129C241.909 29.8129 281.596 41.2418 285.036 49.0979C294.09 69.6821 253.663 62.1305 231.16 78.5329C231.16 78.5329 208.759 105.633 182.765 121.67C182.765 121.67 159.613 99.6043 149.473 79.1825L170.91 53.2695C170.91 53.2695 159.664 16.2626 177.771 1.04777C183.059 -3.40808 215.032 16.9325 215.032 16.9325L207.277 23.8751L194.976 21.3275V33.5988C194.976 33.5988 208.546 41.9117 212.941 50.5798Z" fill="#E9C46A"/>
<path d="M243.685 26.1285V25.9762C243.562 25.4191 243.274 24.9123 242.857 24.5228C242.44 24.1332 241.915 23.8791 241.351 23.794C241.547 21.7165 241.309 19.6211 240.654 17.64C239.999 15.6588 238.94 13.8351 237.545 12.2839C236.164 10.7614 234.5 9.53322 233.099 8.01072C232.361 7.28995 231.779 6.42512 231.39 5.46999C231.001 4.51486 230.812 3.48985 230.836 2.45867C229.965 3.24235 229.265 4.1961 228.778 5.26101C228.291 6.32593 228.027 7.4794 228.004 8.65017C226.271 6.48304 225.364 3.77066 225.446 0.99707C221.122 4.14357 216.473 7.76712 215.367 13.0045C214.707 10.8964 214.707 8.63697 215.367 6.52882C212.088 8.17312 210.769 12.0809 209.764 15.6029C208.982 18.0753 208.405 20.6078 208.039 23.1748C207.724 25.9052 208.536 27.6611 209.46 30.1885C211.043 34.5225 213.246 38.7449 216.656 41.861C220.97 45.789 228.318 48.1337 233.353 44.3883C238.327 40.6812 241.884 35.384 243.432 29.3765C243.767 28.3281 243.854 27.2162 243.685 26.1285V26.1285Z" fill="#F5F3F3"/>
<path d="M227.415 46.7533C223.301 46.6104 219.373 45.0012 216.341 42.2162C213.296 39.4554 210.921 35.5782 209.013 30.3408L208.729 29.5592C207.917 27.3769 207.267 25.6514 207.562 23.1038C207.924 20.5545 208.495 18.0391 209.267 15.5827V15.4406C210.282 11.7967 211.713 7.76715 215.123 6.06195C215.212 6.01603 215.312 5.99732 215.412 6.00815C215.511 6.01898 215.605 6.05888 215.682 6.12285C215.758 6.18936 215.813 6.27671 215.84 6.37411C215.867 6.47151 215.865 6.5747 215.834 6.67095C215.407 8.04199 215.266 9.48584 215.418 10.9137C217.123 6.6811 220.99 3.5752 225.141 0.530201C225.222 0.480905 225.315 0.454834 225.41 0.454834C225.505 0.454834 225.598 0.480905 225.679 0.530201C225.764 0.574223 225.835 0.641432 225.884 0.724056C225.932 0.80668 225.956 0.901343 225.953 0.9971C225.892 3.19648 226.474 5.36586 227.628 7.23935C227.983 5.25771 228.982 3.44865 230.47 2.0933C230.545 2.02295 230.641 1.97818 230.743 1.96542C230.845 1.95265 230.948 1.97255 231.038 2.02225C231.129 2.06839 231.203 2.14039 231.252 2.22901C231.3 2.31763 231.322 2.41883 231.313 2.5196C231.089 4.712 232.551 6.69125 233.444 7.6758C234.124 8.4269 234.895 9.1171 235.647 9.79715C236.431 10.4749 237.18 11.1932 237.89 11.949C239.276 13.4979 240.342 15.3065 241.025 17.27C241.708 19.2335 241.995 21.3129 241.869 23.388C242.435 23.5719 242.943 23.9011 243.342 24.3429C243.741 24.7846 244.017 25.3233 244.142 25.9052V26.0676C244.333 27.2239 244.253 28.4086 243.909 29.5288C242.348 35.6552 238.724 41.0569 233.647 44.8248C231.833 46.1251 229.646 46.8018 227.415 46.7533ZM214.596 7.6352C212.271 9.4013 211.185 12.5986 210.282 15.7552V15.8871C209.526 18.291 208.966 20.7519 208.607 23.2459C208.343 25.5601 208.922 27.1029 209.713 29.2446L210.008 30.0261C211.865 35.1011 214.169 38.8465 217.113 41.4956C221.335 45.3425 228.399 47.5856 233.16 43.9925C238.054 40.3649 241.546 35.1592 243.046 29.2547C243.348 28.2903 243.425 27.2693 243.269 26.2706V26.2706V26.1488C243.175 25.6721 242.933 25.2371 242.578 24.9055C242.223 24.5739 241.772 24.3626 241.29 24.3015C241.154 24.2911 241.027 24.2294 240.935 24.129C240.891 24.0778 240.858 24.0179 240.839 23.9532C240.819 23.8884 240.814 23.8203 240.823 23.7534C241.01 21.739 240.779 19.7078 240.145 17.7867C239.511 15.8656 238.488 14.096 237.139 12.5884C236.449 11.8763 235.724 11.1988 234.967 10.5584C234.169 9.86966 233.41 9.13776 232.693 8.366C231.456 7.09174 230.628 5.47615 230.318 3.72745C229.188 5.1234 228.552 6.85463 228.511 8.6502C228.508 8.75398 228.474 8.85439 228.412 8.93788C228.35 9.02137 228.264 9.08392 228.166 9.1171C228.068 9.15362 227.961 9.15755 227.86 9.1283C227.759 9.09905 227.671 9.03817 227.608 8.9547C226.014 6.96587 225.083 4.527 224.948 1.98165C220.655 5.14845 216.829 8.45735 215.864 13.1467C215.842 13.2579 215.782 13.3584 215.696 13.432C215.609 13.5056 215.501 13.5481 215.387 13.5527C215.276 13.5561 215.166 13.5233 215.074 13.4593C214.983 13.3953 214.915 13.3034 214.88 13.1974C214.329 11.3948 214.232 9.48446 214.596 7.6352V7.6352Z" fill="#231F20"/>
<path d="M202.243 42.6627L195.95 49.4937C195.95 49.4937 193.758 55.4213 201.715 58.8317C209.673 62.2421 214.362 57.3701 214.362 57.3701L227.77 43.6879C227.77 43.6879 224.725 37.2832 234.358 27.5392C227.089 25.7769 220.428 22.0923 215.073 16.8716C215.073 16.8716 203.217 26.3415 200.122 32.1676C197.026 37.9937 202.243 42.6627 202.243 42.6627Z" fill="#F5F3F3"/>
<path d="M207.176 60.547C205.223 60.5206 203.295 60.0958 201.512 59.2986C193.209 55.7359 195.422 49.382 195.473 49.3211C195.501 49.2604 195.535 49.2026 195.574 49.1486L201.543 42.6729C200.365 41.4143 196.894 37.0701 199.634 31.9139C202.74 26.0675 214.23 16.8513 214.717 16.4656C214.81 16.3842 214.929 16.3394 215.052 16.3394C215.176 16.3394 215.295 16.3842 215.387 16.4656C220.69 21.6118 227.27 25.2489 234.449 27.0013C234.539 27.0193 234.623 27.0606 234.693 27.1211C234.762 27.1817 234.815 27.2593 234.845 27.3464C234.87 27.4351 234.871 27.5289 234.848 27.6181C234.825 27.7073 234.778 27.7887 234.713 27.8539C225.578 37.1919 228.196 43.3732 228.227 43.4341C228.271 43.5277 228.285 43.6327 228.267 43.7346C228.249 43.8365 228.199 43.9301 228.125 44.0025L214.727 57.6847C212.66 59.5546 209.963 60.5766 207.176 60.547V60.547ZM196.397 49.7576C196.163 50.4985 194.955 55.3807 201.908 58.3648C209.429 61.5925 213.814 57.1975 213.997 57.0148L227.192 43.5559C226.704 42.1045 225.456 36.2276 233.383 27.8234C226.505 25.958 220.194 22.4226 215.012 17.5313C213.053 19.1452 203.258 27.2753 200.538 32.3909C197.665 37.8009 202.568 42.2364 202.568 42.277C202.668 42.3693 202.73 42.4963 202.74 42.6323C202.745 42.699 202.736 42.7661 202.713 42.829C202.69 42.892 202.655 42.9494 202.608 42.9977L196.397 49.7576Z" fill="#231F20"/>
<path d="M220.675 45.6672C221.11 46.4368 221.692 47.1128 222.389 47.6563C223.086 48.1998 223.883 48.6 224.735 48.834C225.937 49.1223 227.192 49.0972 228.381 48.7613C229.57 48.4255 230.653 47.7899 231.526 46.9157C232.232 46.3222 232.794 45.576 233.17 44.7334C233.351 44.3135 233.439 43.8594 233.429 43.4022C233.418 42.945 233.309 42.4954 233.109 42.0843C232.478 41.1564 231.557 40.464 230.49 40.1152C228.998 39.4351 228.339 39.9426 226.857 40.0441C226.999 40.0441 227.293 39.902 227.435 39.902" fill="#F5F3F3"/>
<path d="M226.41 49.575C225.793 49.5735 225.179 49.4916 224.583 49.3314C223.669 49.0772 222.813 48.6452 222.066 48.06C221.319 47.4747 220.695 46.7479 220.229 45.921C220.163 45.8039 220.146 45.6655 220.183 45.5361C220.219 45.4067 220.305 45.2969 220.422 45.2308C220.479 45.1969 220.543 45.1749 220.61 45.1663C220.676 45.1576 220.743 45.1624 220.808 45.1805C220.872 45.1985 220.932 45.2293 220.985 45.2711C221.037 45.3129 221.08 45.3648 221.112 45.4237C221.932 46.8486 223.276 47.8973 224.857 48.3469C225.971 48.6105 227.135 48.5827 228.235 48.2663C229.336 47.9498 230.336 47.3554 231.14 46.5402C231.787 45.9875 232.298 45.2928 232.632 44.5102C232.791 44.1613 232.873 43.7822 232.873 43.3988C232.873 43.0153 232.791 42.6363 232.632 42.2873C232.058 41.4717 231.235 40.863 230.287 40.5517C229.6 40.2256 228.817 40.1606 228.085 40.369C227.716 40.4408 227.343 40.4917 226.968 40.5212H226.857C226.722 40.5212 226.593 40.4678 226.498 40.3726C226.403 40.2774 226.349 40.1483 226.349 40.0137C226.349 39.8791 226.403 39.7501 226.498 39.6549C226.593 39.5597 226.722 39.5062 226.857 39.5062H226.918H227.029C227.176 39.4522 227.33 39.4181 227.486 39.4047H227.669H227.933C228.871 39.1535 229.869 39.2471 230.744 39.6686C231.89 40.0665 232.877 40.825 233.556 41.8306C233.786 42.3027 233.913 42.8183 233.929 43.3433C233.945 43.8682 233.849 44.3906 233.647 44.8756C233.252 45.7859 232.655 46.5945 231.901 47.2405C230.433 48.6874 228.47 49.522 226.41 49.575V49.575Z" fill="#231F20"/>
<path d="M196.904 48.4585C199.357 49.9486 202.261 50.5171 205.095 50.0622C210.17 49.4227 211.774 46.8548 211.774 46.8548C211.774 46.8548 205.988 46.8548 202.243 42.6628L196.904 48.4585Z" fill="#231F20"/>
<path d="M203.268 50.6813C200.925 50.7429 198.615 50.1109 196.63 48.8644C196.573 48.823 196.525 48.7699 196.49 48.7086C196.455 48.6474 196.434 48.5794 196.427 48.5092C196.418 48.4375 196.426 48.3649 196.448 48.2964C196.471 48.2279 196.509 48.1654 196.559 48.1133L201.888 42.3177C201.936 42.267 201.995 42.2265 202.059 42.1986C202.124 42.1707 202.193 42.156 202.263 42.1553C202.334 42.152 202.405 42.165 202.47 42.1931C202.535 42.2213 202.593 42.2639 202.639 42.3177C206.191 46.2863 211.774 46.3777 211.774 46.3777C211.862 46.3782 211.949 46.4019 212.026 46.4464C212.102 46.4909 212.166 46.5547 212.21 46.6314C212.258 46.7094 212.283 46.7989 212.283 46.8902C212.283 46.9816 212.258 47.0711 212.21 47.1491C212.139 47.2607 210.454 49.9302 205.166 50.5899C204.536 50.6643 203.902 50.6948 203.268 50.6813V50.6813ZM197.696 48.3468C199.959 49.4972 202.521 49.9225 205.034 49.5648C207.112 49.403 209.089 48.6056 210.698 47.281C207.524 46.9737 204.546 45.6081 202.243 43.4037L197.696 48.3468Z" fill="#231F20"/>
<path d="M217.042 28.0771C217.042 28.0771 209.48 30.4319 209.581 31.9849C209.683 33.5378 212.444 34.7863 212.444 34.7863" fill="white"/>
<path d="M212.434 35.2938C212.366 35.3067 212.298 35.3067 212.231 35.2938C211.916 35.1517 209.186 33.8627 209.074 32.0661C208.962 30.2696 213.885 28.5137 216.93 27.59C217.065 27.551 217.209 27.567 217.332 27.6346C217.455 27.7022 217.546 27.8157 217.585 27.9503C217.624 28.0849 217.608 28.2295 217.54 28.3523C217.473 28.4751 217.359 28.566 217.224 28.605C213.489 29.7621 210.17 31.3556 210.119 31.9951C210.18 33.0101 212.038 34.0251 212.677 34.3601C212.812 34.3883 212.93 34.4689 213.005 34.584C213.08 34.6992 213.106 34.8395 213.078 34.9741C213.05 35.1087 212.969 35.2266 212.854 35.3018C212.739 35.377 212.599 35.4033 212.464 35.3751L212.434 35.2938Z" fill="#231F20"/>
<path d="M212.87 41.1301H212.738C212.657 41.1301 205.034 38.9275 204.161 30.909C204.147 30.7759 204.186 30.6425 204.27 30.5379C204.353 30.4334 204.475 30.3661 204.608 30.3508C204.741 30.3365 204.874 30.3755 204.979 30.4591C205.084 30.5428 205.151 30.6644 205.166 30.7974C205.968 38.1257 212.718 40.0643 213.002 40.1455C213.137 40.163 213.259 40.2333 213.341 40.3408C213.424 40.4484 213.461 40.5844 213.443 40.719C213.426 40.8536 213.356 40.9757 213.248 41.0585C213.141 41.1414 213.005 41.178 212.87 41.1605V41.1301Z" fill="#231F20"/>
<path d="M224.441 32.1168H224.329C222.492 31.721 221.284 31.1018 220.696 30.0868C220.405 29.6589 220.296 29.1335 220.391 28.6252C220.422 28.4949 220.504 28.3822 220.618 28.3119C220.732 28.2415 220.87 28.2191 221 28.2497C221.129 28.2833 221.24 28.3654 221.31 28.4788C221.38 28.5923 221.404 28.7283 221.376 28.8587C221.274 29.3763 221.812 30.4928 224.542 31.0815C224.674 31.1131 224.788 31.1938 224.862 31.3071C224.935 31.4204 224.963 31.5576 224.938 31.6905C224.919 31.8089 224.859 31.9166 224.768 31.9946C224.677 32.0727 224.561 32.116 224.441 32.1168Z" fill="#231F20"/>
<path d="M215.062 25.428H214.961C214.276 25.2175 213.672 24.8038 213.228 24.2419C212.784 23.6799 212.521 22.9962 212.474 22.2815C212.456 22.1474 212.49 22.0116 212.57 21.902C212.649 21.7925 212.767 21.7176 212.9 21.6928C213.033 21.6751 213.168 21.7096 213.276 21.7891C213.384 21.8687 213.457 21.9869 213.479 22.119C213.794 24.0983 215.113 24.4231 215.174 24.4333C215.304 24.467 215.415 24.5486 215.487 24.6617C215.559 24.7747 215.585 24.9108 215.56 25.0423C215.531 25.1523 215.466 25.2496 215.376 25.3194C215.287 25.3891 215.176 25.4272 215.062 25.428Z" fill="#231F20"/>
<path d="M155.015 83.4759C155.015 83.4759 142.835 49.1283 141.688 48.296C140.541 47.4637 110.355 60.0192 110.355 60.0192L121.439 101.715C121.439 101.715 155.157 100.934 155.015 83.4759Z" fill="#231F20"/>
<path d="M121.429 102.213C121.317 102.214 121.208 102.177 121.12 102.109C121.032 102.041 120.969 101.945 120.941 101.837L109.858 60.141C109.824 60.0239 109.836 59.8984 109.89 59.7895C109.945 59.6805 110.038 59.5959 110.152 59.5523C124.047 53.777 140.856 47.078 141.962 47.89C143.068 48.702 152.579 75.2138 155.462 83.3033C155.467 83.3574 155.467 83.4117 155.462 83.4657C155.543 90.8651 149.635 96.4476 138.389 99.6245C132.845 101.109 127.153 101.977 121.418 102.213H121.429ZM110.944 60.3136L121.814 101.188C125.57 101.025 154.538 99.2388 154.477 83.5672C149.788 70.3722 142.571 50.6203 141.384 48.7629C139.282 48.8441 121.906 55.7664 110.944 60.3136Z" fill="#231F20"/>
<path d="M124.108 76.1983C124.108 76.1983 89.3851 53.5232 83.4169 57.2178C77.4487 60.9124 59.1686 128.968 57.575 129.364C50.9166 131.029 39.3963 133.322 39.0005 133.262C36.9705 132.977 27.3483 131.932 30.2005 136.581C32.5451 140.377 36.869 140.042 40.7463 140.955C45.8213 142.183 46.9682 142.559 52.1244 143.645C56.8137 144.626 61.5166 145.577 66.2329 146.497C67.5728 146.755 68.9601 146.569 70.1851 145.969C71.4102 145.368 72.4064 144.385 73.0233 143.168L96.1958 87.82L111.045 98.8226L124.108 76.1983Z" fill="#F5F3F3"/>
<path d="M67.4408 147.117C67.0116 147.116 66.5834 147.075 66.1619 146.995C61.5842 146.102 56.834 145.147 52.0534 144.143C48.6531 143.432 47.0494 143.026 44.8367 142.478C43.6999 142.194 42.4109 141.869 40.655 141.463C39.7821 141.26 38.8584 141.108 37.9754 140.966C34.9304 140.478 31.723 139.951 29.8554 136.906C29.53 136.517 29.3281 136.039 29.2757 135.535C29.2232 135.03 29.3226 134.521 29.561 134.074C31.0023 131.871 37.2648 132.561 39.1426 132.825C39.8429 132.825 50.8557 130.592 57.4126 128.968C58.1332 127.862 60.894 118.818 63.8274 109.328C71.9474 82.9888 79.4888 59.1465 83.2037 56.8526C85.8833 55.188 93.4451 57.8676 106.305 64.9726C115.643 70.1288 124.362 75.8026 124.453 75.8635C124.561 75.9361 124.637 76.0461 124.667 76.172C124.697 76.2979 124.679 76.4304 124.616 76.5436L111.492 98.9852C111.413 99.1085 111.289 99.196 111.147 99.2288C111.078 99.2452 111.007 99.2454 110.938 99.2296C110.869 99.2137 110.805 99.1822 110.751 99.1375L96.419 88.5206L73.5206 143.331C72.956 144.462 72.089 145.414 71.0158 146.083C69.9425 146.751 68.7051 147.109 67.4408 147.117ZM34.8897 133.495C32.7176 133.495 30.8298 133.81 30.3629 134.602C30.099 134.997 30.2004 135.617 30.6673 136.347C32.3421 139.068 35.1536 139.514 38.1276 139.991C39.0411 140.133 39.9749 140.275 40.8884 140.499C42.6545 140.915 43.9334 141.24 45.0804 141.514C47.2829 142.062 48.8866 142.458 52.2564 143.168C57.0371 144.183 61.7872 145.127 66.3547 146.02C67.5846 146.257 68.858 146.088 69.9836 145.539C71.1092 144.99 72.0263 144.09 72.597 142.975L95.7288 87.6071C95.7604 87.5369 95.8066 87.4743 95.8644 87.4235C95.9222 87.3728 95.9902 87.335 96.0638 87.3127C96.1388 87.2945 96.2168 87.2932 96.2924 87.309C96.3679 87.3248 96.4389 87.3573 96.5003 87.4041L110.893 98.0616L123.428 76.4015C113.542 69.9765 88.2889 54.8429 83.6808 57.695C79.9862 59.9788 70.8004 89.8502 64.7307 109.612C59.0569 128.075 58.4276 129.719 57.7272 129.912C51.6372 131.435 39.6095 133.972 38.9599 133.83C37.6126 133.624 36.2526 133.512 34.8897 133.495Z" fill="#231F20"/>
<path d="M182.765 121.599C182.765 121.599 161.653 139.484 142.713 136.033C123.773 132.582 100.205 100.812 100.205 100.812L121.084 71.2148L155.015 83.476C155.015 83.476 180.39 113.297 182.765 121.599Z" fill="#231F20"/>
<path d="M147.687 136.977C145.985 136.981 144.286 136.832 142.612 136.53C134.644 135.079 125.022 128.674 113.989 117.489C108.919 112.33 104.173 106.862 99.7787 101.117C99.7175 101.031 99.6846 100.928 99.6846 100.822C99.6846 100.717 99.7175 100.614 99.7787 100.528L120.657 70.9204C120.72 70.8304 120.811 70.7637 120.915 70.7306C121.02 70.6976 121.133 70.7001 121.236 70.7377L155.117 82.9989C155.199 83.0305 155.273 83.083 155.33 83.1511C156.345 84.3691 180.816 113.144 183.202 121.467C183.231 121.561 183.232 121.66 183.205 121.754C183.178 121.848 183.124 121.932 183.049 121.995C182.897 122.158 165.165 136.977 147.687 136.977ZM100.855 100.802C103.28 103.999 125.215 132.338 142.805 135.535C160.181 138.702 179.72 123.426 182.176 121.427C179.405 113.155 156.294 85.8003 154.68 83.8718L121.297 71.7933L100.855 100.802Z" fill="#231F20"/>
<path d="M157.867 93.0068C157.769 93.0113 157.673 92.9827 157.593 92.9256C141.729 82.8365 121.053 71.773 120.87 71.6106C120.812 71.5788 120.76 71.5356 120.718 71.4836C120.676 71.4316 120.644 71.3719 120.625 71.3077C120.607 71.2436 120.601 71.1764 120.608 71.1099C120.615 71.0434 120.635 70.9791 120.667 70.9204C120.698 70.862 120.74 70.8104 120.792 70.7684C120.843 70.7265 120.902 70.6952 120.965 70.6763C121.028 70.6574 121.095 70.6513 121.16 70.6584C121.226 70.6654 121.29 70.6855 121.347 70.7174C121.55 70.8291 142.236 81.8824 158.131 92.0324C158.244 92.1054 158.323 92.2192 158.354 92.3498C158.384 92.4805 158.362 92.6178 158.293 92.7328C158.252 92.8112 158.191 92.8776 158.116 92.9256C158.041 92.9735 157.956 93.0015 157.867 93.0068V93.0068Z" fill="white"/>
<path d="M220.381 58.1212C220.243 58.1171 220.111 58.0587 220.016 57.9588C219.968 57.9125 219.931 57.8572 219.905 57.7962C219.88 57.7352 219.866 57.6697 219.866 57.6035C219.866 57.5374 219.88 57.4719 219.905 57.4109C219.931 57.3499 219.968 57.2946 220.016 57.2483C230.166 47.484 251.481 40.5312 251.673 40.4703C251.737 40.4483 251.804 40.4392 251.871 40.4438C251.937 40.4483 252.003 40.4662 252.062 40.4966C252.122 40.5269 252.175 40.569 252.218 40.6203C252.261 40.6716 252.293 40.731 252.313 40.7951C252.355 40.923 252.344 41.0622 252.283 41.1821C252.222 41.3019 252.116 41.3928 251.988 41.4346C251.775 41.4955 230.673 48.3772 220.716 57.9791C220.625 58.0646 220.506 58.115 220.381 58.1212V58.1212Z" fill="#231F20"/>
<path d="M194.976 21.764C194.845 21.7525 194.722 21.6954 194.629 21.6026C194.537 21.5098 194.479 21.3872 194.468 21.2565C194.539 18.389 193.762 15.5645 192.235 13.1365C192.154 13.0288 192.12 12.8934 192.139 12.7602C192.158 12.6269 192.229 12.5067 192.337 12.426C192.444 12.3452 192.58 12.3105 192.713 12.3296C192.846 12.3486 192.966 12.4198 193.047 12.5275C194.736 15.1368 195.586 18.2006 195.483 21.3072C195.47 21.4328 195.411 21.5492 195.318 21.6337C195.224 21.7182 195.102 21.7646 194.976 21.764Z" fill="#231F20"/>
<path d="M249.339 122.188C245.654 117.539 240.63 114.068 235.383 111.307C229.293 108.069 222.584 105.542 215.722 106.07C208.861 106.598 201.959 110.85 200.03 117.448C195.171 112.975 189.236 109.837 182.804 108.338C176.372 106.839 169.662 107.031 163.326 108.895C156.99 110.759 151.244 114.232 146.649 118.975C142.053 123.718 138.763 129.57 137.1 135.961C120.617 129.405 99.6975 137.941 92.5113 154.16" fill="#F5F3F3"/>
<path d="M92.491 154.668C92.4207 154.683 92.3481 154.683 92.2778 154.668C92.1555 154.613 92.0601 154.511 92.0126 154.386C91.965 154.26 91.9692 154.121 92.0241 153.998C99.261 137.657 120.038 129.029 136.735 135.332C138.483 128.988 141.818 123.193 146.424 118.493C151.031 113.793 156.758 110.343 163.066 108.467C169.374 106.592 176.056 106.353 182.482 107.774C188.908 109.194 194.866 112.226 199.797 116.585C201.928 110.647 208.333 106.171 215.692 105.603C221.65 105.136 227.993 106.831 235.626 110.901C241.99 114.301 246.477 117.803 249.745 121.914C249.827 122.022 249.864 122.158 249.847 122.293C249.83 122.428 249.76 122.551 249.654 122.635C249.547 122.717 249.413 122.753 249.279 122.736C249.146 122.719 249.025 122.649 248.943 122.543C245.776 118.544 241.391 115.124 235.149 111.794C227.689 107.816 221.528 106.181 215.763 106.618C208.516 107.176 202.243 111.693 200.538 117.631C200.515 117.713 200.471 117.788 200.41 117.848C200.35 117.909 200.275 117.953 200.193 117.976C200.109 118.001 200.02 118.004 199.934 117.984C199.849 117.965 199.77 117.923 199.705 117.864C194.911 113.445 189.053 110.344 182.703 108.862C176.353 107.38 169.728 107.568 163.472 109.407C157.217 111.247 151.545 114.676 147.008 119.36C142.472 124.044 139.226 129.823 137.587 136.134C137.57 136.204 137.537 136.27 137.491 136.326C137.446 136.382 137.388 136.427 137.324 136.459C137.258 136.487 137.187 136.501 137.115 136.501C137.044 136.501 136.973 136.487 136.907 136.459C120.606 129.973 100.073 138.347 92.968 154.384C92.9258 154.473 92.8578 154.548 92.7729 154.599C92.6879 154.649 92.5897 154.673 92.491 154.668V154.668Z" fill="#D1D3D4"/>
<path d="M235.2 136.398C235.072 136.396 234.947 136.357 234.84 136.285C234.733 136.214 234.649 136.114 234.598 135.996C234.547 135.878 234.53 135.749 234.551 135.622C234.571 135.495 234.627 135.377 234.713 135.281C241.178 128.055 247.512 123.101 254.069 120.148C262.29 116.443 271.151 115.946 278.429 118.788C278.594 118.851 278.727 118.978 278.8 119.139C278.872 119.301 278.877 119.485 278.815 119.65C278.747 119.815 278.618 119.946 278.455 120.016C278.291 120.086 278.107 120.09 277.942 120.026C271.05 117.316 262.564 117.803 254.668 121.366C248.283 124.238 242.092 129.09 235.748 136.175C235.681 136.253 235.597 136.315 235.501 136.354C235.406 136.392 235.303 136.408 235.2 136.398V136.398Z" fill="#D1D3D4"/>
<path d="M77.0427 162.402C78.7377 160.677 81.1027 159.834 83.3966 159.053C85.9919 158.007 88.7287 157.353 91.5166 157.114C97.2615 156.891 102.519 160.159 107.361 163.204" fill="white"/>
<path d="M107.31 163.742C107.213 163.742 107.118 163.714 107.036 163.661C101.697 160.23 96.8859 157.408 91.4861 157.622C88.7505 157.86 86.0654 158.503 83.5184 159.53C81.4072 160.261 79.0118 161.083 77.3675 162.757C77.3208 162.805 77.2652 162.844 77.2037 162.87C77.1423 162.897 77.0762 162.911 77.0093 162.912C76.8741 162.914 76.7437 162.862 76.6468 162.768C76.5499 162.673 76.4944 162.545 76.4925 162.409C76.4906 162.274 76.5425 162.144 76.6367 162.047C78.4535 160.2 80.9707 159.337 83.1834 158.566C85.8263 157.51 88.6102 156.85 91.4455 156.607C97.0991 156.414 102.103 159.286 107.584 162.808C107.697 162.881 107.776 162.996 107.805 163.127C107.833 163.258 107.809 163.395 107.736 163.509C107.69 163.579 107.627 163.638 107.552 163.678C107.478 163.719 107.395 163.741 107.31 163.742Z" fill="#D1D3D4"/>
<path d="M231.516 92.3065C233.979 84.2693 238.194 76.8785 243.858 70.6667C247.238 66.901 251.318 63.3282 256.545 61.42C265.295 58.2431 275.556 60.4761 282.753 65.0436" fill="white"/>
<path d="M231.516 92.8139H231.363C231.236 92.7741 231.129 92.6857 231.067 92.568C231.004 92.4502 230.99 92.3125 231.028 92.1846C233.525 84.0802 237.777 76.6257 243.482 70.3519C247.745 65.6017 251.836 62.6176 256.373 60.9632C264.432 58.0298 274.886 59.4711 283.017 64.6273C283.074 64.6616 283.125 64.7072 283.164 64.7614C283.204 64.8157 283.232 64.8774 283.248 64.9428C283.263 65.0083 283.264 65.0761 283.253 65.1423C283.241 65.2084 283.216 65.2715 283.179 65.3277C283.144 65.3844 283.098 65.4337 283.043 65.4725C282.989 65.5114 282.928 65.5392 282.863 65.5543C282.798 65.5694 282.73 65.5715 282.664 65.5605C282.598 65.5494 282.535 65.5255 282.479 65.4901C274.602 60.4861 264.493 59.0854 256.728 61.9173C252.353 63.5108 248.385 66.4036 244.244 71.0523C238.633 77.2082 234.453 84.5285 232.003 92.4891C231.964 92.5861 231.896 92.669 231.81 92.727C231.723 92.785 231.62 92.8153 231.516 92.8139V92.8139Z" fill="#D1D3D4"/>
</svg>
