<?xml version="1.0" encoding="utf-8"?>
<svg xmlns="http://www.w3.org/2000/svg" xmlns:xlink="http://www.w3.org/1999/xlink" style="margin: auto; background: rgb(0, 0, 0); display: block; z-index: 1; position: relative; shape-rendering: auto;" width="1654" height="887" preserveAspectRatio="xMidYMid" viewBox="0 0 1654 887">
<g transform="translate(827,443.5) scale(1,1) translate(-827,-443.5)"><g transform="translate(1373.90491262266,-176.84185458439003) scale(100)" opacity="0.59">
  <path d="M7.9392 0 C7.9392 6.2852 6.285200000000001 8.6008 5.266471095053277e-16 8.6008 S-7.939199999999999 6.285200000000001 -7.9392 9.722715867790666e-16 S-6.2852000000000015 -8.600799999999998 -1.5799413285159832e-15 -8.6008 S7.939199999999998 -6.2852000000000015 7.9392 -1.944543173558133e-15" fill="#ffea00" stroke-width="0">
    <animateTransform attributeName="transform" type="rotate" dur="100s" repeatCount="indefinite" values="0;180"></animateTransform>
  </path>
</g><g transform="translate(1483.2858951471922,-300.9102255012681) scale(100)" opacity="0.59">
  <path d="M9.52704 0 C9.52704 7.54224 7.5422400000000005 10.32096 6.319765314063933e-16 10.32096 S-9.527039999999998 7.5422400000000005 -9.52704 1.16672590413488e-15 S-7.542240000000001 -10.320959999999998 -1.8959295942191797e-15 -10.32096 S9.527039999999998 -7.542240000000002 9.52704 -2.33345180826976e-15" fill="#ffca00" stroke-width="0">
    <animateTransform attributeName="transform" type="rotate" dur="50s" repeatCount="indefinite" values="0;180"></animateTransform>
  </path>
</g><g transform="translate(1745.8002532060689,-598.6743157017752) scale(100)" opacity="0.59">
  <path d="M13.337855999999999 0 C13.337855999999999 10.559135999999999 10.559135999999999 14.449344 8.847671439689506e-16 14.449344 S-13.337855999999997 10.559136 -13.337855999999999 1.6334162657888318e-15 S-10.559136 -14.449343999999998 -2.654301431906852e-15 -14.449344 S13.337855999999997 -10.559136000000002 13.337855999999999 -3.2668325315776636e-15" fill="#ffa900" stroke-width="0">
    <animateTransform attributeName="transform" type="rotate" dur="33.333333333333336s" repeatCount="indefinite" values="0;180"></animateTransform>
  </path>
</g><g transform="translate(2297.08040512971,-1223.9789051228406) scale(100)" opacity="0.59">
  <path d="M21.340569600000002 0 C21.340569600000002 16.894617600000004 16.894617600000004 23.118950400000003 1.4156274303503213e-15 23.118950400000003 S-21.3405696 16.894617600000007 -21.340569600000002 2.6134660252621315e-15 S-16.894617600000007 -23.1189504 -4.2468822910509636e-15 -23.118950400000003 S21.3405696 -16.894617600000007 21.340569600000002 -5.226932050524263e-15" fill="#ff8800" stroke-width="0">
    <animateTransform attributeName="transform" type="rotate" dur="25s" repeatCount="indefinite" values="0;180"></animateTransform>
  </path>
</g></g>
</svg>