<?xml version="1.0" encoding="utf-8"?>
<svg xmlns="http://www.w3.org/2000/svg" xmlns:xlink="http://www.w3.org/1999/xlink" style="margin: auto; background: rgb(0, 0, 0); display: block; z-index: 1; position: relative; shape-rendering: auto;" width="1741" height="1488" preserveAspectRatio="xMidYMid" viewBox="0 0 1741 1488">
<g transform="translate(870.5,744) scale(1,1) translate(-870.5,-744)"><g transform="translate(680.1298429488984,565.2305232867229) scale(100)" opacity="0.54">
  <path d="M2.533155 0 C2.533155 0.8617949999999999 2.5113887283333898 1.2926265513480681 1.902007639840729 1.9020076398407288 S0.861795 2.533155 1.5511100812470567e-16 2.533155 S-1.2926265513480681 2.5113887283333898 -1.9020076398407288 1.902007639840729 S-2.533155 0.8617950000000002 -2.533155 3.1022201624941133e-16 S-2.5113887283333898 -1.292626551348068 -1.9020076398407293 -1.9020076398407288 S-0.8617950000000003 -2.533155 -4.653330243741169e-16 -2.533155 S1.2926265513480675 -2.5113887283333898 1.9020076398407284 -1.9020076398407293 S2.533155 -0.8617950000000005 2.533155 -6.204440324988227e-16" fill="#f9ae5c" stroke-width="0">
    <animateTransform attributeName="transform" type="rotate" dur="33.333333333333336s" repeatCount="indefinite" values="0;90"></animateTransform>
  </path>
</g><g transform="translate(642.0558115386782,529.4766279440676) scale(100)" opacity="0.54">
  <path d="M3.0397859999999994 0 C3.0397859999999994 1.0341539999999998 3.0136664740000674 1.5511518616176816 2.2824091678088747 2.2824091678088743 S1.034154 3.0397859999999994 1.8613320974964678e-16 3.0397859999999994 S-1.5511518616176816 3.0136664740000674 -2.2824091678088743 2.2824091678088747 S-3.0397859999999994 1.0341540000000002 -3.0397859999999994 3.7226641949929355e-16 S-3.0136664740000674 -1.5511518616176814 -2.2824091678088747 -2.2824091678088743 S-1.0341540000000005 -3.0397859999999994 -5.583996292489403e-16 -3.0397859999999994 S1.551151861617681 -3.0136664740000674 2.282409167808874 -2.2824091678088747 S3.039785999999999 -1.0341540000000005 3.0397859999999994 -7.445328389985871e-16" fill="#ef9845" stroke-width="0">
    <animateTransform attributeName="transform" type="rotate" dur="16.666666666666668s" repeatCount="indefinite" values="0;90"></animateTransform>
  </path>
</g><g transform="translate(550.6781361541493,443.66727912169455) scale(100)" opacity="0.54">
  <path d="M4.2557003999999985 0 C4.2557003999999985 1.4478155999999995 4.219133063600094 2.1716126062647545 3.1953728349324244 3.195372834932424 S1.4478155999999998 4.2557003999999985 2.6058649364950543e-16 4.2557003999999985 S-2.1716126062647545 4.219133063600094 -3.195372834932424 3.1953728349324244 S-4.2557003999999985 1.4478156 -4.2557003999999985 5.211729872990109e-16 S-4.219133063600094 -2.171612606264754 -3.195372834932425 -3.195372834932424 S-1.4478156000000004 -4.2557003999999985 -7.817594809485163e-16 -4.2557003999999985 S2.1716126062647536 -4.219133063600094 3.1953728349324235 -3.195372834932425 S4.2557003999999985 -1.4478156000000006 4.2557003999999985 -1.0423459745980217e-15" fill="#e4812f" stroke-width="0">
    <animateTransform attributeName="transform" type="rotate" dur="11.11111111111111s" repeatCount="indefinite" values="0;90"></animateTransform>
  </path>
</g></g>
</svg>