<?xml version="1.0" encoding="utf-8"?>
<svg xmlns="http://www.w3.org/2000/svg" xmlns:xlink="http://www.w3.org/1999/xlink" style="margin: auto; background: rgb(255, 255, 255); display: block; z-index: 1; position: relative; shape-rendering: auto;" width="1654" height="887" preserveAspectRatio="xMidYMid" viewBox="0 0 1654 887">
<g transform="translate(827,443.5) scale(1,1) translate(-827,-443.5)"><g transform="translate(512.3905044095632,341.27717826076736) scale(100)" opacity="0.59">
  <path d="M3.1756800000000003 0 C3.1756800000000003 0.39696000000000004 3.4127994227492016 0.5883698191466965 3.3009628669854276 0.9692501499527074 S2.8861647980384997 1.3829582287847266 2.6715520191413256 1.7169022311773923 S2.55293283124231 2.3400668586955216 2.2529304802066434 2.600020375642442 S1.6803126653657603 2.723796991446208 1.3192251484898307 2.888700135007437 S0.8825281039774033 3.3488092047308475 0.4896085844083483 3.4053025029318107 S-0.05902686603865065 3.199849454753404 -0.4519463856077058 3.143356156552441 S-1.06807306065472 3.294328289819286 -1.4291605775306497 3.129425146258057 S-1.7796257845396966 2.6599723252322516 -2.079628135575363 2.4000188082853313 S-2.679568575172595 2.193921419501508 -2.894181354069769 1.8599774171088423 S-2.9352060906843134 1.2755727769162024 -3.0470426464480873 0.8946924461101915 S-3.4403200000000003 0.3969600000000005 -3.4403200000000003 4.2131768760426225e-16 S-3.1588792022118617 -0.5138121153041797 -3.0470426464480878 -0.8946924461101906 S-3.1087941329669437 -1.5260334147161758 -2.8941813540697696 -1.8599774171088415 S-2.37963048661103 -2.1400652913384106 -2.0796281355753634 -2.400018808285331 S-1.7902480944065795 -2.964522002696828 -1.42916057753065 -3.129425146258057 S-0.8448659051767615 -3.0868628583514774 -0.45194638560770645 -3.1433561565524406 S0.0966890648392923 -3.4617958011327743 0.4896085844083474 -3.405302502931811 S0.9581376316138999 -3.0536032785686666 1.3192251484898296 -2.8887001350074377 S1.952928129170978 -2.8599738925893625 2.2529304802066443 -2.600020375642442 S2.4569392402441514 -2.0508462335700575 2.6715520191413256 -1.7169022311773918 S3.1891263112216537 -1.3501304807587187 3.3009628669854276 -0.9692501499527078 S3.1756800000000003 -0.3969600000000008 3.1756800000000003 -7.778172694232534e-16" fill="#7377d3" stroke-width="0">
    <animateTransform attributeName="transform" type="rotate" dur="100s" repeatCount="indefinite" values="0;32.72727272727273"></animateTransform>
  </path>
</g><g transform="translate(449.46860529147585,320.83261391292086) scale(100)" opacity="0.59">
  <path d="M3.8108159999999995 0 C3.8108159999999995 0.47635199999999994 4.0953593072990415 0.7060437829760358 3.961155440382513 1.1631001799432488 S3.463397757646199 1.6595498745416715 3.2058624229695902 2.06028267741287 S3.0635193974907713 2.8080802304346255 2.7035165762479716 3.12002445077093 S2.016375198438912 3.268556389735449 1.5830701781877967 3.4664401620089236 S1.0590337247728838 4.018571045677016 0.5875303012900178 4.086363003518172 S-0.07083223924638077 3.8398193457040843 -0.5423356627292468 3.7720273878629285 S-1.2816876727856639 3.9531939477831424 -1.7149926930367794 3.755310175509668 S-2.1355509414476352 3.1919667902787014 -2.495553762690435 2.880022569942397 S-3.2154822902071136 2.6327057034018093 -3.4730176248837226 2.2319729005306104 S-3.5222473088211754 1.5306873322994425 -3.656451175737704 1.0736309353322295 S-4.128384 0.47635200000000044 -4.128384 5.055812251251146e-16 S-3.790655042654233 -0.6165745383650154 -3.6564511757377045 -1.0736309353322284 S-3.730552959560332 -1.8312400976594108 -3.473017624883723 -2.2319729005306095 S-2.8555565839332355 -2.568078349606092 -2.495553762690436 -2.8800225699423962 S-2.148297713287895 -3.5574264032361933 -1.7149926930367796 -3.755310175509668 S-1.0138390862121136 -3.704235430021772 -0.5423356627292476 -3.772027387862928 S0.11602687780715076 -4.154154961359328 0.5875303012900168 -4.086363003518173 S1.1497651579366797 -3.664323934282399 1.5830701781877952 -3.4664401620089245 S2.343513755005173 -3.431968671107234 2.7035165762479725 -3.1200244507709294 S2.9483270882929817 -2.4610154802840687 3.2058624229695902 -2.0602826774128697 S3.8269515734659842 -1.6201565769104622 3.961155440382513 -1.1631001799432492 S3.8108159999999995 -0.4763520000000009 3.8108159999999995 -9.333807233079039e-16" fill="#5657c8" stroke-width="0">
    <animateTransform attributeName="transform" type="rotate" dur="50s" repeatCount="indefinite" values="0;32.72727272727273"></animateTransform>
  </path>
</g><g transform="translate(298.4560474080663,271.7656594780892) scale(100)" opacity="0.59">
  <path d="M5.335142399999999 0 C5.335142399999999 0.6668927999999998 5.733503030218657 0.98846129616645 5.545617616535517 1.628340251920548 S4.848756860704678 2.3233698243583394 4.488207392157426 2.884395748378018 S4.2889271564870795 3.931312322608475 3.78492320674716 4.368034231079301 S2.8229252778144764 4.575978945629628 2.216298249462915 4.853016226812493 S1.482647214682037 5.625999463947823 0.8225424218060249 5.720908204925441 S-0.09916513494493306 5.3757470839857175 -0.7592699278209455 5.280838343008099 S-1.794362741899929 5.534471526896399 -2.4009897702514906 5.257434245713535 S-2.9897713180266887 4.468753506390182 -3.4937752677666083 4.032031597919356 S-4.501675206289959 3.6857879847625323 -4.862224674837211 3.1247620607428543 S-4.931146232349645 2.1429622652192193 -5.119031646032785 1.5030833094651213 S-5.779737599999999 0.6668928000000005 -5.779737599999999 7.078137151751604e-16 S-5.306917059715925 -0.8632043537110216 -5.119031646032785 -1.5030833094651197 S-5.222774143384464 -2.5637361367231746 -4.862224674837211 -3.124762060742853 S-3.9977792175065288 -3.595309689448528 -3.4937752677666096 -4.032031597919354 S-3.0076167986030526 -4.98039696453067 -2.400989770251491 -5.257434245713535 S-1.419374720696959 -5.18592960203048 -0.7592699278209466 -5.2808383430080985 S0.162437628930011 -5.815816945903059 0.8225424218060234 -5.720908204925441 S1.6096712211113515 -5.130053507995358 2.216298249462913 -4.8530162268124934 S3.280919257007242 -4.804756139550127 3.784923206747161 -4.368034231079301 S4.127657923610173 -3.4454216723976954 4.488207392157426 -2.8843957483780174 S5.357732202852377 -2.2682192076746466 5.545617616535517 -1.6283402519205485 S5.335142399999999 -0.6668928000000012 5.335142399999999 -1.3067330126310652e-15" fill="#4648c3" stroke-width="0">
    <animateTransform attributeName="transform" type="rotate" dur="33.333333333333336s" repeatCount="indefinite" values="0;32.72727272727273"></animateTransform>
  </path>
</g><g transform="translate(-18.670324147093993,168.72505516494272) scale(100)" opacity="0.59">
  <path d="M8.53622784 0 C8.53622784 1.06702848 9.173604848349854 1.58153807386632 8.87298818645683 2.6053444030728774 S7.758010977127487 3.717391718973344 7.181131827451884 4.61503319740483 S6.862283450379328 6.290099716173562 6.055877130795457 6.988854769726884 S4.516680444503164 7.321566313007407 3.546077199140665 7.76482596289999 S2.37223554349126 9.001599142316516 1.3160678748896402 9.153453127880706 S-0.15866421591189295 8.60119533437715 -1.214831884513513 8.449341348812961 S-2.870980387039887 8.855154443034241 -3.841583632402386 8.411894793141657 S-4.783634108842704 7.150005610224293 -5.590040428426575 6.451250556670971 S-7.202680330063934 5.897260775620054 -7.779559479739539 4.999619297188568 S-7.889833971759434 3.4287396243507517 -8.190450633652459 2.4049332951441946 S-9.24758016 1.0670284800000012 -9.24758016 1.132501944280257e-15 S-8.491067295545482 -1.3811269659376346 -8.190450633652459 -2.404933295144192 S-8.356438629415145 -4.10197781875708 -7.77955947973954 -4.999619297188565 S-6.396446748010448 -5.752495503117647 -5.590040428426577 -6.451250556670969 S-4.812186877764885 -7.968635143249075 -3.8415836324023864 -8.411894793141657 S-2.270999553115135 -8.29748736324877 -1.2148318845135149 -8.44934134881296 S0.2599002062880176 -9.305307113444897 1.3160678748896377 -9.153453127880708 S2.575473953778163 -8.208085612792576 3.5460771991406617 -7.764825962899993 S5.249470811211588 -7.687609823280205 6.0558771307954595 -6.988854769726883 S6.60425267777628 -5.5126746758363145 7.181131827451884 -4.615033197404829 S8.572371524563806 -3.6291507322794354 8.87298818645683 -2.6053444030728783 S8.53622784 -1.067028480000002 8.53622784 -2.090772820209705e-15" fill="#3b37ba" stroke-width="0">
    <animateTransform attributeName="transform" type="rotate" dur="25s" repeatCount="indefinite" values="0;32.72727272727273"></animateTransform>
  </path>
</g></g>
</svg>