<?xml version="1.0" encoding="utf-8"?>
<svg xmlns="http://www.w3.org/2000/svg" xmlns:xlink="http://www.w3.org/1999/xlink" style="margin: auto; background: rgb(0, 0, 0); display: block; z-index: 1; position: relative; shape-rendering: auto;" width="1741" height="1488" preserveAspectRatio="xMidYMid" viewBox="0 0 1741 1488">
<g transform="translate(870.5,744) scale(1,1) translate(-870.5,-744)"><g transform="translate(-870.5,743.9999999999998) scale(100)" opacity="0.54">
  <path d="M16.8877 0 C16.8877 5.745299999999999 13.941725752362737 12.657177348283689 8.966150000000003 15.529827348283689 S-3.468274247637261 17.497827211490463 -8.443849999999996 14.625177211490465 S-17.9323 5.745300000000001 -17.9323 2.1960733796350082e-15 S-13.419425752362741 -11.75252721149046 -8.443850000000007 -14.625177211490461 S3.9905742476372508 -18.402477348283693 8.966149999999988 -15.529827348283698 S16.8877 -5.745300000000004 16.8877 -4.136293549992151e-15" fill="#f99939" stroke-width="0">
    <animateTransform attributeName="transform" type="rotate" dur="33.333333333333336s" repeatCount="indefinite" values="0;120"></animateTransform>
  </path>
</g><g transform="translate(-1218.6999999999998,743.9999999999998) scale(100)" opacity="0.54">
  <path d="M20.26524 0 C20.26524 6.894359999999999 16.730070902835283 15.188612817940427 10.759380000000002 18.635792817940427 S-4.161929097164712 20.997392653788555 -10.132619999999994 17.550212653788556 S-21.51876 6.894360000000002 -21.51876 2.63528805556201e-15 S-16.10331090283529 -14.10303265378855 -10.132620000000008 -17.550212653788552 S4.788689097164702 -22.08297281794043 10.759379999999986 -18.635792817940434 S20.26524 -6.894360000000004 20.26524 -4.963552259990581e-15" fill="#f79625" stroke-width="0">
    <animateTransform attributeName="transform" type="rotate" dur="16.666666666666668s" repeatCount="indefinite" values="0;120"></animateTransform>
  </path>
</g><g transform="translate(-2054.3799999999997,743.9999999999997) scale(100)" opacity="0.54">
  <path d="M28.371335999999996 0 C28.371335999999996 9.652103999999998 23.422099263969393 21.26405794511659 15.063132000000001 26.09010994511659 S-5.826700736030597 29.396349715303977 -14.18566799999999 24.57029771530398 S-30.126263999999995 9.652104000000001 -30.126263999999995 3.6894032777868134e-15 S-22.544635263969404 -19.74424571530397 -14.18566800000001 -24.570297715303973 S6.704164736030581 -30.9161619451166 15.063131999999978 -26.090109945116605 S28.371335999999992 -9.652104000000005 28.371335999999996 -6.948973163986813e-15" fill="#f49400" stroke-width="0">
    <animateTransform attributeName="transform" type="rotate" dur="11.11111111111111s" repeatCount="indefinite" values="0;120"></animateTransform>
  </path>
</g></g>
</svg>