<?xml version="1.0" encoding="utf-8"?>
<svg xmlns="http://www.w3.org/2000/svg" xmlns:xlink="http://www.w3.org/1999/xlink" style="margin: auto; background: rgb(255, 255, 255); display: block; z-index: 1; position: relative; shape-rendering: auto;" width="1654" height="887" preserveAspectRatio="xMidYMid" viewBox="0 0 1654 887">
<g transform="translate(827,443.5) scale(1,1) translate(-827,-443.5)"><g transform="translate(1373.90491262266,-176.84185458439003) scale(100)" opacity="0.59">
  <path d="M7.9392 0 C7.9392 1.4058999999999993 8.648494969126935 1.0741742032771469 8.252407167463568 2.423125374881768 S7.4389669731141375 3.1095372361361227 6.678880047853314 4.29225557794348 S6.694834527101259 5.579382233252428 5.632326200516608 6.500050939106104 S4.5769144934934936 6.63771837073924 3.2980628712245768 7.221750337518592 S2.615611426161273 8.313175826201114 1.2240214610208706 8.513256257329525 S0.26172400112113836 8.058470822509513 -1.1298659640192643 7.858390391381101 S-2.294049821557707 8.407594832424493 -3.572901443826624 7.823562865645142 S-4.136562012353755 6.920715726567003 -5.199070338938406 6.000047020713327 S-6.475366459913597 5.832661884579462 -7.235453385174422 4.649943542772105 S-7.221518814456852 3.5856822868800995 -7.617606616120217 2.2367311152754783 S-8.6008 1.4059000000000004 -8.6008 1.0532942190106555e-15 S-8.013694417783583 -0.8877799436708549 -7.617606616120218 -2.236731115275476 S-7.995540310435247 -3.467225200964746 -7.235453385174423 -4.649943542772103 S-6.261578665523059 -5.07937831485965 -5.199070338938408 -6.000047020713326 S-4.851753066095541 -7.23953089886579 -3.5729014438266242 -7.823562865645142 S-2.5214559291596688 -7.658309960252688 -1.129865964019266 -7.8583903913811 S-0.16756850411953428 -8.713336688457938 1.2240214610208684 -8.513256257329527 S2.0192112489556564 -7.805782304297945 3.2980628712245736 -7.221750337518594 S4.569817873931958 -7.420719644959779 5.6323262005166095 -6.500050939106103 S5.91879312259249 -5.474973919750836 6.678880047853314 -4.292255577943479 S7.856319365800203 -3.77207654648639 8.252407167463568 -2.423125374881769 S7.9392 -1.4059000000000013 7.9392 -1.944543173558133e-15" fill="#ddabe7" stroke-width="0">
    <animateTransform attributeName="transform" type="rotate" dur="100s" repeatCount="indefinite" values="0;32.72727272727273"></animateTransform>
  </path>
</g><g transform="translate(1483.2858951471922,-300.9102255012681) scale(100)" opacity="0.59">
  <path d="M9.52704 0 C9.52704 1.6870799999999992 10.378193962952322 1.2890090439325763 9.902888600956283 2.907750449858122 S8.926760367736964 3.731444683363348 8.014656057423975 5.150706693532176 S8.03380143252151 6.6952586799029135 6.758791440619929 7.800061126927325 S5.492297392192192 7.965262044887087 3.957675445469492 8.66610040502231 S3.138733711393528 9.975810991441337 1.4688257532250446 10.21590750879543 S0.3140688013453661 9.670164987011415 -1.3558391568231172 9.430068469657321 S-2.7528597858692483 10.089113798909393 -4.2874817325919485 9.388275438774171 S-4.963874414824506 8.304858871880404 -6.238884406726088 7.200056424855993 S-7.770439751896316 6.999194261495354 -8.682544062209306 5.579932251326526 S-8.665822577348221 4.30281874425612 -9.14112793934426 2.684077338330574 S-10.32096 1.6870800000000006 -10.32096 1.2639530628127865e-15 S-9.616433301340301 -1.0653359324050258 -9.141127939344262 -2.6840773383305714 S-9.594648372522297 -4.160670241157695 -8.682544062209308 -5.5799322513265235 S-7.513894398627671 -6.09525397783158 -6.23888440672609 -7.200056424855991 S-5.822103679314649 -8.687437078638949 -4.287481732591949 -9.388275438774171 S-3.0257471149916024 -9.189971952303226 -1.3558391568231192 -9.43006846965732 S-0.2010822049434411 -10.456004026149525 1.4688257532250422 -10.215907508795432 S2.4230534987467873 -9.366938765157535 3.957675445469488 -8.666100405022313 S5.483781448718351 -8.904863573951737 6.758791440619932 -7.800061126927324 S7.1025517471109865 -6.5699687037010035 8.014656057423975 -5.150706693532175 S9.427583238960244 -4.526491855783668 9.902888600956283 -2.907750449858123 S9.52704 -1.6870800000000017 9.52704 -2.33345180826976e-15" fill="#b9bfff" stroke-width="0">
    <animateTransform attributeName="transform" type="rotate" dur="50s" repeatCount="indefinite" values="0;32.72727272727273"></animateTransform>
  </path>
</g><g transform="translate(1745.8002532060689,-598.6743157017752) scale(100)" opacity="0.59">
  <path d="M13.337855999999999 0 C13.337855999999999 2.361911999999999 14.52947154813325 1.8046126615056073 13.864044041338795 4.070850629801371 S12.497464514831751 5.224022556708686 11.220518480393567 7.210989370945046 S11.247322005530116 9.37336215186408 9.462308016867901 10.920085577698256 S7.689216349069069 11.151366862841922 5.540745623657289 12.132540567031233 S4.39422719595094 13.966135388017872 2.0563560545150628 14.302270512313603 S0.4396963218835128 13.53823098181598 -1.8981748195523638 13.202095857520249 S-3.8540037002169476 14.124759318473151 -6.002474425628728 13.14358561428384 S-6.949424180754308 11.626802420632565 -8.734438169416523 10.08007899479839 S-10.878615652654844 9.798871966093497 -12.15556168709303 7.811905151857137 S-12.13215160828751 6.023946241958567 -12.797579115081964 3.7577082736628036 S-14.449344 2.3619120000000007 -14.449344 1.7695342879379012e-15 S-13.46300662187642 -1.4914703053670357 -12.797579115081966 -3.7577082736627996 S-13.432507721531216 -5.8249383376207735 -12.155561687093032 -7.811905151857133 S-10.519452158078739 -8.533355568964213 -8.734438169416524 -10.080078994798388 S-8.15094515104051 -12.162411910094528 -6.002474425628729 -13.14358561428384 S-4.2360459609882435 -12.865960733224517 -1.8981748195523669 -13.202095857520249 S-0.2815150869208174 -14.638405636609335 2.056356054515059 -14.302270512313605 S3.392274898245503 -13.113714271220546 5.540745623657283 -12.132540567031237 S7.677294028205691 -12.466809003532429 9.462308016867905 -10.920085577698254 S9.943572445955382 -9.197956185181404 11.220518480393567 -7.210989370945044 S13.19861653454434 -6.337088598097136 13.864044041338795 -4.070850629801372 S13.337855999999999 -2.361912000000002 13.337855999999999 -3.2668325315776636e-15" fill="#fa9200" stroke-width="0">
    <animateTransform attributeName="transform" type="rotate" dur="33.333333333333336s" repeatCount="indefinite" values="0;32.72727272727273"></animateTransform>
  </path>
</g><g transform="translate(2297.08040512971,-1223.9789051228406) scale(100)" opacity="0.59">
  <path d="M21.340569600000002 0 C21.340569600000002 3.779059199999999 23.2471544770132 2.887380258408972 22.182470466142075 6.513361007682194 S19.995943223730805 8.358436090733898 17.95282956862971 11.537582993512075 S17.99571520884819 14.997379442982531 15.139692826988645 17.472136924317212 S12.302746158510512 17.84218698054708 8.865192997851663 19.412064907249977 S7.030763513521503 22.345816620828597 3.2901696872241004 22.883632819701766 S0.7035141150136206 21.661169570905574 -3.037079711283783 21.123353372032405 S-6.166405920347117 22.599614909557044 -9.603959081005966 21.029736982854146 S-11.119078689206894 18.602883873012107 -13.975101071066439 16.128126391677426 S-17.40578504424775 15.678195145749598 -19.44889869934885 12.499048242971421 S-19.41144257326002 9.63831398713371 -20.476126584131148 6.012333237860487 S-23.118950400000003 3.7790592000000016 -23.118950400000003 2.8312548607006425e-15 S-21.540810595002274 -2.386352488587258 -20.476126584131148 -6.012333237860481 S-21.492012354449948 -9.319901340193239 -19.448898699348852 -12.499048242971416 S-16.831123452925986 -13.653368910342742 -13.975101071066444 -16.128126391677423 S-13.041512241664817 -19.45985905615125 -9.603959081005968 -21.029736982854146 S-6.77767353758119 -20.58553717315923 -3.0370797112837873 -21.1233533720324 S-0.4504241390733088 -23.42144901857494 3.2901696872240946 -22.88363281970177 S5.427639837192805 -20.98194283395288 8.865192997851654 -19.41206490724998 S12.283670445129108 -19.94689440565189 15.13969282698865 -17.47213692431721 S15.909715913528615 -14.71672989629025 17.95282956862971 -11.537582993512073 S21.117786455270945 -10.13934175695542 22.182470466142075 -6.513361007682197 S21.340569600000002 -3.7790592000000043 21.340569600000002 -5.226932050524263e-15" fill="#fe4823" stroke-width="0">
    <animateTransform attributeName="transform" type="rotate" dur="25s" repeatCount="indefinite" values="0;32.72727272727273"></animateTransform>
  </path>
</g></g>
</svg>