<?xml version="1.0" encoding="utf-8"?>
<svg xmlns="http://www.w3.org/2000/svg" xmlns:xlink="http://www.w3.org/1999/xlink" style="margin: auto; background: rgb(245, 243, 243); display: block; z-index: 1; position: relative; shape-rendering: auto;" width="1741" height="1488" preserveAspectRatio="xMidYMid" viewBox="0 0 1741 1488">
<g transform="translate(870.5,744) scale(1,1) translate(-870.5,-744)"><g transform="translate(761.1817054994654,-993.5645341936208) scale(100)" opacity="0.54">
  <path d="M16.8877 0 C16.8877 5.745299999999999 17.884538058225818 5.892296141901932 14.507535448229872 10.540341479684317 S10.682691298976344 14.285761792455279 5.2185862959058 16.061157130237664 S-0.07728044515932275 18.830026104941968 -5.541385448229868 17.054630767159583 S-10.285433685909851 14.574386342921983 -13.662436295905797 9.9263410051396 S-17.9323 5.745300000000001 -17.9323 2.1960733796350082e-15 S-17.039438905901743 -5.278295667357211 -13.662436295905799 -9.926341005139596 S-11.005490451300417 -15.279235429377197 -5.541385448229873 -17.054630767159583 S-0.24551870716474955 -17.83655246802005 5.218586295905796 -16.061157130237664 S11.130532838233924 -15.188386817466704 14.50753544822987 -10.54034147968432 S16.8877 -5.745300000000004 16.8877 -4.136293549992151e-15" fill="#7377d3" stroke-width="0">
    <animateTransform attributeName="transform" type="rotate" dur="50s" repeatCount="indefinite" values="0;72"></animateTransform>
  </path>
</g><g transform="translate(739.3180465993585,-1341.0774410323447) scale(100)" opacity="0.54">
  <path d="M20.26524 0 C20.26524 6.894359999999999 21.46144566987098 7.070755370282317 17.409042537875845 12.648409775621179 S12.819229558771614 17.142914150946332 6.26230355508696 19.273388556285195 S-0.09273653419118766 22.596031325930362 -6.649662537875842 20.4655569205915 S-12.342520423091823 17.48926361150638 -16.394923555086958 11.911609206167519 S-21.51876 6.894360000000002 -21.51876 2.63528805556201e-15 S-20.447326687082093 -6.3339548008286535 -16.394923555086958 -11.911609206167515 S-13.2065885415605 -18.335082515252637 -6.649662537875846 -20.4655569205915 S-0.2946224485976989 -21.403862961624057 6.262303555086955 -19.273388556285198 S13.356639405880706 -18.226064180960044 17.40904253787584 -12.648409775621184 S20.26524 -6.894360000000004 20.26524 -4.963552259990581e-15" fill="#5657c8" stroke-width="0">
    <animateTransform attributeName="transform" type="rotate" dur="25s" repeatCount="indefinite" values="0;72"></animateTransform>
  </path>
</g><g transform="translate(686.8452652391019,-2175.1084174452826) scale(100)" opacity="0.54">
  <path d="M28.371335999999996 0 C28.371335999999996 9.652103999999998 30.046023937819367 9.89905751839524 24.37265955302618 17.707773685869647 S17.94692138228026 24.000079811324866 8.767224977121742 26.982743978799274 S-0.1298311478676606 31.634443856302504 -9.309527553026177 28.651779688828096 S-17.27952859232855 24.48496905610893 -22.95289297712174 16.676252888634526 S-30.126263999999995 9.652104000000001 -30.126263999999995 3.6894032777868134e-15 S-28.62625736191493 -8.867536721160112 -22.952892977121742 -16.67625288863452 S-18.4892239581847 -25.669115521353685 -9.309527553026184 -28.651779688828093 S-0.4124714280367794 -29.965408146273678 8.767224977121737 -26.982743978799274 S18.699295168232986 -25.51648985334406 24.372659553026175 -17.707773685869654 S28.371335999999992 -9.652104000000005 28.371335999999996 -6.948973163986813e-15" fill="#4648c3" stroke-width="0">
    <animateTransform attributeName="transform" type="rotate" dur="16.666666666666668s" repeatCount="indefinite" values="0;72"></animateTransform>
  </path>
</g></g>
</svg>