<svg xmlns="http://www.w3.org/2000/svg" version="1.1" xmlns:xlink="http://www.w3.org/1999/xlink" xmlns:svgjs="http://svgjs.com/svgjs" width="1440" height="560" preserveAspectRatio="none" viewBox="0 0 1440 560"><g mask="url(&quot;#SvgjsMask1018&quot;)" fill="none"><g transform="translate(0, 0)" stroke-linecap="round"><path d="M265 181.445 L265 378.555" stroke-width="26.25" stroke="rgba(241, 138, 1, 1)"></path><path d="M300 155.145 L300 260.145" stroke-width="26.25" stroke="rgba(252, 183, 2, 1)"></path><path d="M300 299.52 L300 325.77" stroke-width="26.25" stroke="rgba(241, 138, 1, 1)"></path><path d="M300 365.145 L300 404.855" stroke-width="26.25" stroke="rgba(252, 183, 2, 1)"></path><path d="M335 239.885 L335 320.115" stroke-width="26.25" stroke="rgba(241, 138, 1, 1)"></path><path d="M370 127.815 L370 206.565" stroke-width="26.25" stroke="rgba(241, 138, 1, 1)"></path><path d="M370 245.94 L370 324.69" stroke-width="26.25" stroke="rgba(241, 138, 1, 1)"></path><path d="M370 364.065 L370 432.185" stroke-width="26.25" stroke="rgba(215, 115, 4, 1)"></path><path d="M405 260.935 L405 299.065" stroke-width="26.25" stroke="rgba(241, 138, 1, 1)"></path><path d="M440 175.705 L440 228.205" stroke-width="26.25" stroke="rgba(252, 183, 2, 1)"></path><path d="M440 267.58000000000004 L440 384.295" stroke-width="26.25" stroke="rgba(252, 183, 2, 1)"></path><path d="M475 267.71500000000003 L475 292.285" stroke-width="26.25" stroke="rgba(252, 183, 2, 1)"></path><path d="M510 232.925 L510 327.075" stroke-width="26.25" stroke="rgba(215, 115, 4, 1)"></path><path d="M545 168.255 L545 273.255" stroke-width="26.25" stroke="rgba(252, 183, 2, 1)"></path><path d="M545 312.63 L545 391.755" stroke-width="26.25" stroke="rgba(241, 138, 1, 1)"></path><path d="M580 145.575 L580 250.575" stroke-width="26.25" stroke="rgba(241, 138, 1, 1)"></path><path d="M580 289.95 L580 342.45" stroke-width="26.25" stroke="rgba(215, 115, 4, 1)"></path><path d="M580 381.825 L580 414.425" stroke-width="26.25" stroke="rgba(252, 183, 2, 1)"></path><path d="M615 270.985 L615 289.015" stroke-width="26.25" stroke="rgba(215, 115, 4, 1)"></path><path d="M650 184.465 L650 236.965" stroke-width="26.25" stroke="rgba(252, 183, 2, 1)"></path><path d="M650 276.34000000000003 L650 302.59000000000003" stroke-width="26.25" stroke="rgba(252, 183, 2, 1)"></path><path d="M650 341.96500000000003 L650 375.525" stroke-width="26.25" stroke="rgba(241, 138, 1, 1)"></path><path d="M685 211.235 L685 237.485" stroke-width="26.25" stroke="rgba(241, 138, 1, 1)"></path><path d="M685 276.86 L685 348.765" stroke-width="26.25" stroke="rgba(241, 138, 1, 1)"></path><path d="M720 221.005 L720 339.005" stroke-width="26.25" stroke="rgba(215, 115, 4, 1)"></path><path d="M755 229.535 L755 330.465" stroke-width="26.25" stroke="rgba(252, 183, 2, 1)"></path><path d="M790 240.255 L790 319.745" stroke-width="26.25" stroke="rgba(215, 115, 4, 1)"></path><path d="M825 266.945 L825 293.055" stroke-width="26.25" stroke="rgba(241, 138, 1, 1)"></path><path d="M860 125.745 L860 178.245" stroke-width="26.25" stroke="rgba(252, 183, 2, 1)"></path><path d="M860 217.62 L860 434.255" stroke-width="26.25" stroke="rgba(215, 115, 4, 1)"></path><path d="M895 272.175 L895 287.825" stroke-width="26.25" stroke="rgba(215, 115, 4, 1)"></path><path d="M930 131.675 L930 236.675" stroke-width="26.25" stroke="rgba(241, 138, 1, 1)"></path><path d="M930 276.05 L930 328.55" stroke-width="26.25" stroke="rgba(252, 183, 2, 1)"></path><path d="M930 367.925 L930 428.325" stroke-width="26.25" stroke="rgba(252, 183, 2, 1)"></path><path d="M965 156.805 L965 235.555" stroke-width="26.25" stroke="rgba(215, 115, 4, 1)"></path><path d="M965 274.93 L965 403.195" stroke-width="26.25" stroke="rgba(215, 115, 4, 1)"></path><path d="M1000 120.625 L1000 251.875" stroke-width="26.25" stroke="rgba(241, 138, 1, 1)"></path><path d="M1000 291.25 L1000 317.5" stroke-width="26.25" stroke="rgba(215, 115, 4, 1)"></path><path d="M1000 356.875 L1000 439.375" stroke-width="26.25" stroke="rgba(241, 138, 1, 1)"></path><path d="M1035 196.975 L1035 249.475" stroke-width="26.25" stroke="rgba(241, 138, 1, 1)"></path><path d="M1035 288.85 L1035 363.025" stroke-width="26.25" stroke="rgba(241, 138, 1, 1)"></path><path d="M1070 222.295 L1070 248.545" stroke-width="26.25" stroke="rgba(241, 138, 1, 1)"></path><path d="M1070 287.91999999999996 L1070 337.705" stroke-width="26.25" stroke="rgba(241, 138, 1, 1)"></path><path d="M1105 234.715 L1105 325.275" stroke-width="26.25" stroke="rgba(252, 183, 2, 1)"></path><path d="M1140 149.715 L1140 228.465" stroke-width="26.25" stroke="rgba(252, 183, 2, 1)"></path><path d="M1140 267.84000000000003 L1140 320.34000000000003" stroke-width="26.25" stroke="rgba(215, 115, 4, 1)"></path><path d="M1140 359.71500000000003 L1140 410.275" stroke-width="26.25" stroke="rgba(215, 115, 4, 1)"></path><path d="M1175 188.705 L1175 214.955" stroke-width="26.25" stroke="rgba(215, 115, 4, 1)"></path><path d="M1175 254.33 L1175 280.58000000000004" stroke-width="26.25" stroke="rgba(241, 138, 1, 1)"></path><path d="M1175 319.95500000000004 L1175 371.295" stroke-width="26.25" stroke="rgba(252, 183, 2, 1)"></path></g></g><defs><mask id="SvgjsMask1018"><rect width="1440" height="560" fill="#ffffff"></rect></mask></defs></svg>