<svg xmlns="http://www.w3.org/2000/svg" version="1.1" xmlns:xlink="http://www.w3.org/1999/xlink" xmlns:svgjs="http://svgjs.com/svgjs" width="1440" height="560" preserveAspectRatio="none" viewBox="0 0 1440 560"><g mask="url(&quot;#SvgjsMask1074&quot;)" fill="none"><rect width="1440" height="560" x="0" y="0" fill="rgba(0, 0, 0, 1)"></rect><g transform="translate(0, 0)" stroke-linecap="round"><path d="M265 129.375 L265 339.375" stroke-width="26.25" stroke="rgba(215, 115, 4, 1)"></path><path d="M265 378.75 L265 430.625" stroke-width="26.25" stroke="rgba(252, 183, 2, 1)"></path><path d="M300 204.865 L300 257.365" stroke-width="26.25" stroke="rgba(215, 115, 4, 1)"></path><path d="M300 296.74 L300 355.135" stroke-width="26.25" stroke="rgba(252, 183, 2, 1)"></path><path d="M335 166.575 L335 219.075" stroke-width="26.25" stroke="rgba(215, 115, 4, 1)"></path><path d="M335 258.45 L335 284.7" stroke-width="26.25" stroke="rgba(252, 183, 2, 1)"></path><path d="M335 324.075 L335 393.425" stroke-width="26.25" stroke="rgba(215, 115, 4, 1)"></path><path d="M370 270.065 L370 289.935" stroke-width="26.25" stroke="rgba(252, 183, 2, 1)"></path><path d="M405 111.625 L405 448.375" stroke-width="26.25" stroke="rgba(215, 115, 4, 1)"></path><path d="M440 246.185 L440 313.815" stroke-width="26.25" stroke="rgba(241, 138, 1, 1)"></path><path d="M475 258.505 L475 301.495" stroke-width="26.25" stroke="rgba(241, 138, 1, 1)"></path><path d="M510 125.715 L510 204.465" stroke-width="26.25" stroke="rgba(215, 115, 4, 1)"></path><path d="M510 243.84 L510 322.59000000000003" stroke-width="26.25" stroke="rgba(241, 138, 1, 1)"></path><path d="M510 361.96500000000003 L510 434.285" stroke-width="26.25" stroke="rgba(241, 138, 1, 1)"></path><path d="M545 144.325 L545 249.325" stroke-width="26.25" stroke="rgba(215, 115, 4, 1)"></path><path d="M545 288.7 L545 341.2" stroke-width="26.25" stroke="rgba(241, 138, 1, 1)"></path><path d="M545 380.575 L545 415.675" stroke-width="26.25" stroke="rgba(252, 183, 2, 1)"></path><path d="M580 228.675 L580 331.325" stroke-width="26.25" stroke="rgba(252, 183, 2, 1)"></path><path d="M615 202.745 L615 228.995" stroke-width="26.25" stroke="rgba(241, 138, 1, 1)"></path><path d="M615 268.37 L615 357.255" stroke-width="26.25" stroke="rgba(252, 183, 2, 1)"></path><path d="M650 171.175 L650 388.825" stroke-width="26.25" stroke="rgba(252, 183, 2, 1)"></path><path d="M685 164.935 L685 395.065" stroke-width="26.25" stroke="rgba(215, 115, 4, 1)"></path><path d="M720 202.785 L720 229.035" stroke-width="26.25" stroke="rgba(215, 115, 4, 1)"></path><path d="M720 268.40999999999997 L720 357.215" stroke-width="26.25" stroke="rgba(215, 115, 4, 1)"></path><path d="M755 130.435 L755 429.565" stroke-width="26.25" stroke="rgba(215, 115, 4, 1)"></path><path d="M790 154.365 L790 206.865" stroke-width="26.25" stroke="rgba(252, 183, 2, 1)"></path><path d="M790 246.24 L790 324.99" stroke-width="26.25" stroke="rgba(252, 183, 2, 1)"></path><path d="M790 364.365 L790 405.635" stroke-width="26.25" stroke="rgba(252, 183, 2, 1)"></path><path d="M825 237.925 L825 322.075" stroke-width="26.25" stroke="rgba(241, 138, 1, 1)"></path><path d="M860 153.545 L860 406.455" stroke-width="26.25" stroke="rgba(252, 183, 2, 1)"></path><path d="M895 195.875 L895 222.125" stroke-width="26.25" stroke="rgba(241, 138, 1, 1)"></path><path d="M895 261.5 L895 287.75" stroke-width="26.25" stroke="rgba(252, 183, 2, 1)"></path><path d="M895 327.125 L895 364.125" stroke-width="26.25" stroke="rgba(241, 138, 1, 1)"></path><path d="M930 226.525 L930 252.775" stroke-width="26.25" stroke="rgba(215, 115, 4, 1)"></path><path d="M930 292.15 L930 333.475" stroke-width="26.25" stroke="rgba(252, 183, 2, 1)"></path><path d="M965 181.125 L965 378.875" stroke-width="26.25" stroke="rgba(252, 183, 2, 1)"></path><path d="M1000 257.195 L1000 302.805" stroke-width="26.25" stroke="rgba(252, 183, 2, 1)"></path><path d="M1035 245.135 L1035 314.865" stroke-width="26.25" stroke="rgba(252, 183, 2, 1)"></path><path d="M1070 267.895 L1070 292.105" stroke-width="26.25" stroke="rgba(252, 183, 2, 1)"></path><path d="M1105 246.115 L1105 313.885" stroke-width="26.25" stroke="rgba(215, 115, 4, 1)"></path><path d="M1140 181.565 L1140 207.815" stroke-width="26.25" stroke="rgba(252, 183, 2, 1)"></path><path d="M1140 247.19 L1140 273.44" stroke-width="26.25" stroke="rgba(252, 183, 2, 1)"></path><path d="M1140 312.815 L1140 378.435" stroke-width="26.25" stroke="rgba(241, 138, 1, 1)"></path><path d="M1175 271.485 L1175 288.515" stroke-width="26.25" stroke="rgba(215, 115, 4, 1)"></path></g></g><defs><mask id="SvgjsMask1074"><rect width="1440" height="560" fill="#ffffff"></rect></mask></defs></svg>