<svg xmlns="http://www.w3.org/2000/svg" version="1.1" xmlns:xlink="http://www.w3.org/1999/xlink" xmlns:svgjs="http://svgjs.com/svgjs" width="1440" height="560" preserveAspectRatio="none" viewBox="0 0 1440 560"><g mask="url(&quot;#SvgjsMask1175&quot;)" fill="none"><g transform="translate(0, 0)" stroke-linecap="round"><path d="M387.5 251.37 L387.5 308.63" stroke-width="26.25" stroke="rgba(252, 183, 2, 1)"></path><path d="M422.5 260.69 L422.5 299.31" stroke-width="26.25" stroke="rgba(252, 183, 2, 1)"></path><path d="M457.5 233.65 L457.5 326.36" stroke-width="26.25" stroke="rgba(215, 115, 4, 1)"></path><path d="M492.5 182.78 L492.5 377.22" stroke-width="26.25" stroke="rgba(241, 138, 1, 1)"></path><path d="M527.5 266.04 L527.5 293.96" stroke-width="26.25" stroke="rgba(215, 115, 4, 1)"></path><path d="M562.5 198.55 L562.5 361.45" stroke-width="26.25" stroke="rgba(252, 183, 2, 1)"></path><path d="M597.5 241.15 L597.5 318.85" stroke-width="26.25" stroke="rgba(215, 115, 4, 1)"></path><path d="M632.5 170.99 L632.5 389.01" stroke-width="26.25" stroke="rgba(252, 183, 2, 1)"></path><path d="M667.5 234.67 L667.5 325.33" stroke-width="26.25" stroke="rgba(215, 115, 4, 1)"></path><path d="M702.5 222.75 L702.5 337.25" stroke-width="26.25" stroke="rgba(215, 115, 4, 1)"></path><path d="M737.5 193.59 L737.5 366.4" stroke-width="26.25" stroke="rgba(252, 183, 2, 1)"></path><path d="M772.5 220.69 L772.5 339.31" stroke-width="26.25" stroke="rgba(215, 115, 4, 1)"></path><path d="M807.5 220.94 L807.5 339.06" stroke-width="26.25" stroke="rgba(252, 183, 2, 1)"></path><path d="M842.5 170.73 L842.5 389.27" stroke-width="26.25" stroke="rgba(252, 183, 2, 1)"></path><path d="M877.5 261.64 L877.5 298.36" stroke-width="26.25" stroke="rgba(215, 115, 4, 1)"></path><path d="M912.5 208.49 L912.5 351.51" stroke-width="26.25" stroke="rgba(241, 138, 1, 1)"></path><path d="M947.5 242.82 L947.5 317.18" stroke-width="26.25" stroke="rgba(215, 115, 4, 1)"></path><path d="M982.5 179.81 L982.5 380.19" stroke-width="26.25" stroke="rgba(252, 183, 2, 1)"></path><path d="M1017.5 244.84 L1017.5 315.17" stroke-width="26.25" stroke="rgba(241, 138, 1, 1)"></path><path d="M1052.5 251.06 L1052.5 308.94" stroke-width="26.25" stroke="rgba(252, 183, 2, 1)"></path></g></g><defs><mask id="SvgjsMask1175"><rect width="1440" height="560" fill="#ffffff"></rect></mask></defs></svg>